<?xml version="1.0" encoding="UTF-8" standalone="no"?>
<svg
   xmlns:lucid="lucid"
   xmlns:dc="http://purl.org/dc/elements/1.1/"
   xmlns:cc="http://creativecommons.org/ns#"
   xmlns:rdf="http://www.w3.org/1999/02/22-rdf-syntax-ns#"
   xmlns:svg="http://www.w3.org/2000/svg"
   xmlns="http://www.w3.org/2000/svg"
   xmlns:xlink="http://www.w3.org/1999/xlink"
   xmlns:sodipodi="http://sodipodi.sourceforge.net/DTD/sodipodi-0.dtd"
   xmlns:inkscape="http://www.inkscape.org/namespaces/inkscape"
   width="557.01044"
   height="261.41306"
   version="1.1"
   id="svg413"
   sodipodi:docname="broken_windows_fear.svg"
   inkscape:version="0.92.3 (2405546, 2018-03-11)">
  <metadata
     id="metadata419">
    <rdf:RDF>
      <cc:Work
         rdf:about="">
        <dc:format>image/svg+xml</dc:format>
        <dc:type
           rdf:resource="http://purl.org/dc/dcmitype/StillImage" />
        <dc:title></dc:title>
      </cc:Work>
    </rdf:RDF>
  </metadata>
  <defs
     id="defs417">
    <marker
       inkscape:stockid="Arrow2Lend"
       orient="auto"
       refY="0"
       refX="0"
       id="Arrow2Lend"
       style="overflow:visible"
       inkscape:isstock="true">
      <path
         id="path1730"
         style="fill:#000000;fill-opacity:1;fill-rule:evenodd;stroke:#000000;stroke-width:0.625;stroke-linejoin:round;stroke-opacity:1"
         d="M 8.7185878,4.0337352 -2.2072895,0.01601326 8.7185884,-4.0017078 c -1.7454984,2.3720609 -1.7354408,5.6174519 -6e-7,8.035443 z"
         transform="matrix(-1.1,0,0,-1.1,-1.1,0)"
         inkscape:connector-curvature="0" />
    </marker>
    <marker
       inkscape:stockid="Arrow2Lend"
       orient="auto"
       refY="0"
       refX="0"
       id="Arrow2Lend-4"
       style="overflow:visible"
       inkscape:isstock="true">
      <path
         inkscape:connector-curvature="0"
         id="path1730-9"
         style="fill:#000000;fill-opacity:1;fill-rule:evenodd;stroke:#000000;stroke-width:0.625;stroke-linejoin:round;stroke-opacity:1"
         d="M 8.7185878,4.0337352 -2.2072895,0.01601326 8.7185884,-4.0017078 c -1.7454984,2.3720609 -1.7354408,5.6174519 -6e-7,8.035443 z"
         transform="matrix(-1.1,0,0,-1.1,-1.1,0)" />
    </marker>
    <marker
       inkscape:stockid="Arrow2Lend"
       orient="auto"
       refY="0"
       refX="0"
       id="Arrow2Lend-4-2"
       style="overflow:visible"
       inkscape:isstock="true">
      <path
         inkscape:connector-curvature="0"
         id="path1730-9-1"
         style="fill:#000000;fill-opacity:1;fill-rule:evenodd;stroke:#000000;stroke-width:0.625;stroke-linejoin:round;stroke-opacity:1"
         d="M 8.7185878,4.0337352 -2.2072895,0.01601326 8.7185884,-4.0017078 c -1.7454984,2.3720609 -1.7354408,5.6174519 -6e-7,8.035443 z"
         transform="matrix(-1.1,0,0,-1.1,-1.1,0)" />
    </marker>
    <marker
       inkscape:stockid="Arrow2Lend"
       orient="auto"
       refY="0"
       refX="0"
       id="Arrow2Lend-4-2-2"
       style="overflow:visible"
       inkscape:isstock="true">
      <path
         inkscape:connector-curvature="0"
         id="path1730-9-1-0"
         style="fill:#000000;fill-opacity:1;fill-rule:evenodd;stroke:#000000;stroke-width:0.625;stroke-linejoin:round;stroke-opacity:1"
         d="M 8.7185878,4.0337352 -2.2072895,0.01601326 8.7185884,-4.0017078 c -1.7454984,2.3720609 -1.7354408,5.6174519 -6e-7,8.035443 z"
         transform="matrix(-1.1,0,0,-1.1,-1.1,0)" />
    </marker>
    <marker
       inkscape:stockid="Arrow2Lend"
       orient="auto"
       refY="0"
       refX="0"
       id="Arrow2Lend-4-2-7"
       style="overflow:visible"
       inkscape:isstock="true">
      <path
         inkscape:connector-curvature="0"
         id="path1730-9-1-2"
         style="fill:#000000;fill-opacity:1;fill-rule:evenodd;stroke:#000000;stroke-width:0.625;stroke-linejoin:round;stroke-opacity:1"
         d="M 8.7185878,4.0337352 -2.2072895,0.01601326 8.7185884,-4.0017078 c -1.7454984,2.3720609 -1.7354408,5.6174519 -6e-7,8.035443 z"
         transform="matrix(-1.1,0,0,-1.1,-1.1,0)" />
    </marker>
    <marker
       inkscape:stockid="Arrow2Lend"
       orient="auto"
       refY="0"
       refX="0"
       id="Arrow2Lend-4-2-7-8"
       style="overflow:visible"
       inkscape:isstock="true">
      <path
         inkscape:connector-curvature="0"
         id="path1730-9-1-2-5"
         style="fill:#000000;fill-opacity:1;fill-rule:evenodd;stroke:#000000;stroke-width:0.625;stroke-linejoin:round;stroke-opacity:1"
         d="M 8.7185878,4.0337352 -2.2072895,0.01601326 8.7185884,-4.0017078 c -1.7454984,2.3720609 -1.7354408,5.6174519 -6e-7,8.035443 z"
         transform="matrix(-1.1,0,0,-1.1,-1.1,0)" />
    </marker>
  </defs>
  <sodipodi:namedview
     pagecolor="#ffffff"
     bordercolor="#666666"
     borderopacity="1"
     objecttolerance="10"
     gridtolerance="10"
     guidetolerance="10"
     inkscape:pageopacity="0"
     inkscape:pageshadow="2"
     inkscape:window-width="2560"
     inkscape:window-height="1377"
     id="namedview415"
     showgrid="false"
     inkscape:snap-text-baseline="false"
     inkscape:zoom="1.9391892"
     inkscape:cx="268.07959"
     inkscape:cy="133.71535"
     inkscape:window-x="-8"
     inkscape:window-y="-8"
     inkscape:window-maximized="1"
     inkscape:current-layer="g411" />
  <g
     transform="translate(-78.400701,-96.738672)"
     lucid:page-tab-id="0_0"
     id="g411">
    <path
       d="M 240,140 H 469.31839"
       id="path250"
       style="fill:none;stroke:#000000;stroke-width:2;marker-end:url(#Arrow2Lend)"
       inkscape:connector-curvature="0"
       sodipodi:nodetypes="cc" />
    <g
       id="g296" />
    <defs
       id="defs409">
      <path
         d="m 30,-248 c 118,-7 216,8 213,122 C 240,-48 200,0 122,0 H 30 Z m 33,221 c 89,8 146,-16 146,-99 0,-83 -60,-101 -146,-95 v 194"
         id="m"
         inkscape:connector-curvature="0" />
      <path
         d="m 24,-231 v -30 h 32 v 30 z M 24,0 V -190 H 56 V 0 H 24"
         id="n"
         inkscape:connector-curvature="0" />
      <path
         d="m 135,-143 c -3,-34 -86,-38 -87,0 15,53 115,12 119,90 4,78 -150,74 -157,8 l 28,-5 c 4,36 97,45 98,0 -10,-56 -113,-15 -118,-90 -4,-57 82,-63 122,-42 12,7 21,19 24,35"
         id="o"
         inkscape:connector-curvature="0" />
      <path
         d="m 100,-194 c 62,-1 85,37 85,99 1,63 -27,99 -86,99 -59,0 -83,-39 -84,-99 0,-66 28,-99 85,-99 z m -1,174 c 44,1 53,-31 53,-75 0,-43 -8,-75 -51,-75 -43,0 -53,32 -53,75 0,43 10,74 51,75"
         id="p"
         inkscape:connector-curvature="0" />
      <path
         d="M 114,-163 C 36,-179 61,-72 57,0 H 25 l -1,-190 h 30 c 1,12 -1,29 2,39 6,-27 23,-49 58,-41 v 29"
         id="q"
         inkscape:connector-curvature="0" />
      <path
         d="m 85,-194 c 31,0 48,13 60,33 l -1,-100 h 32 l 1,261 h -30 c -2,-10 0,-23 -3,-31 C 134,-8 116,4 85,4 32,4 16,-35 15,-94 c 0,-66 23,-100 70,-100 z m 9,24 c -40,0 -46,34 -46,75 0,40 6,74 45,74 42,0 51,-32 51,-76 0,-42 -9,-74 -50,-73"
         id="r"
         inkscape:connector-curvature="0" />
      <path
         d="m 100,-194 c 63,0 86,42 84,106 H 49 c 0,40 14,67 53,68 26,1 43,-12 49,-29 l 28,8 C 168,-13 142,4 102,4 44,4 14,-33 15,-96 c 1,-61 26,-98 85,-98 z m 52,81 c 6,-60 -76,-77 -97,-28 -3,7 -6,17 -6,28 h 103"
         id="s"
         inkscape:connector-curvature="0" />
      <g
         id="a">
        <use
           transform="scale(0.05)"
           xlink:href="#m"
           id="use305"
           x="0"
           y="0"
           width="100%"
           height="100%" />
        <use
           transform="matrix(0.05,0,0,0.05,12.95,0)"
           xlink:href="#n"
           id="use307"
           x="0"
           y="0"
           width="100%"
           height="100%" />
        <use
           transform="matrix(0.05,0,0,0.05,16.9,0)"
           xlink:href="#o"
           id="use309"
           x="0"
           y="0"
           width="100%"
           height="100%" />
        <use
           transform="matrix(0.05,0,0,0.05,25.9,0)"
           xlink:href="#p"
           id="use311"
           x="0"
           y="0"
           width="100%"
           height="100%" />
        <use
           transform="matrix(0.05,0,0,0.05,35.9,0)"
           xlink:href="#q"
           id="use313"
           x="0"
           y="0"
           width="100%"
           height="100%" />
        <use
           transform="matrix(0.05,0,0,0.05,41.85,0)"
           xlink:href="#r"
           id="use315"
           x="0"
           y="0"
           width="100%"
           height="100%" />
        <use
           transform="matrix(0.05,0,0,0.05,51.85,0)"
           xlink:href="#s"
           id="use317"
           x="0"
           y="0"
           width="100%"
           height="100%" />
        <use
           transform="matrix(0.05,0,0,0.05,61.85,0)"
           xlink:href="#q"
           id="use319"
           x="0"
           y="0"
           width="100%"
           height="100%" />
      </g>
      <path
         d="m 212,-179 c -10,-28 -35,-45 -73,-45 -59,0 -87,40 -87,99 0,60 29,101 89,101 43,0 62,-24 78,-52 l 27,14 C 228,-24 195,4 139,4 59,4 22,-46 18,-125 c -6,-104 99,-153 187,-111 19,9 31,26 39,46"
         id="t"
         inkscape:connector-curvature="0" />
      <path
         d="m 210,-169 c -67,3 -38,105 -44,169 h -31 v -121 c 0,-29 -5,-50 -35,-48 C 34,-165 62,-65 56,0 H 25 l -1,-190 h 30 c 1,10 -1,24 2,32 10,-44 99,-50 107,0 11,-21 27,-35 58,-36 85,-2 47,119 55,194 h -31 v -121 c 0,-29 -5,-49 -35,-48"
         id="u"
         inkscape:connector-curvature="0" />
      <g
         id="b">
        <use
           transform="scale(0.05)"
           xlink:href="#t"
           id="use324"
           x="0"
           y="0"
           width="100%"
           height="100%" />
        <use
           transform="matrix(0.05,0,0,0.05,12.95,0)"
           xlink:href="#q"
           id="use326"
           x="0"
           y="0"
           width="100%"
           height="100%" />
        <use
           transform="matrix(0.05,0,0,0.05,18.9,0)"
           xlink:href="#n"
           id="use328"
           x="0"
           y="0"
           width="100%"
           height="100%" />
        <use
           transform="matrix(0.05,0,0,0.05,22.85,0)"
           xlink:href="#u"
           id="use330"
           x="0"
           y="0"
           width="100%"
           height="100%" />
        <use
           transform="matrix(0.05,0,0,0.05,37.8,0)"
           xlink:href="#s"
           id="use332"
           x="0"
           y="0"
           width="100%"
           height="100%" />
      </g>
      <path
         d="m 0,4 72,-265 h 28 L 28,4 H 0"
         id="v"
         inkscape:connector-curvature="0" />
      <use
         transform="scale(0.05)"
         xlink:href="#v"
         id="c"
         x="0"
         y="0"
         width="100%"
         height="100%" />
      <path
         d="M 190,0 58,-211 59,0 H 30 v -248 h 39 l 133,213 -2,-213 h 31 V 0 h -41"
         id="w"
         inkscape:connector-curvature="0" />
      <g
         id="d">
        <use
           transform="scale(0.05)"
           xlink:href="#w"
           id="use338"
           x="0"
           y="0"
           width="100%"
           height="100%" />
        <use
           transform="matrix(0.05,0,0,0.05,12.95,0)"
           xlink:href="#p"
           id="use340"
           x="0"
           y="0"
           width="100%"
           height="100%" />
        <use
           transform="matrix(0.05,0,0,0.05,22.95,0)"
           xlink:href="#q"
           id="use342"
           x="0"
           y="0"
           width="100%"
           height="100%" />
        <use
           transform="matrix(0.05,0,0,0.05,28.9,0)"
           xlink:href="#u"
           id="use344"
           x="0"
           y="0"
           width="100%"
           height="100%" />
      </g>
      <path
         d="M 137,0 H 103 L 2,-248 h 35 l 83,218 83,-218 h 36"
         id="x"
         inkscape:connector-curvature="0" />
      <path
         d="M 24,0 V -261 H 56 V 0 H 24"
         id="y"
         inkscape:connector-curvature="0" />
      <path
         d="M 141,-36 C 126,-15 110,5 73,4 37,3 15,-17 15,-53 c -1,-64 63,-63 125,-63 3,-35 -9,-54 -41,-54 -24,1 -41,7 -42,31 l -33,-3 c 5,-37 33,-52 76,-52 45,0 72,20 72,64 v 82 c -1,20 7,32 28,27 V -1 C 169,8 139,-3 141,-36 Z M 48,-53 c 0,20 12,33 32,33 41,-3 63,-29 60,-74 -43,2 -92,-5 -92,41"
         id="z"
         inkscape:connector-curvature="0" />
      <path
         d="m 59,-47 c -2,24 18,29 38,22 V -1 C 64,9 27,4 27,-40 V -167 H 5 v -23 h 24 l 9,-43 h 21 v 43 h 35 v 23 H 59 v 120"
         id="A"
         inkscape:connector-curvature="0" />
      <path
         d="m 117,-194 c 89,-4 53,116 60,194 h -32 v -121 c 0,-31 -8,-49 -39,-48 C 34,-167 62,-67 57,0 H 25 l -1,-190 h 30 c 1,10 -1,24 2,32 11,-22 29,-35 61,-36"
         id="B"
         inkscape:connector-curvature="0" />
      <g
         id="e">
        <use
           transform="scale(0.05)"
           xlink:href="#x"
           id="use352"
           x="0"
           y="0"
           width="100%"
           height="100%" />
        <use
           transform="matrix(0.05,0,0,0.05,11.65,0)"
           xlink:href="#n"
           id="use354"
           x="0"
           y="0"
           width="100%"
           height="100%" />
        <use
           transform="matrix(0.05,0,0,0.05,15.6,0)"
           xlink:href="#p"
           id="use356"
           x="0"
           y="0"
           width="100%"
           height="100%" />
        <use
           transform="matrix(0.05,0,0,0.05,25.6,0)"
           xlink:href="#y"
           id="use358"
           x="0"
           y="0"
           width="100%"
           height="100%" />
        <use
           transform="matrix(0.05,0,0,0.05,29.55,0)"
           xlink:href="#z"
           id="use360"
           x="0"
           y="0"
           width="100%"
           height="100%" />
        <use
           transform="matrix(0.05,0,0,0.05,39.55,0)"
           xlink:href="#A"
           id="use362"
           x="0"
           y="0"
           width="100%"
           height="100%" />
        <use
           transform="matrix(0.05,0,0,0.05,44.55,0)"
           xlink:href="#n"
           id="use364"
           x="0"
           y="0"
           width="100%"
           height="100%" />
        <use
           transform="matrix(0.05,0,0,0.05,48.5,0)"
           xlink:href="#p"
           id="use366"
           x="0"
           y="0"
           width="100%"
           height="100%" />
        <use
           transform="matrix(0.05,0,0,0.05,58.5,0)"
           xlink:href="#B"
           id="use368"
           x="0"
           y="0"
           width="100%"
           height="100%" />
      </g>
      <path
         d="m 185,-189 c -5,-48 -123,-54 -124,2 14,75 158,14 163,119 C 227,10 103,19 49,-13 32,-23 21,-39 16,-59 l 33,-7 c 5,56 141,63 141,-1 0,-78 -155,-14 -162,-118 -5,-82 145,-84 179,-34 5,7 8,16 11,25"
         id="C"
         inkscape:connector-curvature="0" />
      <path
         d="m 96,-169 c -40,0 -48,33 -48,73 0,40 9,75 48,75 24,0 41,-14 43,-38 l 32,2 C 165,-20 140,4 97,4 38,4 21,-37 15,-95 c -10,-93 101,-131 147,-64 4,7 5,14 7,22 l -32,3 c -4,-21 -16,-35 -41,-35"
         id="D"
         inkscape:connector-curvature="0" />
      <g
         id="f">
        <use
           transform="scale(0.05)"
           xlink:href="#C"
           id="use373"
           x="0"
           y="0"
           width="100%"
           height="100%" />
        <use
           transform="matrix(0.05,0,0,0.05,12,0)"
           xlink:href="#p"
           id="use375"
           x="0"
           y="0"
           width="100%"
           height="100%" />
        <use
           transform="matrix(0.05,0,0,0.05,22,0)"
           xlink:href="#D"
           id="use377"
           x="0"
           y="0"
           width="100%"
           height="100%" />
        <use
           transform="matrix(0.05,0,0,0.05,31,0)"
           xlink:href="#n"
           id="use379"
           x="0"
           y="0"
           width="100%"
           height="100%" />
        <use
           transform="matrix(0.05,0,0,0.05,34.95,0)"
           xlink:href="#z"
           id="use381"
           x="0"
           y="0"
           width="100%"
           height="100%" />
        <use
           transform="matrix(0.05,0,0,0.05,44.95,0)"
           xlink:href="#y"
           id="use383"
           x="0"
           y="0"
           width="100%"
           height="100%" />
      </g>
      <g
         id="g">
        <use
           transform="scale(0.05)"
           xlink:href="#t"
           id="use386"
           x="0"
           y="0"
           width="100%"
           height="100%" />
        <use
           transform="matrix(0.05,0,0,0.05,12.95,0)"
           xlink:href="#p"
           id="use388"
           x="0"
           y="0"
           width="100%"
           height="100%" />
        <use
           transform="matrix(0.05,0,0,0.05,22.95,0)"
           xlink:href="#B"
           id="use390"
           x="0"
           y="0"
           width="100%"
           height="100%" />
        <use
           transform="matrix(0.05,0,0,0.05,32.95,0)"
           xlink:href="#A"
           id="use392"
           x="0"
           y="0"
           width="100%"
           height="100%" />
        <use
           transform="matrix(0.05,0,0,0.05,37.95,0)"
           xlink:href="#q"
           id="use394"
           x="0"
           y="0"
           width="100%"
           height="100%" />
        <use
           transform="matrix(0.05,0,0,0.05,43.9,0)"
           xlink:href="#p"
           id="use396"
           x="0"
           y="0"
           width="100%"
           height="100%" />
        <use
           transform="matrix(0.05,0,0,0.05,53.9,0)"
           xlink:href="#y"
           id="use398"
           x="0"
           y="0"
           width="100%"
           height="100%" />
      </g>
      <path
         d="M 205,0 177,-72 H 64 L 36,0 H 1 l 101,-248 h 38 L 239,0 Z m -38,-99 -47,-123 c -12,45 -31,82 -46,123 h 93"
         id="E"
         inkscape:connector-curvature="0" />
      <use
         transform="scale(0.08641975)"
         xlink:href="#E"
         id="h"
         x="0"
         y="0"
         width="100%"
         height="100%" />
      <use
         transform="scale(0.08641975)"
         xlink:href="#m"
         id="i"
         x="0"
         y="0"
         width="100%"
         height="100%" />
      <path
         d="m 160,-131 c 35,5 61,23 61,61 0,87 -106,68 -191,70 v -248 c 76,3 177,-17 177,60 0,33 -19,50 -47,57 z m -97,-11 c 50,-1 110,9 110,-42 0,-47 -63,-36 -110,-37 z m 0,115 c 55,-2 124,14 124,-45 0,-56 -70,-42 -124,-44 v 89"
         id="F"
         inkscape:connector-curvature="0" />
      <use
         transform="scale(0.08641975)"
         xlink:href="#F"
         id="j"
         x="0"
         y="0"
         width="100%"
         height="100%" />
      <use
         transform="scale(0.08641975)"
         xlink:href="#t"
         id="k"
         x="0"
         y="0"
         width="100%"
         height="100%" />
      <path
         d="m 30,0 v -248 h 187 v 28 H 63 v 79 h 144 v 27 H 63 v 87 H 225 V 0 H 30"
         id="G"
         inkscape:connector-curvature="0" />
      <use
         transform="scale(0.08641975)"
         xlink:href="#G"
         id="l"
         x="0"
         y="0"
         width="100%"
         height="100%" />
    </defs>
    <g
       id="g20912"
       transform="translate(0,0.773515)">
      <path
         sodipodi:nodetypes="ccccc"
         style="fill:#ffffff;stroke:#000000;stroke-width:2"
         inkscape:connector-curvature="0"
         id="path244-2"
         d="M 79.400701,96.965157 H 239.4007 V 186.54007 H 79.400701 Z" />
      <text
         id="text4126"
         y="151.664"
         x="95.503952"
         style="font-style:normal;font-variant:normal;font-weight:normal;font-stretch:normal;font-size:32px;line-height:1.25;font-family:Quattrocento;-inkscape-font-specification:'Quattrocento, Normal';font-variant-ligatures:normal;font-variant-caps:normal;font-variant-numeric:normal;font-feature-settings:normal;text-align:start;letter-spacing:0px;word-spacing:0px;writing-mode:lr-tb;text-anchor:start;fill:#000000;fill-opacity:1;stroke:none"
         xml:space="preserve"><tspan
           y="151.664"
           x="95.503952"
           id="tspan4124"
           sodipodi:role="line">Disorder</tspan></text>
    </g>
    <g
       id="g20907"
       transform="translate(0,-0.773515)">
      <path
         sodipodi:nodetypes="ccccc"
         style="fill:#ffffff;stroke:#000000;stroke-width:2"
         inkscape:connector-curvature="0"
         id="path244-8"
         d="m 474.41116,98.512187 h 160 V 188.0871 h -160 z" />
      <text
         id="text4126-2"
         y="154.00365"
         x="554.16144"
         style="font-style:normal;font-variant:normal;font-weight:normal;font-stretch:normal;font-size:32px;line-height:1.25;font-family:Quattrocento;-inkscape-font-specification:'Quattrocento, Normal';font-variant-ligatures:normal;font-variant-caps:normal;font-variant-numeric:normal;font-feature-settings:normal;text-align:start;letter-spacing:0px;word-spacing:0px;writing-mode:lr-tb;text-anchor:start;fill:#000000;fill-opacity:1;stroke:none"
         xml:space="preserve"><tspan
           style="font-style:normal;font-variant:normal;font-weight:normal;font-stretch:normal;font-size:32px;font-family:Quattrocento;-inkscape-font-specification:'Quattrocento, Normal';font-variant-ligatures:normal;font-variant-caps:normal;font-variant-numeric:normal;font-feature-settings:normal;text-align:center;writing-mode:lr-tb;text-anchor:middle"
           id="tspan4150"
           y="154.00365"
           x="554.16144"
           sodipodi:role="line">Crime</tspan></text>
    </g>
    <g
       id="g20902"
       transform="translate(28.878049,-28.924931)">
      <path
         sodipodi:nodetypes="ccccc"
         style="fill:#ffffff;stroke:#000000;stroke-width:2"
         inkscape:connector-curvature="0"
         id="path244"
         d="m 400.33134,296.50174 h 160 v 89.57491 h -160 z" />
      <text
         id="text4126-2-1"
         y="333.0332"
         x="480.01984"
         style="font-style:normal;font-variant:normal;font-weight:normal;font-stretch:normal;font-size:32px;line-height:1.25;font-family:Quattrocento;-inkscape-font-specification:'Quattrocento, Normal';font-variant-ligatures:normal;font-variant-caps:normal;font-variant-numeric:normal;font-feature-settings:normal;text-align:start;letter-spacing:0px;word-spacing:0px;writing-mode:lr-tb;text-anchor:start;fill:#000000;fill-opacity:1;stroke:none"
         xml:space="preserve"><tspan
           id="tspan4175"
           style="font-style:normal;font-variant:normal;font-weight:normal;font-stretch:normal;font-size:32px;font-family:Quattrocento;-inkscape-font-specification:'Quattrocento, Normal';font-variant-ligatures:normal;font-variant-caps:normal;font-variant-numeric:normal;font-feature-settings:normal;text-align:center;writing-mode:lr-tb;text-anchor:middle"
           y="333.0332"
           x="480.01984"
           sodipodi:role="line">Informal</tspan><tspan
           id="tspan20835"
           style="font-style:normal;font-variant:normal;font-weight:normal;font-stretch:normal;font-size:32px;font-family:Quattrocento;-inkscape-font-specification:'Quattrocento, Normal';font-variant-ligatures:normal;font-variant-caps:normal;font-variant-numeric:normal;font-feature-settings:normal;text-align:center;writing-mode:lr-tb;text-anchor:middle"
           y="373.0332"
           x="480.01984"
           sodipodi:role="line">Control</tspan></text>
    </g>
    <g
       id="g20896"
       transform="translate(-43.317074,-28.956291)">
      <path
         sodipodi:nodetypes="ccccc"
         style="fill:#ffffff;stroke:#000000;stroke-width:2"
         inkscape:connector-curvature="0"
         id="path244-0"
         d="m 168.61325,296.5331 h 160 v 89.57491 h -160 z" />
      <text
         id="text4126-2-1-0"
         y="333.06454"
         x="247.189"
         style="font-style:normal;font-variant:normal;font-weight:normal;font-stretch:normal;font-size:32px;line-height:1.25;font-family:Quattrocento;-inkscape-font-specification:'Quattrocento, Normal';font-variant-ligatures:normal;font-variant-caps:normal;font-variant-numeric:normal;font-feature-settings:normal;text-align:start;letter-spacing:0px;word-spacing:0px;writing-mode:lr-tb;text-anchor:start;fill:#000000;fill-opacity:1;stroke:none"
         xml:space="preserve"><tspan
           id="tspan20835-7"
           style="font-style:normal;font-variant:normal;font-weight:normal;font-stretch:normal;font-size:32px;font-family:Quattrocento;-inkscape-font-specification:'Quattrocento, Normal';font-variant-ligatures:normal;font-variant-caps:normal;font-variant-numeric:normal;font-feature-settings:normal;text-align:center;writing-mode:lr-tb;text-anchor:middle"
           y="333.06454"
           x="247.189"
           sodipodi:role="line">Fear of</tspan><tspan
           id="tspan20863"
           style="font-style:normal;font-variant:normal;font-weight:normal;font-stretch:normal;font-size:32px;font-family:Quattrocento;-inkscape-font-specification:'Quattrocento, Normal';font-variant-ligatures:normal;font-variant-caps:normal;font-variant-numeric:normal;font-feature-settings:normal;text-align:center;writing-mode:lr-tb;text-anchor:middle"
           y="373.06454"
           x="247.189"
           sodipodi:role="line">Crime</tspan></text>
    </g>
    <path
       d="M 284.8037,309.83678 H 424.0559"
       id="path250-5"
       style="fill:none;stroke:#000000;stroke-width:2;marker-end:url(#Arrow2Lend-4)"
       inkscape:connector-curvature="0"
       sodipodi:nodetypes="cc" />
    <path
       d="m 511.2209,266.81442 47.72745,-75.48057"
       id="path250-5-8"
       style="fill:none;stroke:#000000;stroke-width:2;marker-end:url(#Arrow2Lend-4-2)"
       inkscape:connector-curvature="0"
       sodipodi:nodetypes="cc" />
    <path
       d="m 151.88911,187.75776 47.72745,75.48057"
       id="path250-5-8-9"
       style="fill:none;stroke:#000000;stroke-width:2;marker-end:url(#Arrow2Lend-4-2-2)"
       inkscape:connector-curvature="0"
       sodipodi:nodetypes="cc" />
    <path
       d="M 429.20939,267.57681 244.04313,190.1368"
       id="path250-5-8-2"
       style="fill:none;stroke:#000000;stroke-width:2;marker-end:url(#Arrow2Lend-4-2-7)"
       inkscape:connector-curvature="0"
       sodipodi:nodetypes="cc" />
    <path
       d="M 474.41116,187.31358 289.24491,264.7536"
       id="path250-5-8-2-2"
       style="fill:none;stroke:#000000;stroke-width:2;marker-end:url(#Arrow2Lend-4-2-7-8)"
       inkscape:connector-curvature="0"
       sodipodi:nodetypes="cc" />
  </g>
</svg>
