<?xml version="1.0" encoding="UTF-8" standalone="no"?>
<svg
   xmlns:lucid="lucid"
   xmlns:dc="http://purl.org/dc/elements/1.1/"
   xmlns:cc="http://creativecommons.org/ns#"
   xmlns:rdf="http://www.w3.org/1999/02/22-rdf-syntax-ns#"
   xmlns:svg="http://www.w3.org/2000/svg"
   xmlns="http://www.w3.org/2000/svg"
   xmlns:xlink="http://www.w3.org/1999/xlink"
   xmlns:sodipodi="http://sodipodi.sourceforge.net/DTD/sodipodi-0.dtd"
   xmlns:inkscape="http://www.inkscape.org/namespaces/inkscape"
   width="680.3714"
   height="456.79324"
   version="1.1"
   id="svg413"
   sodipodi:docname="experiments_pretty.svg"
   inkscape:version="0.92.3 (2405546, 2018-03-11)">
  <metadata
     id="metadata419">
    <rdf:RDF>
      <cc:Work
         rdf:about="">
        <dc:format>image/svg+xml</dc:format>
        <dc:type
           rdf:resource="http://purl.org/dc/dcmitype/StillImage" />
        <dc:title></dc:title>
      </cc:Work>
    </rdf:RDF>
  </metadata>
  <defs
     id="defs417">
    <inkscape:path-effect
       effect="powerstroke"
       id="path-effect7962"
       is_visible="true"
       offset_points="1,0.5"
       sort_points="true"
       interpolator_type="CubicBezierJohan"
       interpolator_beta="0.2"
       start_linecap_type="zerowidth"
       linejoin_type="extrp_arc"
       miter_limit="4"
       end_linecap_type="zerowidth" />
  </defs>
  <sodipodi:namedview
     pagecolor="#ffffff"
     bordercolor="#666666"
     borderopacity="1"
     objecttolerance="10"
     gridtolerance="10"
     guidetolerance="10"
     inkscape:pageopacity="0"
     inkscape:pageshadow="2"
     inkscape:window-width="3840"
     inkscape:window-height="2004"
     id="namedview415"
     showgrid="false"
     inkscape:snap-text-baseline="false"
     inkscape:zoom="1.9391892"
     inkscape:cx="492.03627"
     inkscape:cy="233.87319"
     inkscape:window-x="-16"
     inkscape:window-y="-16"
     inkscape:window-maximized="1"
     inkscape:current-layer="g411"
     fit-margin-top="0"
     fit-margin-left="0"
     fit-margin-right="0"
     fit-margin-bottom="0" />
  <g
     transform="translate(39.371396,-16.292832)"
     lucid:page-tab-id="0_0"
     id="g411">
    <path
       d="M 80,80 H 240 V 200 H 80 Z"
       id="path230"
       inkscape:connector-curvature="0"
       style="fill:#ffffff;stroke:#000000;stroke-width:2" />
    <path
       d="M 480,80 H 640 V 200 H 480 Z"
       id="path234"
       inkscape:connector-curvature="0"
       style="fill:#ffffff;stroke:#000000;stroke-width:2" />
    <path
       d="M 280,280 H 440 V 400 H 280 Z"
       id="path244"
       inkscape:connector-curvature="0"
       style="fill:#ffffff;stroke:#000000;stroke-width:2" />
    <path
       d="M 241,140 H 460.76"
       id="path250"
       inkscape:connector-curvature="0"
       style="fill:none;stroke:#000000;stroke-width:2" />
    <path
       d="m 241,141 h -1 v -2 h 1 z m 234.76,-1 -14.26,4.64 v -9.28 z"
       id="path252"
       inkscape:connector-curvature="0" />
    <path
       d="m 479,140 -18.5,6 v -12 z m -16.5,3.26 10.03,-3.26 -10.03,-3.26 z"
       id="path254"
       inkscape:connector-curvature="0" />
    <path
       d="M 440,360 568,213.72"
       id="path256"
       inkscape:connector-curvature="0"
       style="fill:none;stroke:#000000;stroke-width:2" />
    <path
       d="m 577.87,202.44 -5.9,13.78 -6.98,-6.1 z"
       id="path258"
       inkscape:connector-curvature="0"
       style="stroke:#000000;stroke-width:2" />
    <path
       d="m 138.67,201 128.2,144.04"
       id="path260"
       inkscape:connector-curvature="0"
       style="fill:none;stroke:#000000;stroke-width:2" />
    <path
       d="m 139.4,200.34 -1.48,1.32 -1.48,-1.66 h 2.68 z m 137.45,155.91 -12.95,-7.57 6.93,-6.17 z"
       id="path262"
       inkscape:connector-curvature="0" />
    <path
       d="m 279,358.67 -16.8,-9.83 9,-8 z m -13.4,-10.16 9.1,5.33 -4.24,-9.66 z"
       id="path264"
       inkscape:connector-curvature="0" />
    <path
       d="M 279,320 191.66,215.02"
       id="path266"
       inkscape:connector-curvature="0"
       style="fill:none;stroke:#000000;stroke-width:2" />
    <path
       d="m 280,319.64 v 3.13 l -1.77,-2.13 1.54,-1.28 z m -85.24,-108.14 -7.13,5.92 -5.56,-13.93 z"
       id="path268"
       inkscape:connector-curvature="0" />
    <path
       d="m 196.45,211.38 -9.24,7.7 L 180,201 Z m -8.4,4.4 5,-4.18 -8.9,-5.62 z"
       id="path270"
       inkscape:connector-curvature="0" />
    <path
       d="m 240,80 h 240 v 60 H 240 Z"
       id="path272"
       inkscape:connector-curvature="0"
       style="fill:#ffffff;fill-opacity:0;stroke:#000000;stroke-width:2;stroke-opacity:0" />
    <path
       d="m 520,270 h 40 v 60 h -40 z"
       id="path276"
       inkscape:connector-curvature="0"
       style="fill:#ffffff;fill-opacity:0;stroke:#000000;stroke-width:2;stroke-opacity:0" />
    <path
       d="m 220,210 h 40 v 60 h -40 z"
       id="path280"
       inkscape:connector-curvature="0"
       style="fill:#ffffff;fill-opacity:0;stroke:#000000;stroke-width:2;stroke-opacity:0" />
    <path
       d="m 160,270 h 40 v 60 h -40 z"
       id="path284"
       inkscape:connector-curvature="0"
       style="fill:#ffffff;fill-opacity:0;stroke:#000000;stroke-width:2;stroke-opacity:0" />
    <path
       d="M 540,200 451.67,306"
       id="path288"
       inkscape:connector-curvature="0"
       style="fill:none;stroke:#000000;stroke-width:2" />
    <path
       d="m 442.07,317.5 5.57,-13.9 7.13,5.92 z"
       id="path290"
       inkscape:connector-curvature="0"
       style="stroke:#000000;stroke-width:2" />
    <path
       d="m 440,210 h 40 v 60 h -40 z"
       id="path292"
       inkscape:connector-curvature="0"
       style="fill:#ffffff;fill-opacity:0;stroke:#000000;stroke-width:2;stroke-opacity:0" />
    <g
       id="g296" />
    <defs
       id="defs409">
      <path
         d="m 30,-248 c 118,-7 216,8 213,122 C 240,-48 200,0 122,0 H 30 Z m 33,221 c 89,8 146,-16 146,-99 0,-83 -60,-101 -146,-95 v 194"
         id="m"
         inkscape:connector-curvature="0" />
      <path
         d="m 24,-231 v -30 h 32 v 30 z M 24,0 V -190 H 56 V 0 H 24"
         id="n"
         inkscape:connector-curvature="0" />
      <path
         d="m 135,-143 c -3,-34 -86,-38 -87,0 15,53 115,12 119,90 4,78 -150,74 -157,8 l 28,-5 c 4,36 97,45 98,0 -10,-56 -113,-15 -118,-90 -4,-57 82,-63 122,-42 12,7 21,19 24,35"
         id="o"
         inkscape:connector-curvature="0" />
      <path
         d="m 100,-194 c 62,-1 85,37 85,99 1,63 -27,99 -86,99 -59,0 -83,-39 -84,-99 0,-66 28,-99 85,-99 z m -1,174 c 44,1 53,-31 53,-75 0,-43 -8,-75 -51,-75 -43,0 -53,32 -53,75 0,43 10,74 51,75"
         id="p"
         inkscape:connector-curvature="0" />
      <path
         d="M 114,-163 C 36,-179 61,-72 57,0 H 25 l -1,-190 h 30 c 1,12 -1,29 2,39 6,-27 23,-49 58,-41 v 29"
         id="q"
         inkscape:connector-curvature="0" />
      <path
         d="m 85,-194 c 31,0 48,13 60,33 l -1,-100 h 32 l 1,261 h -30 c -2,-10 0,-23 -3,-31 C 134,-8 116,4 85,4 32,4 16,-35 15,-94 c 0,-66 23,-100 70,-100 z m 9,24 c -40,0 -46,34 -46,75 0,40 6,74 45,74 42,0 51,-32 51,-76 0,-42 -9,-74 -50,-73"
         id="r"
         inkscape:connector-curvature="0" />
      <path
         d="m 100,-194 c 63,0 86,42 84,106 H 49 c 0,40 14,67 53,68 26,1 43,-12 49,-29 l 28,8 C 168,-13 142,4 102,4 44,4 14,-33 15,-96 c 1,-61 26,-98 85,-98 z m 52,81 c 6,-60 -76,-77 -97,-28 -3,7 -6,17 -6,28 h 103"
         id="s"
         inkscape:connector-curvature="0" />
      <g
         id="a">
        <use
           transform="scale(0.05)"
           xlink:href="#m"
           id="use305"
           x="0"
           y="0"
           width="100%"
           height="100%" />
        <use
           transform="matrix(0.05,0,0,0.05,12.95,0)"
           xlink:href="#n"
           id="use307"
           x="0"
           y="0"
           width="100%"
           height="100%" />
        <use
           transform="matrix(0.05,0,0,0.05,16.9,0)"
           xlink:href="#o"
           id="use309"
           x="0"
           y="0"
           width="100%"
           height="100%" />
        <use
           transform="matrix(0.05,0,0,0.05,25.9,0)"
           xlink:href="#p"
           id="use311"
           x="0"
           y="0"
           width="100%"
           height="100%" />
        <use
           transform="matrix(0.05,0,0,0.05,35.9,0)"
           xlink:href="#q"
           id="use313"
           x="0"
           y="0"
           width="100%"
           height="100%" />
        <use
           transform="matrix(0.05,0,0,0.05,41.85,0)"
           xlink:href="#r"
           id="use315"
           x="0"
           y="0"
           width="100%"
           height="100%" />
        <use
           transform="matrix(0.05,0,0,0.05,51.85,0)"
           xlink:href="#s"
           id="use317"
           x="0"
           y="0"
           width="100%"
           height="100%" />
        <use
           transform="matrix(0.05,0,0,0.05,61.85,0)"
           xlink:href="#q"
           id="use319"
           x="0"
           y="0"
           width="100%"
           height="100%" />
      </g>
      <path
         d="m 212,-179 c -10,-28 -35,-45 -73,-45 -59,0 -87,40 -87,99 0,60 29,101 89,101 43,0 62,-24 78,-52 l 27,14 C 228,-24 195,4 139,4 59,4 22,-46 18,-125 c -6,-104 99,-153 187,-111 19,9 31,26 39,46"
         id="t"
         inkscape:connector-curvature="0" />
      <path
         d="m 210,-169 c -67,3 -38,105 -44,169 h -31 v -121 c 0,-29 -5,-50 -35,-48 C 34,-165 62,-65 56,0 H 25 l -1,-190 h 30 c 1,10 -1,24 2,32 10,-44 99,-50 107,0 11,-21 27,-35 58,-36 85,-2 47,119 55,194 h -31 v -121 c 0,-29 -5,-49 -35,-48"
         id="u"
         inkscape:connector-curvature="0" />
      <g
         id="b">
        <use
           transform="scale(0.05)"
           xlink:href="#t"
           id="use324"
           x="0"
           y="0"
           width="100%"
           height="100%" />
        <use
           transform="matrix(0.05,0,0,0.05,12.95,0)"
           xlink:href="#q"
           id="use326"
           x="0"
           y="0"
           width="100%"
           height="100%" />
        <use
           transform="matrix(0.05,0,0,0.05,18.9,0)"
           xlink:href="#n"
           id="use328"
           x="0"
           y="0"
           width="100%"
           height="100%" />
        <use
           transform="matrix(0.05,0,0,0.05,22.85,0)"
           xlink:href="#u"
           id="use330"
           x="0"
           y="0"
           width="100%"
           height="100%" />
        <use
           transform="matrix(0.05,0,0,0.05,37.8,0)"
           xlink:href="#s"
           id="use332"
           x="0"
           y="0"
           width="100%"
           height="100%" />
      </g>
      <path
         d="m 0,4 72,-265 h 28 L 28,4 H 0"
         id="v"
         inkscape:connector-curvature="0" />
      <use
         transform="scale(0.05)"
         xlink:href="#v"
         id="c"
         x="0"
         y="0"
         width="100%"
         height="100%" />
      <path
         d="M 190,0 58,-211 59,0 H 30 v -248 h 39 l 133,213 -2,-213 h 31 V 0 h -41"
         id="w"
         inkscape:connector-curvature="0" />
      <g
         id="d">
        <use
           transform="scale(0.05)"
           xlink:href="#w"
           id="use338"
           x="0"
           y="0"
           width="100%"
           height="100%" />
        <use
           transform="matrix(0.05,0,0,0.05,12.95,0)"
           xlink:href="#p"
           id="use340"
           x="0"
           y="0"
           width="100%"
           height="100%" />
        <use
           transform="matrix(0.05,0,0,0.05,22.95,0)"
           xlink:href="#q"
           id="use342"
           x="0"
           y="0"
           width="100%"
           height="100%" />
        <use
           transform="matrix(0.05,0,0,0.05,28.9,0)"
           xlink:href="#u"
           id="use344"
           x="0"
           y="0"
           width="100%"
           height="100%" />
      </g>
      <path
         d="M 137,0 H 103 L 2,-248 h 35 l 83,218 83,-218 h 36"
         id="x"
         inkscape:connector-curvature="0" />
      <path
         d="M 24,0 V -261 H 56 V 0 H 24"
         id="y"
         inkscape:connector-curvature="0" />
      <path
         d="M 141,-36 C 126,-15 110,5 73,4 37,3 15,-17 15,-53 c -1,-64 63,-63 125,-63 3,-35 -9,-54 -41,-54 -24,1 -41,7 -42,31 l -33,-3 c 5,-37 33,-52 76,-52 45,0 72,20 72,64 v 82 c -1,20 7,32 28,27 V -1 C 169,8 139,-3 141,-36 Z M 48,-53 c 0,20 12,33 32,33 41,-3 63,-29 60,-74 -43,2 -92,-5 -92,41"
         id="z"
         inkscape:connector-curvature="0" />
      <path
         d="m 59,-47 c -2,24 18,29 38,22 V -1 C 64,9 27,4 27,-40 V -167 H 5 v -23 h 24 l 9,-43 h 21 v 43 h 35 v 23 H 59 v 120"
         id="A"
         inkscape:connector-curvature="0" />
      <path
         d="m 117,-194 c 89,-4 53,116 60,194 h -32 v -121 c 0,-31 -8,-49 -39,-48 C 34,-167 62,-67 57,0 H 25 l -1,-190 h 30 c 1,10 -1,24 2,32 11,-22 29,-35 61,-36"
         id="B"
         inkscape:connector-curvature="0" />
      <g
         id="e">
        <use
           transform="scale(0.05)"
           xlink:href="#x"
           id="use352"
           x="0"
           y="0"
           width="100%"
           height="100%" />
        <use
           transform="matrix(0.05,0,0,0.05,11.65,0)"
           xlink:href="#n"
           id="use354"
           x="0"
           y="0"
           width="100%"
           height="100%" />
        <use
           transform="matrix(0.05,0,0,0.05,15.6,0)"
           xlink:href="#p"
           id="use356"
           x="0"
           y="0"
           width="100%"
           height="100%" />
        <use
           transform="matrix(0.05,0,0,0.05,25.6,0)"
           xlink:href="#y"
           id="use358"
           x="0"
           y="0"
           width="100%"
           height="100%" />
        <use
           transform="matrix(0.05,0,0,0.05,29.55,0)"
           xlink:href="#z"
           id="use360"
           x="0"
           y="0"
           width="100%"
           height="100%" />
        <use
           transform="matrix(0.05,0,0,0.05,39.55,0)"
           xlink:href="#A"
           id="use362"
           x="0"
           y="0"
           width="100%"
           height="100%" />
        <use
           transform="matrix(0.05,0,0,0.05,44.55,0)"
           xlink:href="#n"
           id="use364"
           x="0"
           y="0"
           width="100%"
           height="100%" />
        <use
           transform="matrix(0.05,0,0,0.05,48.5,0)"
           xlink:href="#p"
           id="use366"
           x="0"
           y="0"
           width="100%"
           height="100%" />
        <use
           transform="matrix(0.05,0,0,0.05,58.5,0)"
           xlink:href="#B"
           id="use368"
           x="0"
           y="0"
           width="100%"
           height="100%" />
      </g>
      <path
         d="m 185,-189 c -5,-48 -123,-54 -124,2 14,75 158,14 163,119 C 227,10 103,19 49,-13 32,-23 21,-39 16,-59 l 33,-7 c 5,56 141,63 141,-1 0,-78 -155,-14 -162,-118 -5,-82 145,-84 179,-34 5,7 8,16 11,25"
         id="C"
         inkscape:connector-curvature="0" />
      <path
         d="m 96,-169 c -40,0 -48,33 -48,73 0,40 9,75 48,75 24,0 41,-14 43,-38 l 32,2 C 165,-20 140,4 97,4 38,4 21,-37 15,-95 c -10,-93 101,-131 147,-64 4,7 5,14 7,22 l -32,3 c -4,-21 -16,-35 -41,-35"
         id="D"
         inkscape:connector-curvature="0" />
      <g
         id="f">
        <use
           transform="scale(0.05)"
           xlink:href="#C"
           id="use373"
           x="0"
           y="0"
           width="100%"
           height="100%" />
        <use
           transform="matrix(0.05,0,0,0.05,12,0)"
           xlink:href="#p"
           id="use375"
           x="0"
           y="0"
           width="100%"
           height="100%" />
        <use
           transform="matrix(0.05,0,0,0.05,22,0)"
           xlink:href="#D"
           id="use377"
           x="0"
           y="0"
           width="100%"
           height="100%" />
        <use
           transform="matrix(0.05,0,0,0.05,31,0)"
           xlink:href="#n"
           id="use379"
           x="0"
           y="0"
           width="100%"
           height="100%" />
        <use
           transform="matrix(0.05,0,0,0.05,34.95,0)"
           xlink:href="#z"
           id="use381"
           x="0"
           y="0"
           width="100%"
           height="100%" />
        <use
           transform="matrix(0.05,0,0,0.05,44.95,0)"
           xlink:href="#y"
           id="use383"
           x="0"
           y="0"
           width="100%"
           height="100%" />
      </g>
      <g
         id="g">
        <use
           transform="scale(0.05)"
           xlink:href="#t"
           id="use386"
           x="0"
           y="0"
           width="100%"
           height="100%" />
        <use
           transform="matrix(0.05,0,0,0.05,12.95,0)"
           xlink:href="#p"
           id="use388"
           x="0"
           y="0"
           width="100%"
           height="100%" />
        <use
           transform="matrix(0.05,0,0,0.05,22.95,0)"
           xlink:href="#B"
           id="use390"
           x="0"
           y="0"
           width="100%"
           height="100%" />
        <use
           transform="matrix(0.05,0,0,0.05,32.95,0)"
           xlink:href="#A"
           id="use392"
           x="0"
           y="0"
           width="100%"
           height="100%" />
        <use
           transform="matrix(0.05,0,0,0.05,37.95,0)"
           xlink:href="#q"
           id="use394"
           x="0"
           y="0"
           width="100%"
           height="100%" />
        <use
           transform="matrix(0.05,0,0,0.05,43.9,0)"
           xlink:href="#p"
           id="use396"
           x="0"
           y="0"
           width="100%"
           height="100%" />
        <use
           transform="matrix(0.05,0,0,0.05,53.9,0)"
           xlink:href="#y"
           id="use398"
           x="0"
           y="0"
           width="100%"
           height="100%" />
      </g>
      <path
         d="M 205,0 177,-72 H 64 L 36,0 H 1 l 101,-248 h 38 L 239,0 Z m -38,-99 -47,-123 c -12,45 -31,82 -46,123 h 93"
         id="E"
         inkscape:connector-curvature="0" />
      <use
         transform="scale(0.08641975)"
         xlink:href="#E"
         id="h"
         x="0"
         y="0"
         width="100%"
         height="100%" />
      <use
         transform="scale(0.08641975)"
         xlink:href="#m"
         id="i"
         x="0"
         y="0"
         width="100%"
         height="100%" />
      <path
         d="m 160,-131 c 35,5 61,23 61,61 0,87 -106,68 -191,70 v -248 c 76,3 177,-17 177,60 0,33 -19,50 -47,57 z m -97,-11 c 50,-1 110,9 110,-42 0,-47 -63,-36 -110,-37 z m 0,115 c 55,-2 124,14 124,-45 0,-56 -70,-42 -124,-44 v 89"
         id="F"
         inkscape:connector-curvature="0" />
      <use
         transform="scale(0.08641975)"
         xlink:href="#F"
         id="j"
         x="0"
         y="0"
         width="100%"
         height="100%" />
      <use
         transform="scale(0.08641975)"
         xlink:href="#t"
         id="k"
         x="0"
         y="0"
         width="100%"
         height="100%" />
      <path
         d="m 30,0 v -248 h 187 v 28 H 63 v 79 h 144 v 27 H 63 v 87 H 225 V 0 H 30"
         id="G"
         inkscape:connector-curvature="0" />
      <use
         transform="scale(0.08641975)"
         xlink:href="#G"
         id="l"
         x="0"
         y="0"
         width="100%"
         height="100%" />
    </defs>
    <text
       xml:space="preserve"
       style="font-style:normal;font-variant:normal;font-weight:normal;font-stretch:normal;font-size:32px;line-height:1.25;font-family:Quattrocento;-inkscape-font-specification:'Quattrocento, Normal';font-variant-ligatures:normal;font-variant-caps:normal;font-variant-numeric:normal;font-feature-settings:normal;text-align:start;letter-spacing:0px;word-spacing:0px;writing-mode:lr-tb;text-anchor:start;fill:#000000;fill-opacity:1;stroke:none"
       x="95.972122"
       y="151.29169"
       id="text4126"><tspan
         sodipodi:role="line"
         id="tspan4124"
         x="95.972122"
         y="151.29169">Disorder</tspan></text>
    <text
       xml:space="preserve"
       style="font-style:normal;font-variant:normal;font-weight:normal;font-stretch:normal;font-size:32px;line-height:1.25;font-family:Quattrocento;-inkscape-font-specification:'Quattrocento, Normal';font-variant-ligatures:normal;font-variant-caps:normal;font-variant-numeric:normal;font-feature-settings:normal;text-align:start;letter-spacing:0px;word-spacing:0px;writing-mode:lr-tb;text-anchor:start;fill:#000000;fill-opacity:1;stroke:none"
       x="560.64679"
       y="150.33168"
       id="text4126-2"><tspan
         sodipodi:role="line"
         x="560.64679"
         y="150.33168"
         id="tspan4150"
         style="font-style:normal;font-variant:normal;font-weight:normal;font-stretch:normal;font-size:32px;font-family:Quattrocento;-inkscape-font-specification:'Quattrocento, Normal';font-variant-ligatures:normal;font-variant-caps:normal;font-variant-numeric:normal;font-feature-settings:normal;text-align:center;writing-mode:lr-tb;text-anchor:middle">Crime</tspan></text>
    <text
       xml:space="preserve"
       style="font-style:normal;font-variant:normal;font-weight:normal;font-stretch:normal;font-size:32px;line-height:1.25;font-family:Quattrocento;-inkscape-font-specification:'Quattrocento, Normal';font-variant-ligatures:normal;font-variant-caps:normal;font-variant-numeric:normal;font-feature-settings:normal;text-align:start;letter-spacing:0px;word-spacing:0px;writing-mode:lr-tb;text-anchor:start;fill:#000000;fill-opacity:1;stroke:none"
       x="360.43799"
       y="330.1575"
       id="text4126-2-1"><tspan
         sodipodi:role="line"
         x="360.43799"
         y="330.1575"
         style="font-style:normal;font-variant:normal;font-weight:normal;font-stretch:normal;font-size:32px;font-family:Quattrocento;-inkscape-font-specification:'Quattrocento, Normal';font-variant-ligatures:normal;font-variant-caps:normal;font-variant-numeric:normal;font-feature-settings:normal;text-align:center;writing-mode:lr-tb;text-anchor:middle"
         id="tspan4175">Collective</tspan><tspan
         sodipodi:role="line"
         x="360.43799"
         y="370.1575"
         style="font-style:normal;font-variant:normal;font-weight:normal;font-stretch:normal;font-size:32px;font-family:Quattrocento;-inkscape-font-specification:'Quattrocento, Normal';font-variant-ligatures:normal;font-variant-caps:normal;font-variant-numeric:normal;font-feature-settings:normal;text-align:center;writing-mode:lr-tb;text-anchor:middle"
         id="tspan2766">Efficacy</tspan></text>
    <text
       xml:space="preserve"
       style="font-style:normal;font-weight:normal;font-size:40px;line-height:1.25;font-family:sans-serif;letter-spacing:0px;word-spacing:0px;fill:#000000;fill-opacity:1;stroke:none"
       x="342.92401"
       y="118.95952"
       id="text4179"><tspan
         sodipodi:role="line"
         id="tspan4177"
         x="342.92401"
         y="118.95952"
         style="font-style:normal;font-variant:normal;font-weight:normal;font-stretch:normal;font-size:37.33333206px;font-family:Quattrocento;-inkscape-font-specification:'Quattrocento, Normal';font-variant-ligatures:normal;font-variant-caps:normal;font-variant-numeric:normal;font-feature-settings:normal;text-align:start;writing-mode:lr-tb;text-anchor:start">A</tspan></text>
    <text
       xml:space="preserve"
       style="font-style:normal;font-weight:normal;font-size:40px;line-height:1.25;font-family:sans-serif;letter-spacing:0px;word-spacing:0px;fill:#000000;fill-opacity:1;stroke:none"
       x="174.7532"
       y="311.23901"
       id="text4179-1"><tspan
         sodipodi:role="line"
         id="tspan4177-1"
         x="174.7532"
         y="311.23901"
         style="font-style:normal;font-variant:normal;font-weight:normal;font-stretch:normal;font-size:37.33333206px;font-family:Quattrocento;-inkscape-font-specification:'Quattrocento, Normal';font-variant-ligatures:normal;font-variant-caps:normal;font-variant-numeric:normal;font-feature-settings:normal;text-align:start;writing-mode:lr-tb;text-anchor:start">B</tspan></text>
    <text
       xml:space="preserve"
       style="font-style:normal;font-weight:normal;font-size:40px;line-height:1.25;font-family:sans-serif;letter-spacing:0px;word-spacing:0px;fill:#000000;fill-opacity:1;stroke:none"
       x="243.77391"
       y="255.08755"
       id="text4179-5"><tspan
         sodipodi:role="line"
         id="tspan4177-4"
         x="243.77391"
         y="255.08755"
         style="font-style:normal;font-variant:normal;font-weight:normal;font-stretch:normal;font-size:37.33333206px;font-family:Quattrocento;-inkscape-font-specification:'Quattrocento, Normal';font-variant-ligatures:normal;font-variant-caps:normal;font-variant-numeric:normal;font-feature-settings:normal;text-align:start;writing-mode:lr-tb;text-anchor:start">D</tspan></text>
    <text
       xml:space="preserve"
       style="font-style:normal;font-weight:normal;font-size:40px;line-height:1.25;font-family:sans-serif;letter-spacing:0px;word-spacing:0px;fill:#000000;fill-opacity:1;stroke:none"
       x="457.01083"
       y="255.08755"
       id="text4179-2"><tspan
         sodipodi:role="line"
         id="tspan4177-3"
         x="457.01083"
         y="255.08755"
         style="font-style:normal;font-variant:normal;font-weight:normal;font-stretch:normal;font-size:37.33333206px;font-family:Quattrocento;-inkscape-font-specification:'Quattrocento, Normal';font-variant-ligatures:normal;font-variant-caps:normal;font-variant-numeric:normal;font-feature-settings:normal;text-align:start;writing-mode:lr-tb;text-anchor:start">E</tspan></text>
    <text
       xml:space="preserve"
       style="font-style:normal;font-weight:normal;font-size:40px;line-height:1.25;font-family:sans-serif;letter-spacing:0px;word-spacing:0px;fill:#000000;fill-opacity:1;stroke:none"
       x="522.53613"
       y="309.05118"
       id="text4179-4"><tspan
         sodipodi:role="line"
         id="tspan4177-5"
         x="522.53613"
         y="309.05118"
         style="font-style:normal;font-variant:normal;font-weight:normal;font-stretch:normal;font-size:37.33333206px;font-family:Quattrocento;-inkscape-font-specification:'Quattrocento, Normal';font-variant-ligatures:normal;font-variant-caps:normal;font-variant-numeric:normal;font-feature-settings:normal;text-align:start;writing-mode:lr-tb;text-anchor:start">C</tspan></text>
    <text
       xml:space="preserve"
       style="font-style:normal;font-variant:normal;font-weight:normal;font-stretch:normal;font-size:32px;line-height:1.25;font-family:Quattrocento;-inkscape-font-specification:'Quattrocento, Normal';font-variant-ligatures:normal;font-variant-caps:normal;font-variant-numeric:normal;font-feature-settings:normal;text-align:start;letter-spacing:0px;word-spacing:0px;writing-mode:lr-tb;text-anchor:start;fill:#458490;fill-opacity:1;stroke:none"
       x="296.07547"
       y="39.972832"
       id="text2750"><tspan
         sodipodi:role="line"
         id="tspan2748"
         x="296.07547"
         y="39.972832">Mailbox</tspan></text>
    <text
       xml:space="preserve"
       style="font-style:normal;font-variant:normal;font-weight:normal;font-stretch:normal;font-size:32px;line-height:30px;font-family:Quattrocento;-inkscape-font-specification:'Quattrocento, Normal';font-variant-ligatures:normal;font-variant-caps:normal;font-variant-numeric:normal;font-feature-settings:normal;text-align:center;letter-spacing:0px;word-spacing:0px;writing-mode:lr-tb;text-anchor:middle;fill:#905145;fill-opacity:1;stroke:none"
       x="120.51923"
       y="409.75909"
       id="text2754"><tspan
         sodipodi:role="line"
         x="120.51923"
         y="409.75909"
         id="tspan8004"
         style="font-style:normal;font-variant:normal;font-weight:normal;font-stretch:normal;font-size:32px;line-height:30px;font-family:Quattrocento;-inkscape-font-specification:'Quattrocento, Normal';font-variant-ligatures:normal;font-variant-caps:normal;font-variant-numeric:normal;font-feature-settings:normal;text-align:center;writing-mode:lr-tb;text-anchor:middle"
         dy="0">Litter</tspan><tspan
         sodipodi:role="line"
         x="120.51923"
         y="439.75909"
         style="font-style:normal;font-variant:normal;font-weight:normal;font-stretch:normal;font-size:32px;line-height:30px;font-family:Quattrocento;-inkscape-font-specification:'Quattrocento, Normal';font-variant-ligatures:normal;font-variant-caps:normal;font-variant-numeric:normal;font-feature-settings:normal;text-align:center;writing-mode:lr-tb;text-anchor:middle"
         id="tspan8008">Intervention</tspan></text>
    <text
       xml:space="preserve"
       style="font-style:normal;font-variant:normal;font-weight:normal;font-stretch:normal;font-size:32px;line-height:1.25;font-family:Quattrocento;-inkscape-font-specification:'Quattrocento, Normal';font-variant-ligatures:normal;font-variant-caps:normal;font-variant-numeric:normal;font-feature-settings:normal;text-align:start;letter-spacing:0px;word-spacing:0px;writing-mode:lr-tb;text-anchor:start;fill:#cbd3a3;fill-opacity:1;stroke:none"
       x="284.68024"
       y="472.73407"
       id="text2758"><tspan
         sodipodi:role="line"
         id="tspan2756"
         x="284.68024"
         y="472.73407">Lost Letter</tspan></text>
    <text
       xml:space="preserve"
       style="font-style:normal;font-variant:normal;font-weight:normal;font-stretch:normal;font-size:32px;line-height:30px;font-family:Quattrocento;-inkscape-font-specification:'Quattrocento, Normal';font-variant-ligatures:normal;font-variant-caps:normal;font-variant-numeric:normal;font-feature-settings:normal;text-align:start;letter-spacing:0px;word-spacing:0px;writing-mode:lr-tb;text-anchor:start;fill:#342c5c;fill-opacity:1;stroke:none"
       x="27.900604"
       y="280.49783"
       id="text2762"><tspan
         sodipodi:role="line"
         x="27.900604"
         y="280.49783"
         id="tspan8010"
         style="font-style:normal;font-variant:normal;font-weight:normal;font-stretch:normal;font-size:32px;line-height:30px;font-family:Quattrocento;-inkscape-font-specification:'Quattrocento, Normal';font-variant-ligatures:normal;font-variant-caps:normal;font-variant-numeric:normal;font-feature-settings:normal;text-align:center;writing-mode:lr-tb;text-anchor:middle"><tspan
           dy="0"
           id="tspan21026"
           style="font-style:normal;font-variant:normal;font-weight:normal;font-stretch:normal;font-size:32px;line-height:30px;font-family:Quattrocento;-inkscape-font-specification:'Quattrocento, Normal';font-variant-ligatures:normal;font-variant-caps:normal;font-variant-numeric:normal;font-feature-settings:normal;text-align:center;writing-mode:lr-tb;text-anchor:middle">Litter</tspan></tspan><tspan
         sodipodi:role="line"
         x="27.900604"
         y="310.49783"
         style="font-style:normal;font-variant:normal;font-weight:normal;font-stretch:normal;font-size:32px;line-height:30px;font-family:Quattrocento;-inkscape-font-specification:'Quattrocento, Normal';font-variant-ligatures:normal;font-variant-caps:normal;font-variant-numeric:normal;font-feature-settings:normal;text-align:center;writing-mode:lr-tb;text-anchor:middle"
         id="tspan21028">Clean-Up</tspan></text>
    <circle
       style="opacity:1;fill:none;fill-opacity:1;stroke:#342c5c;stroke-width:4;stroke-miterlimit:4;stroke-dasharray:none;stroke-opacity:1"
       id="path6473"
       cx="256.34784"
       cy="243.98917"
       r="24" />
    <circle
       style="opacity:1;fill:none;fill-opacity:1;stroke:#458490;stroke-width:4;stroke-miterlimit:4;stroke-dasharray:none;stroke-opacity:1"
       id="path6473-9"
       cx="355.71237"
       cy="109.25452"
       r="24" />
    <path
       inkscape:connector-curvature="0"
       style="fill:none;stroke:#cbd3a3;stroke-width:6;stroke-miterlimit:4;stroke-dasharray:none;stroke-opacity:1"
       d="M 283.68239,283.66627 H 436.12904 V 396.8422 H 283.68239 Z"
       id="path244-5" />
    <circle
       style="opacity:1;fill:none;fill-opacity:1;stroke:#905145;stroke-width:4;stroke-miterlimit:4;stroke-dasharray:none;stroke-opacity:1"
       id="path6473-3-1"
       cx="185.78993"
       cy="299.23218"
       r="24" />
    <path
       style="fill:none;stroke:#342c5c;stroke-width:4;stroke-linecap:butt;stroke-linejoin:miter;stroke-miterlimit:4;stroke-dasharray:none;stroke-opacity:1"
       d="M 232.82852,249.27644 90.505117,279.44868"
       id="path7994"
       inkscape:connector-curvature="0"
       sodipodi:nodetypes="cc" />
    <path
       style="fill:none;stroke:#cbd3a3;stroke-width:4;stroke-linecap:butt;stroke-linejoin:miter;stroke-miterlimit:4;stroke-dasharray:none;stroke-opacity:1"
       d="M 358.26483,396.22654 V 445.453"
       id="path7996"
       inkscape:connector-curvature="0"
       sodipodi:nodetypes="cc" />
    <path
       style="fill:#905145;fill-opacity:1;stroke:#458490;stroke-width:4;stroke-linecap:butt;stroke-linejoin:miter;stroke-miterlimit:4;stroke-dasharray:none;stroke-opacity:1"
       d="M 354.98307,84.458966 V 46.53636"
       id="path8000"
       inkscape:connector-curvature="0"
       sodipodi:nodetypes="cc" />
    <path
       style="fill:#905145;fill-opacity:1;stroke:#905145;stroke-width:4;stroke-linecap:butt;stroke-linejoin:miter;stroke-miterlimit:4;stroke-dasharray:none;stroke-opacity:1"
       d="m 174.67531,320.56987 -32.08836,63.0828"
       id="path21030"
       inkscape:connector-curvature="0"
       sodipodi:nodetypes="cc" />
  </g>
</svg>
