<?xml version="1.0" encoding="UTF-8" standalone="no"?>
<svg
   xmlns:lucid="lucid"
   xmlns:dc="http://purl.org/dc/elements/1.1/"
   xmlns:cc="http://creativecommons.org/ns#"
   xmlns:rdf="http://www.w3.org/1999/02/22-rdf-syntax-ns#"
   xmlns:svg="http://www.w3.org/2000/svg"
   xmlns="http://www.w3.org/2000/svg"
   xmlns:xlink="http://www.w3.org/1999/xlink"
   xmlns:sodipodi="http://sodipodi.sourceforge.net/DTD/sodipodi-0.dtd"
   xmlns:inkscape="http://www.inkscape.org/namespaces/inkscape"
   width="592"
   height="349"
   version="1.1"
   id="svg413"
   sodipodi:docname="keizer.svg"
   inkscape:version="0.92.3 (2405546, 2018-03-11)">
  <metadata
     id="metadata419">
    <rdf:RDF>
      <cc:Work
         rdf:about="">
        <dc:format>image/svg+xml</dc:format>
        <dc:type
           rdf:resource="http://purl.org/dc/dcmitype/StillImage" />
        <dc:title></dc:title>
      </cc:Work>
    </rdf:RDF>
  </metadata>
  <defs
     id="defs417" />
  <sodipodi:namedview
     pagecolor="#ffffff"
     bordercolor="#666666"
     borderopacity="1"
     objecttolerance="10"
     gridtolerance="10"
     guidetolerance="10"
     inkscape:pageopacity="0"
     inkscape:pageshadow="2"
     inkscape:window-width="4800"
     inkscape:window-height="2844"
     id="namedview415"
     showgrid="false"
     inkscape:snap-text-baseline="false"
     inkscape:zoom="2.7424276"
     inkscape:cx="387.21521"
     inkscape:cy="292.72769"
     inkscape:window-x="9584"
     inkscape:window-y="1112"
     inkscape:window-maximized="1"
     inkscape:current-layer="g411" />
  <g
     transform="translate(-64 -64)"
     lucid:page-tab-id="0_0"
     id="g411">
    <path
       d="M80 80h160v120H80z"
       id="path230"
       stroke-width="2"
       stroke="#000"
       fill="#fff" />
    <path
       d="M480 80h160v120H480z"
       id="path234"
       stroke-width="2"
       stroke="#000"
       fill="#fff" />
    <path
       d="M241 140h219.76"
       stroke="#000"
       stroke-width="2"
       fill="none"
       id="path250" />
    <path
       d="M241 141h-1v-2h1zM475.76 140l-14.26 4.64v-9.28z"
       id="path252" />
    <path
       d="M479 140l-18.5 6v-12zm-16.5 3.26l10.03-3.26-10.03-3.26z"
       id="path254" />
    <path
       d="M240 80h240v60H240z"
       stroke="#000"
       stroke-opacity="0"
       stroke-width="2"
       fill="#fff"
       fill-opacity="0"
       id="path272" />
    <g
       id="g296" />
    <defs
       id="defs409">
      <path
         d="M30-248c118-7 216 8 213 122C240-48 200 0 122 0H30v-248zM63-27c89 8 146-16 146-99s-60-101-146-95v194"
         id="m" />
      <path
         d="M24-231v-30h32v30H24zM24 0v-190h32V0H24"
         id="n" />
      <path
         d="M135-143c-3-34-86-38-87 0 15 53 115 12 119 90S17 21 10-45l28-5c4 36 97 45 98 0-10-56-113-15-118-90-4-57 82-63 122-42 12 7 21 19 24 35"
         id="o" />
      <path
         d="M100-194c62-1 85 37 85 99 1 63-27 99-86 99S16-35 15-95c0-66 28-99 85-99zM99-20c44 1 53-31 53-75 0-43-8-75-51-75s-53 32-53 75 10 74 51 75"
         id="p" />
      <path
         d="M114-163C36-179 61-72 57 0H25l-1-190h30c1 12-1 29 2 39 6-27 23-49 58-41v29"
         id="q" />
      <path
         d="M85-194c31 0 48 13 60 33l-1-100h32l1 261h-30c-2-10 0-23-3-31C134-8 116 4 85 4 32 4 16-35 15-94c0-66 23-100 70-100zm9 24c-40 0-46 34-46 75 0 40 6 74 45 74 42 0 51-32 51-76 0-42-9-74-50-73"
         id="r" />
      <path
         d="M100-194c63 0 86 42 84 106H49c0 40 14 67 53 68 26 1 43-12 49-29l28 8c-11 28-37 45-77 45C44 4 14-33 15-96c1-61 26-98 85-98zm52 81c6-60-76-77-97-28-3 7-6 17-6 28h103"
         id="s" />
      <g
         id="a">
        <use
           transform="matrix(0.05,0,0,0.05,0,0)"
           xlink:href="#m"
           id="use305" />
        <use
           transform="matrix(0.05,0,0,0.05,12.950000000000001,0)"
           xlink:href="#n"
           id="use307" />
        <use
           transform="matrix(0.05,0,0,0.05,16.900000000000002,0)"
           xlink:href="#o"
           id="use309" />
        <use
           transform="matrix(0.05,0,0,0.05,25.900000000000002,0)"
           xlink:href="#p"
           id="use311" />
        <use
           transform="matrix(0.05,0,0,0.05,35.900000000000006,0)"
           xlink:href="#q"
           id="use313" />
        <use
           transform="matrix(0.05,0,0,0.05,41.85000000000001,0)"
           xlink:href="#r"
           id="use315" />
        <use
           transform="matrix(0.05,0,0,0.05,51.85,0)"
           xlink:href="#s"
           id="use317" />
        <use
           transform="matrix(0.05,0,0,0.05,61.85,0)"
           xlink:href="#q"
           id="use319" />
      </g>
      <path
         d="M212-179c-10-28-35-45-73-45-59 0-87 40-87 99 0 60 29 101 89 101 43 0 62-24 78-52l27 14C228-24 195 4 139 4 59 4 22-46 18-125c-6-104 99-153 187-111 19 9 31 26 39 46"
         id="t" />
      <path
         d="M210-169c-67 3-38 105-44 169h-31v-121c0-29-5-50-35-48C34-165 62-65 56 0H25l-1-190h30c1 10-1 24 2 32 10-44 99-50 107 0 11-21 27-35 58-36 85-2 47 119 55 194h-31v-121c0-29-5-49-35-48"
         id="u" />
      <g
         id="b">
        <use
           transform="matrix(0.05,0,0,0.05,0,0)"
           xlink:href="#t"
           id="use324" />
        <use
           transform="matrix(0.05,0,0,0.05,12.950000000000001,0)"
           xlink:href="#q"
           id="use326" />
        <use
           transform="matrix(0.05,0,0,0.05,18.900000000000002,0)"
           xlink:href="#n"
           id="use328" />
        <use
           transform="matrix(0.05,0,0,0.05,22.85,0)"
           xlink:href="#u"
           id="use330" />
        <use
           transform="matrix(0.05,0,0,0.05,37.800000000000004,0)"
           xlink:href="#s"
           id="use332" />
      </g>
      <path
         d="M0 4l72-265h28L28 4H0"
         id="v" />
      <use
         transform="matrix(0.05,0,0,0.05,0,0)"
         xlink:href="#v"
         id="c" />
      <path
         d="M190 0L58-211 59 0H30v-248h39L202-35l-2-213h31V0h-41"
         id="w" />
      <g
         id="d">
        <use
           transform="matrix(0.05,0,0,0.05,0,0)"
           xlink:href="#w"
           id="use338" />
        <use
           transform="matrix(0.05,0,0,0.05,12.950000000000001,0)"
           xlink:href="#p"
           id="use340" />
        <use
           transform="matrix(0.05,0,0,0.05,22.950000000000003,0)"
           xlink:href="#q"
           id="use342" />
        <use
           transform="matrix(0.05,0,0,0.05,28.900000000000002,0)"
           xlink:href="#u"
           id="use344" />
      </g>
      <path
         d="M137 0h-34L2-248h35l83 218 83-218h36"
         id="x" />
      <path
         d="M24 0v-261h32V0H24"
         id="y" />
      <path
         d="M141-36C126-15 110 5 73 4 37 3 15-17 15-53c-1-64 63-63 125-63 3-35-9-54-41-54-24 1-41 7-42 31l-33-3c5-37 33-52 76-52 45 0 72 20 72 64v82c-1 20 7 32 28 27v20c-31 9-61-2-59-35zM48-53c0 20 12 33 32 33 41-3 63-29 60-74-43 2-92-5-92 41"
         id="z" />
      <path
         d="M59-47c-2 24 18 29 38 22v24C64 9 27 4 27-40v-127H5v-23h24l9-43h21v43h35v23H59v120"
         id="A" />
      <path
         d="M117-194c89-4 53 116 60 194h-32v-121c0-31-8-49-39-48C34-167 62-67 57 0H25l-1-190h30c1 10-1 24 2 32 11-22 29-35 61-36"
         id="B" />
      <g
         id="e">
        <use
           transform="matrix(0.05,0,0,0.05,0,0)"
           xlink:href="#x"
           id="use352" />
        <use
           transform="matrix(0.05,0,0,0.05,11.65,0)"
           xlink:href="#n"
           id="use354" />
        <use
           transform="matrix(0.05,0,0,0.05,15.600000000000001,0)"
           xlink:href="#p"
           id="use356" />
        <use
           transform="matrix(0.05,0,0,0.05,25.6,0)"
           xlink:href="#y"
           id="use358" />
        <use
           transform="matrix(0.05,0,0,0.05,29.55,0)"
           xlink:href="#z"
           id="use360" />
        <use
           transform="matrix(0.05,0,0,0.05,39.55,0)"
           xlink:href="#A"
           id="use362" />
        <use
           transform="matrix(0.05,0,0,0.05,44.55,0)"
           xlink:href="#n"
           id="use364" />
        <use
           transform="matrix(0.05,0,0,0.05,48.5,0)"
           xlink:href="#p"
           id="use366" />
        <use
           transform="matrix(0.05,0,0,0.05,58.5,0)"
           xlink:href="#B"
           id="use368" />
      </g>
      <path
         d="M185-189c-5-48-123-54-124 2 14 75 158 14 163 119 3 78-121 87-175 55-17-10-28-26-33-46l33-7c5 56 141 63 141-1 0-78-155-14-162-118-5-82 145-84 179-34 5 7 8 16 11 25"
         id="C" />
      <path
         d="M96-169c-40 0-48 33-48 73s9 75 48 75c24 0 41-14 43-38l32 2c-6 37-31 61-74 61-59 0-76-41-82-99-10-93 101-131 147-64 4 7 5 14 7 22l-32 3c-4-21-16-35-41-35"
         id="D" />
      <g
         id="f">
        <use
           transform="matrix(0.05,0,0,0.05,0,0)"
           xlink:href="#C"
           id="use373" />
        <use
           transform="matrix(0.05,0,0,0.05,12,0)"
           xlink:href="#p"
           id="use375" />
        <use
           transform="matrix(0.05,0,0,0.05,22,0)"
           xlink:href="#D"
           id="use377" />
        <use
           transform="matrix(0.05,0,0,0.05,31,0)"
           xlink:href="#n"
           id="use379" />
        <use
           transform="matrix(0.05,0,0,0.05,34.95,0)"
           xlink:href="#z"
           id="use381" />
        <use
           transform="matrix(0.05,0,0,0.05,44.95,0)"
           xlink:href="#y"
           id="use383" />
      </g>
      <g
         id="g">
        <use
           transform="matrix(0.05,0,0,0.05,0,0)"
           xlink:href="#t"
           id="use386" />
        <use
           transform="matrix(0.05,0,0,0.05,12.950000000000001,0)"
           xlink:href="#p"
           id="use388" />
        <use
           transform="matrix(0.05,0,0,0.05,22.950000000000003,0)"
           xlink:href="#B"
           id="use390" />
        <use
           transform="matrix(0.05,0,0,0.05,32.95,0)"
           xlink:href="#A"
           id="use392" />
        <use
           transform="matrix(0.05,0,0,0.05,37.95,0)"
           xlink:href="#q"
           id="use394" />
        <use
           transform="matrix(0.05,0,0,0.05,43.900000000000006,0)"
           xlink:href="#p"
           id="use396" />
        <use
           transform="matrix(0.05,0,0,0.05,53.900000000000006,0)"
           xlink:href="#y"
           id="use398" />
      </g>
      <path
         d="M205 0l-28-72H64L36 0H1l101-248h38L239 0h-34zm-38-99l-47-123c-12 45-31 82-46 123h93"
         id="E" />
      <use
         transform="matrix(0.08641975308641976,0,0,0.08641975308641976,0,0)"
         xlink:href="#E"
         id="h" />
      <use
         transform="matrix(0.08641975308641976,0,0,0.08641975308641976,0,0)"
         xlink:href="#m"
         id="i" />
      <path
         d="M160-131c35 5 61 23 61 61C221 17 115-2 30 0v-248c76 3 177-17 177 60 0 33-19 50-47 57zm-97-11c50-1 110 9 110-42 0-47-63-36-110-37v79zm0 115c55-2 124 14 124-45 0-56-70-42-124-44v89"
         id="F" />
      <use
         transform="matrix(0.08641975308641976,0,0,0.08641975308641976,0,0)"
         xlink:href="#F"
         id="j" />
      <use
         transform="matrix(0.08641975308641976,0,0,0.08641975308641976,0,0)"
         xlink:href="#t"
         id="k" />
      <path
         d="M30 0v-248h187v28H63v79h144v27H63v87h162V0H30"
         id="G" />
      <use
         transform="matrix(0.08641975308641976,0,0,0.08641975308641976,0,0)"
         xlink:href="#G"
         id="l" />
    </defs>
    <text
       xml:space="preserve"
       style="font-style:normal;font-variant:normal;font-weight:normal;font-stretch:normal;font-size:32px;line-height:1.25;font-family:Quattrocento;-inkscape-font-specification:'Quattrocento, Normal';font-variant-ligatures:normal;font-variant-caps:normal;font-variant-numeric:normal;font-feature-settings:normal;text-align:start;letter-spacing:0px;word-spacing:0px;writing-mode:lr-tb;text-anchor:start;fill:#000000;fill-opacity:1;stroke:none"
       x="95.972122"
       y="151.29169"
       id="text4126"><tspan
         sodipodi:role="line"
         id="tspan4124"
         x="95.972122"
         y="151.29169"
         style="font-weight:bold">Disorder</tspan></text>
    <text
       xml:space="preserve"
       style="font-style:normal;font-variant:normal;font-weight:normal;font-stretch:normal;font-size:32px;line-height:1.25;font-family:Quattrocento;-inkscape-font-specification:'Quattrocento, Normal';font-variant-ligatures:normal;font-variant-caps:normal;font-variant-numeric:normal;font-feature-settings:normal;text-align:start;letter-spacing:0px;word-spacing:0px;writing-mode:lr-tb;text-anchor:start;fill:#000000;fill-opacity:1;stroke:none"
       x="562.64679"
       y="130.33168"
       id="text4126-2"><tspan
         sodipodi:role="line"
         x="562.64679"
         y="130.33168"
         id="tspan4150"
         style="font-style:normal;font-variant:normal;font-weight:normal;font-stretch:normal;font-size:32px;font-family:Quattrocento;-inkscape-font-specification:'Quattrocento, Normal';font-variant-ligatures:normal;font-variant-caps:normal;font-variant-numeric:normal;font-feature-settings:normal;text-align:center;writing-mode:lr-tb;text-anchor:middle">Norm</tspan><tspan
         sodipodi:role="line"
         x="562.64679"
         y="170.33168"
         style="font-style:normal;font-variant:normal;font-weight:normal;font-stretch:normal;font-size:32px;font-family:Quattrocento;-inkscape-font-specification:'Quattrocento, Normal';font-variant-ligatures:normal;font-variant-caps:normal;font-variant-numeric:normal;font-feature-settings:normal;text-align:center;writing-mode:lr-tb;text-anchor:middle"
         id="tspan943">Violation</tspan></text>
    <text
       xml:space="preserve"
       style="font-style:normal;font-weight:normal;font-size:40px;line-height:1.25;font-family:sans-serif;letter-spacing:0px;word-spacing:0px;fill:#000000;fill-opacity:1;stroke:none"
       x="342.92401"
       y="124.06448"
       id="text4179"><tspan
         sodipodi:role="line"
         id="tspan4177"
         x="342.92401"
         y="124.06448"
         style="font-style:normal;font-variant:normal;font-weight:normal;font-stretch:normal;font-size:37.33333206px;font-family:Quattrocento;-inkscape-font-specification:'Quattrocento, Normal';font-variant-ligatures:normal;font-variant-caps:normal;font-variant-numeric:normal;font-feature-settings:normal;text-align:start;writing-mode:lr-tb;text-anchor:start">A</tspan></text>
    <rect
       id="rect4249"
       width="29.405384"
       height="24.795549"
       x="340.94849"
       y="127.61227"
       style="fill:#ffffff;fill-opacity:1;stroke:none;stroke-width:0;stroke-miterlimit:4;stroke-dasharray:none;stroke-opacity:1" />
    <g
       aria-label="+"
       style="font-style:normal;font-weight:normal;font-size:40px;line-height:1.25;font-family:sans-serif;letter-spacing:0px;word-spacing:0px;fill:#000000;fill-opacity:1;stroke:none"
       id="text4229">
      <path
         d="m 365.40903,141.10379 h -8.51563 v 8.51563 h -2.59375 v -8.51563 h -8.51562 v -2.5 h 8.51562 v -8.51562 h 2.59375 v 8.51562 h 8.51563 z"
         style="font-style:normal;font-variant:normal;font-weight:normal;font-stretch:normal;font-size:32px;font-family:sans-serif;-inkscape-font-specification:'sans-serif, Normal';font-variant-ligatures:normal;font-variant-caps:normal;font-variant-numeric:normal;font-feature-settings:normal;text-align:start;writing-mode:lr-tb;text-anchor:start"
         id="path2691" />
    </g>
  </g>
</svg>
