<?xml version="1.0" encoding="utf-8"?>
<!-- Generator: Adobe Illustrator 16.0.0, SVG Export Plug-In . SVG Version: 6.00 Build 0)  -->
<!DOCTYPE svg PUBLIC "-//W3C//DTD SVG 1.1//EN" "http://www.w3.org/Graphics/SVG/1.1/DTD/svg11.dtd">
<svg version="1.1" id="Layer_1" xmlns="http://www.w3.org/2000/svg" xmlns:xlink="http://www.w3.org/1999/xlink" x="0px" y="0px"
	 width="1000px" height="630px" viewBox="0 0 1000 630" enable-background="new 0 0 1000 630" xml:space="preserve">
<g id="hi">
	<title>Hawaii</title>
	<path id="HI" fill="#FFCC66" stroke="#000000" stroke-width="0.5" stroke-miterlimit="10" d="M237.507,554.681l1.977-3.625
		l2.306-0.329l0.33,0.825l-2.144,3.129H237.507L237.507,554.681z M247.886,550.892l6.261,2.636l2.142-0.328l1.646-3.955
		l-0.658-3.459l-4.283-0.494l-4.119,1.813L247.886,550.892z M279.185,561.104l3.788,5.601l2.471-0.328l1.153-0.494l1.483,1.318
		l3.789-0.166l0.988-1.479l-2.965-1.812l-1.977-3.791l-2.142-3.625l-5.931,2.966L279.185,561.104z M299.774,570.164l1.318-1.977
		l4.776,0.989l0.66-0.494l6.259,0.658l-0.33,1.317l-2.635,1.482l-4.448-0.33L299.774,570.164L299.774,570.164z M305.211,575.435
		l1.975,3.954l3.132-1.152l0.329-1.647l-1.648-2.141l-3.789-0.33v1.316H305.211z M312.293,574.281l2.308-2.964l4.776,2.471
		l4.448,1.153l4.448,2.802v1.975l-3.625,1.813l-4.941,0.986l-2.471-1.48L312.293,574.281z M329.261,590.096l1.648-1.316l3.458,1.645
		l7.743,3.626l3.458,2.143l1.647,2.471l1.979,4.448l4.119,2.636l-0.33,1.317l-3.954,3.295l-4.283,1.481l-1.482-0.658l-3.131,1.812
		l-2.471,3.293l-2.306,2.965l-1.813-0.165l-3.624-2.635l-0.33-4.61l0.658-2.473l-1.646-5.766l-2.144-1.811l-0.165-2.636l2.309-0.988
		l2.142-3.131l0.495-0.989l-1.648-1.811L329.261,590.096L329.261,590.096z"/>
</g>
<g id="ak">
	<title>Alaska</title>
	<path id="AK" fill="#330000" stroke="#000000" stroke-width="0.5" stroke-miterlimit="10" d="M161.075,487.8l-0.33,86.978
		l1.648,0.987l3.129,0.165l1.484-1.152h2.634l0.167,2.964l7.084,6.92l0.494,2.635l3.459-1.976l0.658-0.165l0.33-3.13l1.481-1.646
		l1.155-0.164l1.976-1.483l3.129,2.143l0.658,2.966l1.977,1.153l1.152,2.473l3.954,1.811l3.46,6.094l2.8,3.955l2.306,2.8
		l1.482,3.788l5.107,1.813l5.271,2.143l0.989,4.447l0.494,3.128l-0.988,3.461l-1.812,2.307l-1.648-0.824l-1.482-3.129l-2.8-1.482
		l-1.813-1.153l-0.824,0.826l1.483,2.799l0.165,3.791l-1.153,0.491l-1.976-1.976l-2.143-1.317l0.494,1.646l1.317,1.812l-0.825,0.826
		c0,0-0.824-0.33-1.317-0.991c-0.494-0.658-2.142-3.459-2.142-3.459l-0.988-2.31c0,0-0.33,1.319-0.989,0.991
		c-0.658-0.33-1.317-1.481-1.317-1.481l1.812-1.979l-1.482-1.482v-5.104h-0.823l-0.824,3.461l-1.153,0.492l-0.988-3.789
		l-0.658-3.789l-0.824-0.494l0.329,5.767v1.152l-1.482-1.317l-3.625-6.094l-2.142-0.494l-0.658-3.788l-1.647-2.966l-1.648-1.151
		v-2.31l2.142-1.317l-0.494-0.329l-2.636,0.659l-3.46-2.472l-2.636-2.966l-4.942-2.635l-4.119-2.636l1.317-3.296v-1.646
		l-1.812,1.646l-2.965,1.153l-3.788-1.153l-5.766-2.471h-5.601l-0.658,0.494l-6.589-3.956l-2.142-0.327l-2.8-5.93l-3.624,0.329
		l-3.625,1.481l0.493,4.61l1.153-2.964l0.989,0.329l-1.483,4.445l3.294-2.8l0.658,1.646l-3.954,4.447l-1.317-0.328l-0.494-1.979
		l-1.317-0.822l-1.317,1.152l-2.8-1.813l-3.13,2.144l-1.812,2.144l-3.459,2.144l-4.777-0.166l-0.494-2.142l3.788-0.658v-1.318
		l-2.306-0.658l0.988-2.471l2.306-3.954v-1.811l0.165-0.824l4.448-2.308l0.988,1.317h2.801l-1.317-2.635l-3.788-0.33l-5.106,2.801
		l-2.471,3.461l-1.812,2.636l-1.153,2.307l-4.282,1.481l-3.131,2.637l-0.329,1.646l2.306,0.989l0.824,2.142l-2.801,3.294
		l-6.588,4.283l-7.907,4.282l-2.143,1.152l-5.436,1.152l-5.436,2.309l1.812,1.317l-1.483,1.482l-0.495,1.154l-2.8-0.99l-3.293,0.164
		l-0.823,2.309h-0.989l0.331-2.474l-3.625,1.317l-2.965,0.99l-3.46-1.316l-2.965,1.974h-3.293l-2.143,1.319l-1.646,0.823
		l-2.142-0.329l-2.635-1.152l-2.306,0.658l-0.988,0.988l-1.648-1.154v-1.976l3.129-1.317l6.425,0.657l4.448-1.646l2.142-2.143
		l2.965-0.658l1.811-0.823l2.801,0.165l1.647,1.316l0.989-0.329l2.305-2.801l3.131-0.989l3.459-0.656l1.317-0.329l0.658,0.493h0.824
		l1.318-3.789l4.119-1.481l1.977-3.79l2.307-4.611l1.647-1.482l0.33-2.636l-1.647,1.317l-3.459,0.659l-0.658-2.471l-1.318-0.33
		l-0.988,0.988l-0.166,2.966l-1.481-0.166l-1.484-5.928l-1.317,1.317l-1.153-0.495l-0.329-1.976l-4.119,0.164l-2.142,1.152
		l-2.635-0.328l1.482-1.482l0.494-2.635l-0.658-1.978l1.482-0.987l1.317-0.165l-0.658-1.813v-4.458l-0.988-0.989l-0.823,1.482
		h-6.255l-1.484-1.317l-0.658-3.952l-2.142-3.627v-0.987l2.142-0.824l0.166-2.144l1.152-1.153l-0.823-0.492l-1.318,0.492l-1.152-2.8
		l0.989-5.106l4.612-3.294l2.634-1.646l1.977-3.789l2.8-1.318l2.636,1.153l0.33,2.473l2.471-0.329l3.294-2.471l1.647,0.657
		l0.988,0.659h1.647l2.306-1.318l0.823-4.446c0,0,0.331-2.966,0.989-3.461c0.658-0.491,0.99-0.988,0.99-0.988l-1.153-1.976
		l-2.637,0.824l-3.293,0.824l-1.977-0.492l-3.625-1.813l-5.106-0.164l-3.624-3.789l0.494-3.954l0.658-2.472l-2.142-1.811
		l-1.977-3.789l0.494-0.825l6.919-0.493h2.14l0.989,0.989h0.659l-0.165-1.647l3.954-0.658l2.635,0.328l1.483,1.152l-1.483,2.144
		l-0.494,1.483l2.8,1.646l5.107,1.811l1.812-0.988l-2.307-4.447l-0.989-3.292l0.989-0.825l-3.46-1.977l-0.494-1.152l0.494-1.647
		l-0.825-3.953l-2.965-4.776l-2.471-4.282l2.965-1.976h3.293l1.812,0.657l4.282-0.164l3.789-3.624l1.152-3.131l3.789-2.471
		l1.648,0.987l2.8-0.656l3.789-2.144l1.154-0.163l0.988,0.822l4.612-0.164l2.8-3.128h1.154l3.624,2.472l1.976,2.143l-0.493,1.15
		l0.658,1.154l1.648-1.646l3.953,0.326l0.33,3.791l1.977,1.482l7.247,0.657l6.426,4.283l1.483-0.988l5.27,2.636l2.143-0.658
		l1.976-0.823l4.943,1.977L161.075,487.8L161.075,487.8z M43.789,517.286l2.143,5.437l-0.165,0.988l-2.965-0.33l-1.812-4.117
		l-1.811-1.481h-2.472l-0.164-2.638l1.811-2.471l1.152,2.471l1.482,1.483L43.789,517.286z M41.153,551.385l3.789,0.824l3.789,0.99
		l0.823,0.987l-1.646,3.789l-3.129-0.165l-3.46-3.624L41.153,551.385z M20.068,537.054l1.153,2.638l1.153,1.646l-1.153,0.824
		l-2.143-3.129v-1.978L20.068,537.054L20.068,537.054z M6.067,611.511l3.459-2.307l3.459-0.989l2.636,0.328l0.494,1.646l1.977,0.494
		l1.977-1.977l-0.329-1.647l2.8-0.656l2.965,2.635l-1.153,1.811l-4.447,1.154l-2.801-0.493l-3.789-1.152l-4.448,1.481l-1.648,0.329
		L6.067,611.511L6.067,611.511z M55.979,606.898l1.647,1.977l2.143-1.648l-1.482-1.316L55.979,606.898z M58.944,610.028l1.153-2.308
		l2.142,0.329l-0.824,1.977L58.944,610.028L58.944,610.028z M82.994,608.051l1.482,1.813l0.989-1.153l-0.824-1.977L82.994,608.051z
		 M91.89,595.367l1.152,5.928l2.965,0.826l5.106-2.965l4.447-2.638l-1.647-2.471l0.494-2.471l-2.142,1.316l-2.965-0.824l1.647-1.152
		l1.976,0.824l3.954-1.812l0.494-1.481l-2.471-0.826l0.823-1.976l-2.8,1.976l-4.777,3.626l-4.942,2.964L91.89,595.367L91.89,595.367
		z M135.048,575.105l2.471-1.482l-0.988-1.813l-1.812,0.988L135.048,575.105z"/>
</g>
<g id="fl">
	<title>Florida</title>
	<path id="FL" fill="#FF6600" stroke="#000000" stroke-width="0.5" stroke-miterlimit="10" d="M774.227,472.992l2.31,7.457
		l3.801,9.928l5.437,9.554l3.789,6.426l4.94,5.601l4.118,3.789l1.646,2.964l-1.152,1.318l-0.825,1.317l2.965,7.579l2.966,2.966
		l2.637,5.437l3.622,5.928l4.612,8.401l1.318,7.742l0.493,12.19l0.657,1.812l-0.328,3.461l-2.474,1.317l0.33,1.975l-0.659,1.978
		l0.329,2.471l0.495,1.978l-2.801,3.293l-3.129,1.481l-3.953,0.164l-1.483,1.647l-2.471,0.988l-1.318-0.492l-1.151-0.99l-0.33-2.964
		l-0.824-3.46l-3.461-5.271l-3.623-2.308l-3.955-0.328l-0.824,1.318l-3.129-4.448l-0.658-3.624l-2.635-4.117l-1.813-1.153
		l-1.646,2.142l-1.812-0.328l-2.145-5.107l-2.965-3.953l-2.965-5.437l-2.636-3.13l-3.625-3.788l2.144-2.472l3.293-5.602
		l-0.165-1.646l-4.609-0.989l-1.647,0.657l0.329,0.659l2.637,0.987l-1.482,4.611l-0.825,0.493l-1.812-4.118l-1.316-4.942l-0.329-2.8
		l1.481-4.776v-9.719l-3.13-3.789l-1.317-3.129l-5.271-1.318l-1.977-0.658l-1.647-2.636l-3.459-1.646l-1.153-3.46l-2.801-0.99
		l-2.471-3.788l-4.282-1.482l-2.966-1.481h-2.636l-4.118,0.825l-0.165,1.975l0.825,0.989l-0.493,1.153l-3.13-0.164l-3.788,3.624
		l-3.626,1.977h-3.953l-3.293,1.318l-0.33-2.801l-1.646-1.977l-2.963-1.153l-1.647-1.482l-8.236-3.954l-7.744-1.812l-4.445,0.659
		l-6.095,0.492l-6.095,2.144l-3.544,0.625l-0.243-8.204l-2.636-1.977l-1.811-1.813l0.328-3.129l10.381-1.317l26.025-2.964
		l6.919-0.659l5.538,0.286l2.636,3.953l1.483,1.482l8.252,0.524l11.024-0.657l21.921-1.316l5.549-0.688l5.204,0.208l0.435,2.965
		l2.274,0.825l0.237-4.719l-1.556-4.252l1.334-1.466l5.66,0.463L774.227,472.992L774.227,472.992z M787.011,607.908l2.472-0.657
		l1.316-0.248l1.482-2.389l2.389-1.646l1.318,0.493l1.729,0.328l0.411,1.07l-3.543,1.236l-4.283,1.482l-2.389,1.236L787.011,607.908
		L787.011,607.908z M800.766,602.802l1.234,1.07l2.801-2.141l5.437-4.283l3.789-3.953l2.553-6.755l0.99-1.729l0.163-3.461
		l-0.741,0.493l-0.988,2.883l-1.481,4.693l-3.296,5.354l-4.446,4.281l-3.46,1.979L800.766,602.802L800.766,602.802z"/>
</g>
<g id="nh">
	<title>New Hampshire</title>
	<path id="NH" fill="#FF6600" stroke="#000000" stroke-width="0.5" stroke-miterlimit="10" d="M897.504,170.647l0.885-1.097
		l1.111-3.352l-2.592-0.932l-0.493-3.129l-3.953-1.154l-0.328-2.8l-7.413-23.885l-4.69-14.819l-0.912-0.005l-0.658,1.646
		l-0.659-0.494l-0.987-0.988l-1.482,1.976l-0.049,5.127l0.317,5.774l1.977,2.8v4.119l-3.79,5.159l-2.635,1.152v1.154l1.152,1.812
		v8.73l-0.825,9.39l-0.162,4.943l0.987,1.317l-0.165,4.612l-0.492,1.811l0.986,0.723l17.104-4.509l2.217-0.615l1.881-2.825
		L897.504,170.647L897.504,170.647z"/>
</g>
<g id="MI">
	<title>Michigan</title>
	<path id="MI-" fill="#330000" stroke="#000000" stroke-width="0.5" stroke-miterlimit="10" d="M711.095,206.119l-3.294-8.401
		l-2.307-9.225l-2.473-3.294l-2.635-1.813l-1.646,1.154l-3.953,1.812l-1.978,5.107l-2.8,3.788l-1.152,0.658l-1.482-0.658
		c0,0-2.637-1.482-2.471-2.143c0.163-0.658,0.492-5.106,0.492-5.106l3.461-1.318l0.822-3.459l0.659-2.635l2.471-1.648l-0.328-10.213
		l-1.646-2.306l-1.319-0.825l-0.822-2.142l0.822-0.823l1.647,0.329l0.165-1.647l-2.471-2.306l-1.318-2.635h-2.635l-4.612-1.483
		l-5.602-3.459h-2.801l-0.657,0.659l-0.989-0.493l-3.13-2.307l-2.964,1.812l-2.967,2.306l0.33,3.625l0.988,0.329l2.142,0.495
		l0.494,0.824l-2.636,0.824l-2.636,0.33l-1.482,1.812l-0.329,2.142l0.329,1.647l0.329,5.602l-3.624,2.143l-0.658-0.166v-4.283
		l1.317-2.471l0.658-2.471l-0.824-0.825l-1.976,0.825l-0.99,4.284l-2.8,1.152l-1.812,1.976l-0.165,0.989l0.658,0.825l-0.658,2.635
		l-2.307,0.494v1.154l0.824,2.471l-1.153,6.26l-1.646,4.119l0.657,4.777l0.493,1.152l-0.824,2.471l-0.328,0.825l-0.33,2.8
		l3.625,6.093l2.966,6.59l1.481,4.942l-0.824,4.777l-0.989,6.094l-2.472,5.271l-0.328,2.8l-3.321,3.144l4.492-0.166l21.823-2.307
		l7.417-1.006l0.1,1.699l6.982-1.236l10.493-1.532l3.927-0.47l0.142-0.598l0.165-1.483l2.143-3.789l2.038-1.771l-0.226-5.148
		l1.627-1.628l1.11-0.35l0.228-3.625l1.563-3.088l1.07,0.616l0.166,0.658l0.824,0.165l1.976-0.988L711.095,206.119L711.095,206.119z
		"/>
	<path id="SP-" fill="#330000" stroke="#000000" stroke-width="0.5" stroke-miterlimit="10" d="M592.649,109.138l1.863-2.098
		l2.213-0.815l5.476-3.961l2.33-0.582l0.466,0.466l-5.244,5.241l-3.376,1.98l-2.099,0.933L592.649,109.138L592.649,109.138z
		 M680.459,141.874l0.657,2.554l3.295,0.165l1.316-1.234c0,0-0.081-1.483-0.41-1.648c-0.328-0.165-1.646-1.894-1.646-1.894
		l-2.226,0.247l-1.647,0.166l-0.328,1.153L680.459,141.874L680.459,141.874z M578.255,138.843l0.729-0.592l2.801-0.824l3.624-2.306
		v-0.989l0.659-0.658l6.093-0.989l2.473-1.976l4.445-2.143l0.165-1.318l1.977-2.965l1.811-0.823l1.318-1.811l2.308-2.307
		l4.446-2.471l4.776-0.495l1.152,1.154l-0.329,0.989l-3.789,0.988l-1.482,3.129l-2.307,0.824l-0.492,2.471l-2.472,3.294
		l-0.328,2.636l0.823,0.494l0.988-1.153l3.623-2.965l1.319,1.317h2.307l3.294,0.989l1.482,1.153l1.481,3.129l2.801,2.801
		l3.953-0.165l1.481-0.989l1.647,1.317l1.646,0.493l1.317-0.823h1.153l1.646-0.989l4.118-3.625l3.459-1.152l6.756-0.329l4.61-1.976
		l2.636-1.317l1.482,0.165v5.765l0.493,0.329l2.964,0.825l1.978-0.494l6.26-1.648l1.154-1.152l1.481,0.494v7.082l3.294,3.13
		l1.317,0.658l1.317,0.989l-1.317,0.329l-0.824-0.329l-3.789-0.495l-2.143,0.66l-2.307-0.165l-3.295,1.483h-1.812l-5.93-1.318
		l-5.271,0.165l-1.977,2.635l-7.083,0.658l-2.472,0.825l-1.153,3.129l-1.317,1.152l-0.494-0.165l-1.482-1.647l-4.61,2.471h-0.658
		l-1.152-1.647l-0.824,0.165l-1.976,4.448l-0.988,4.119L624,167.621l-1.2-1.055l-1.396-1.049l-1.977-10.484l-3.61-1.396l-2.094-2.33
		l-12.349-2.794l-2.91-1.05l-8.385-2.214l-8.041-1.165L578.255,138.843L578.255,138.843z"/>
</g>
<g id="vt">
	<title>Vermont</title>
	<path id="VT" fill="#990000" stroke="#000000" stroke-width="0.5" stroke-miterlimit="10" d="M860.5,182.501l0.32-5.448
		l-2.945-10.988l-0.658-0.329l-2.964-1.317l0.824-2.964l-0.824-2.143l-2.751-4.728l0.988-3.954l-0.824-5.271l-2.471-6.587
		l-0.822-5.016l26.92-6.858l0.316,5.625l1.951,2.794v4.119l-3.776,5.155l-2.635,1.165l-0.014,1.143l1.336,1.549l-0.317,8.251
		l-0.618,9.435l-0.234,5.662l0.988,1.317l-0.163,4.657l-0.494,1.722l1.034,0.741l-7.578,1.535L860.5,182.501L860.5,182.501z"/>
</g>
<g id="me">
	<title>Maine</title>
	<path id="ME" fill="#990000" stroke="#000000" stroke-width="0.5" stroke-miterlimit="10" d="M940.342,105.847l1.978,2.143
		l2.307,3.787v1.977l-2.142,4.777l-1.978,0.658l-3.461,3.129l-4.94,5.602c0,0-0.658,0-1.317,0c-0.658,0-0.989-2.142-0.989-2.142
		l-1.813,0.165l-0.987,1.482l-2.471,1.482l-0.988,1.483l1.645,1.482l-0.491,0.658l-0.494,2.801l-1.977-0.165v-1.647l-0.329-1.317
		l-1.48,0.329l-1.813-3.294l-2.142,1.317l1.317,1.483l0.327,1.153l-0.824,1.317l0.33,3.13l0.164,1.647l-1.646,2.635l-2.965,0.493
		l-0.329,2.965l-5.438,3.129l-1.316,0.493l-1.646-1.482l-3.129,3.624l0.988,3.294l-1.483,1.318l-0.164,4.447l-1.146,6.378
		l-2.508-1.177l-0.495-3.13l-3.952-1.152l-0.329-2.801l-7.412-23.885l-4.787-14.918l1.447-0.12l1.544,0.418v-2.636l1.334-4.582
		l2.636-4.777l1.482-4.118l-1.977-2.472v-6.093l0.824-0.989l0.825-2.802l-0.165-1.482l-0.164-4.942l1.811-4.942l2.966-9.062
		l2.141-4.282h1.318l1.32,0.165v1.154l1.316,2.306l2.8,0.658l0.824-0.823v-0.988l4.117-2.965l1.813-1.812l1.482,0.165l6.093,2.471
		l1.979,0.989l9.225,30.474h6.094l0.825,1.979l0.164,4.941l2.965,2.306h0.824l0.164-0.494l-0.492-1.153L940.342,105.847
		L940.342,105.847z M919.013,136.566l1.564-1.564l1.401,1.071l0.573,2.471l-1.729,0.906L919.013,136.566z M925.85,130.554
		l1.812,1.893c0,0,1.316,0.083,1.316-0.246s0.246-2.06,0.246-2.06l0.908-0.823l-0.825-1.812l-2.06,0.743L925.85,130.554z"/>
</g>
<g id="ri">
	<title>Rhode Island</title>
	<path id="RI" fill="#FFCC66" stroke="#000000" stroke-width="0.5" stroke-miterlimit="10" d="M890.646,207.81l-3.767-15.24
		l6.39-1.88l2.231,1.964l3.369,4.402l2.739,4.486l-3.057,1.656l-1.318-0.165l-1.152,1.812l-2.473,1.976L890.646,207.81
		L890.646,207.81z"/>
</g>
<g id="ny">
	<title>New York</title>
	<path id="NY" fill="#990000" stroke="#000000" stroke-width="0.5" stroke-miterlimit="10" d="M846.128,217.847l-1.153-0.988
		l-2.636-0.165l-2.306-1.977l-1.662-6.245l-3.524,0.091l-2.488-2.759l-19.756,4.467l-43.814,8.895l-7.673,1.252l-0.752-6.592
		l1.455-1.146l1.317-1.153l0.989-1.647l1.811-1.152l1.979-1.812l0.492-1.648l2.143-2.8l1.153-0.988l-0.163-0.988l-1.319-3.13
		l-1.811-0.164l-1.978-6.26l2.967-1.812l4.445-1.481l4.119-1.318l3.292-0.493l6.426-0.165l1.977,1.317l1.646,0.165l2.144-1.317
		l2.635-1.153l5.273-0.494l2.142-1.812l1.813-3.293l1.646-1.978h2.143l1.976-1.152l0.164-2.307l-1.481-2.142l-0.328-1.482
		l1.153-2.142v-1.483h-1.813l-1.811-0.824l-0.826-1.152l-0.165-2.636l5.932-5.6l0.658-0.825l1.482-2.965l2.964-4.612l2.802-3.788
		l2.142-2.471l2.462-1.861l3.139-1.269l5.603-1.318l3.293,0.165l4.612-1.482l7.705-2.11l0.532,5.073l2.472,6.59l0.821,5.271
		l-0.986,3.954l2.636,4.612l0.823,2.143l-0.823,2.964l2.965,1.318l0.659,0.329l3.128,11.202l-0.546,5.156l-0.493,11.036l0.824,5.602
		l0.824,3.625l1.481,7.411v8.236l-1.153,2.307l1.874,2.03l0.813,1.711l-1.978,1.812l0.329,1.317l1.317-0.33l1.481-1.318l2.308-2.636
		l1.153-0.658l1.646,0.658l2.307,0.165l8.072-3.953l2.964-2.801l1.318-1.483l4.282,1.646l-3.46,3.625l-3.952,2.965l-7.248,5.435
		l-2.636,0.988l-5.932,1.977l-4.117,1.153l-1.196-0.543l-0.249-3.758l0.495-2.801l-0.166-2.142l-2.865-1.731l-4.612-0.989
		l-3.952-1.152L846.128,217.847L846.128,217.847z"/>
</g>
<g id="pa">
	<title>Pennsylvania</title>
	<path id="PA" fill="#CC3300" stroke="#000000" stroke-width="0.5" stroke-miterlimit="10" d="M840.771,254.475l1.334-0.276
		l2.373-1.277l1.235-2.529l1.646-2.307l3.295-3.128v-0.826l-2.472-1.647l-3.627-2.471l-0.986-2.635l-2.802-0.33l-0.165-1.153
		l-0.823-2.8l2.307-1.153l0.165-2.472l-1.318-1.317l0.165-1.646l1.976-3.13v-3.129l2.75-2.696l-0.938-0.688l-2.571-0.197
		l-2.339-1.977l-1.579-6.232l-3.57,0.103l-2.502-2.755l-18.435,4.278l-43.816,8.895l-9.063,1.483l-0.632-6.645l-5.462,5.164
		l-1.318,0.494l-4.281,3.067l2.967,19.501l2.525,9.913l3.641,19.627l3.331-0.65l12.171-1.53l38.646-7.811l15.159-2.875l8.457-1.655
		l0.274-0.241l2.142-1.648L840.771,254.475L840.771,254.475z"/>
</g>
<path id="NJ" fill="#FFCC66" stroke="#000000" stroke-width="0.5" stroke-miterlimit="10" d="M845.415,217.555l-2.366,2.786v3.131
	l-1.976,3.129l-0.165,1.648l1.317,1.317l-0.165,2.471l-2.306,1.154l0.825,2.8l0.163,1.154l2.8,0.329l0.989,2.635l3.625,2.471
	l2.471,1.647v0.824l-3.039,2.749l-1.646,2.306l-1.481,2.8l-2.307,1.318l-0.474,1.633l-0.246,1.235l-0.619,2.657l1.111,2.286
	l3.294,2.965l4.942,2.306l4.119,0.658l0.164,1.482l-0.823,0.989l0.327,2.8h0.825l2.142-2.471l0.825-4.942l2.8-4.119l3.13-6.59
	l1.153-5.6l-0.659-1.154l-0.164-9.554l-1.646-3.459l-1.153,0.824l-2.801,0.329l-0.493-0.493l1.154-0.989l2.142-1.976l0.064-1.116
	l-0.395-3.499l0.586-2.8l-0.121-2.006l-2.859-1.783l-5.188-1.198l-4.218-1.407L845.415,217.555L845.415,217.555z"/>
<path id="DE" fill="#FF6600" stroke="#000000" stroke-width="0.5" stroke-miterlimit="10" d="M841.284,258.129l0.375-2.188
	l0.382-1.723l-1.653,0.405l-1.646,0.479l-2.248,1.797l1.752,5.139l2.309,5.765l2.143,9.883l1.646,6.425l5.107-0.165l6.261-1.204
	l-2.308-7.528l-0.99,0.495l-3.624-2.471l-1.813-4.777L845,264.836l-3.206-2.924l-0.881-2.138L841.284,258.129L841.284,258.129z"/>
<path id="MD" fill="#FF6600" stroke="#000000" stroke-width="0.5" stroke-miterlimit="10" d="M855.719,282.723l-6.123,1.227
	l-5.239,0.119l-1.881-7.053l-1.962-9.343l-2.622-6.306l-1.313-4.48l-7.647,1.653l-15.157,2.876l-38.162,7.695l1.153,5.107
	l0.988,5.766l0.329-0.33l2.142-2.472l2.308-2.667l2.472-0.626l1.482-1.483l1.812-2.635l1.317,0.658l2.966-0.33l2.636-2.142
	l2.045-1.48l1.881-0.494l1.678,1.152l2.965,1.483l1.975,1.812l1.236,1.564l4.199,1.73v2.965l5.601,1.318l1.169,0.552l1.438-2.067
	l2.938,2.007l-1.303,2.529l-0.779,4.061l-1.812,2.636v2.142l0.658,1.812l5.159,1.38l4.394-0.063l3.129,0.988l2.144,0.329
	l0.989-2.142l-1.482-2.142v-1.811l-2.472-2.143l-2.144-5.601l1.318-5.435l-0.166-2.142l-1.316-1.317c0,0,1.482-1.647,1.482-2.306
	c0-0.658,0.493-2.142,0.493-2.142l1.976-1.317l1.977-1.648l0.494,0.988l-1.483,1.648l-1.316,3.789l0.33,1.152l1.81,0.329
	l0.494,5.601l-2.144,0.989l0.329,3.625l0.493-0.165l1.153-1.977l1.646,1.812l-1.646,1.317l-0.329,3.459l2.636,3.459l3.955,0.494
	l1.646-0.824l3.298,4.262l1.382,0.547l6.78-2.851l2.046-4.099L855.719,282.723L855.719,282.723z M839.446,291.922l1.152,2.554
	l0.164,1.812l1.153,1.894c0,0,0.906-0.906,0.906-1.235c0-0.33-0.741-3.13-0.741-3.13l-0.742-2.388L839.446,291.922L839.446,291.922z
	"/>
<path id="VA" fill="#CC3300" stroke="#000000" stroke-width="0.5" stroke-miterlimit="10" d="M847.411,296.636l-0.146-1.984
	l6.575-2.598l-0.786,3.279l-2.975,3.851l-0.427,4.673l0.471,3.455l-1.862,5.074l-2.205,1.952l-1.499-4.729l0.455-5.552l1.617-4.263
	L847.411,296.636L847.411,296.636z M850.814,325.475l-59.278,12.813l-38.137,5.379l-6.807-0.382l-2.634,1.962l-7.479,0.228
	l-8.541,0.996l-11.123,1.645l10.669-5.717l-0.015-2.112l1.549-2.188l10.755-11.719l4.021,4.563l3.854,0.982l2.592-1.162l2.279-1.338
	l2.585,1.369l3.986-1.455l1.911-4.645l2.653,0.552l2.907-2.171l1.834,0.501l2.88-3.745l0.356-2.123l-0.981-1.3l1.021-1.903
	l5.374-12.509l0.628-5.844l1.253-0.531l2.222,2.488l4.011-0.307l1.967-7.717l2.848-0.572l1.07-2.793l2.629-2.392l2.822-5.803
	l0.088-5.162l10.007,3.894c0.695,0.347,0.85-5.145,0.85-5.145l3.723,1.628l0.066,2.994l5.896,1.324l2.173,1.198l1.69,2.096
	l-0.666,3.717l-1.982,2.64l0.11,2.099l0.601,1.888l5.074,1.293l4.535,0.041l3.126,0.977l1.979,0.315l0.729,3.146l3.251,0.41
	l0.882,1.223l-0.446,4.778l1.401,1.125l-0.488,1.967l1.252,0.805l-0.227,1.412l-2.744-0.097l0.09,1.646l2.325,1.572l0.123,1.439
	l1.807,1.819l0.499,2.572l-2.602,1.408l1.603,1.521l5.91-1.717L850.814,325.475L850.814,325.475z"/>
<path id="WV" fill="#330000" stroke="#000000" stroke-width="0.5" stroke-miterlimit="10" d="M775.622,269.02l1.133,5.038
	l1.104,6.146l2.172-2.63l2.306-3.129l2.586-0.628l1.482-1.483l1.813-2.635l1.474,0.659l2.964-0.33l2.636-2.142l2.045-1.48
	l1.881-0.494l1.33,1.036l3.713,1.855l1.976,1.813l1.4,1.317l-0.776,5.66l-5.946-2.59l-4.325-1.653l-0.103,5.276l-2.801,5.643
	l-2.577,2.473l-1.215,2.802l-2.693,0.51l-0.915,3.67l-1.063,4.025l-4.043,0.346l-2.367-2.484l-1.091,0.569l-0.646,5.574
	l-1.375,3.602l-5.053,11.163l0.912,1.184l-0.209,1.943l-2.861,3.959l-1.845-0.555l-3.024,2.201l-2.592-0.583l-2.035,4.644
	c0,0-3.324,1.457-3.999,1.393c-0.163-0.016-2.518-1.271-2.518-1.271l-2.381,1.405l-2.456,1.065l-3.814-0.907l-1.143-1.19
	l-2.232-3.078l-3.204-2.025l-1.743-3.693l-4.363-3.535l-0.659-2.307l-2.637-1.482l-0.822-1.646l-0.248-5.355l2.225-0.083
	l1.978-0.824l0.164-2.8l1.646-1.482l0.165-5.107l0.989-3.953l1.316-0.659l1.318,1.154l0.493,1.812l1.812-0.988l0.493-1.648
	l-1.153-1.812v-2.471l0.989-1.317l2.306-3.459l1.319-1.483l2.144,0.493l2.306-1.647l3.13-3.459l2.307-3.953l0.329-5.766l0.493-5.107
	v-4.777l-1.153-3.129l0.987-1.483l1.309-1.317l3.559,20.202l4.719-0.764L775.622,269.02L775.622,269.02z"/>
<path id="OH" fill="#CC3300" stroke="#000000" stroke-width="0.5" stroke-miterlimit="10" d="M749.271,222.516l-6.211,4.131
	l-3.951,2.306l-3.461,3.79l-4.119,3.954l-3.294,0.823l-2.965,0.495l-5.601,2.636l-2.144,0.165l-3.459-3.13l-5.273,0.658
	l-2.635-1.482l-2.427-1.378l-4.985,0.717l-10.378,1.648l-11.42,2.228l1.316,14.906l1.813,14.002l2.636,23.884l0.576,4.924l4.2-0.131
	l2.471-0.825l3.428,1.532l2.108,4.447l5.237-0.017l1.929,2.159l1.796-0.066l2.584-1.366l2.555,0.378l5.522,0.491l1.761-2.174
	l2.393-1.317l2.108-0.693l0.658,2.801l1.811,0.988l3.543,2.388l2.226-0.082l1.357-0.5l0.188-2.815l1.614-1.482l0.104-4.883
	l1.041-4.186l1.326-0.614l1.345,1.169l0.548,1.729l1.753-1.058l0.446-1.487l-1.139-1.939l0.067-2.358l0.764-1.093l2.191-3.37
	l1.071-1.572l2.142,0.495l2.308-1.648l3.13-3.459l2.823-4.156l0.324-5.152l0.494-5.107l-0.181-5.408l-0.973-2.951l0.356-1.211
	l1.841-1.783l-2.332-9.219L749.271,222.516L749.271,222.516z"/>
<path id="IN" fill="#CC3300" stroke="#000000" stroke-width="0.5" stroke-miterlimit="10" d="M631.318,331.182l0.065-2.91
	l0.494-4.612l2.306-2.966l1.813-3.953l2.637-4.283l-0.495-5.929l-1.81-2.8l-0.33-3.294l0.824-5.601l-0.493-7.083l-1.317-16.308
	l-1.317-15.649l-0.989-11.942l3.129,0.907l1.482,0.988l1.152-0.33l2.143-1.977l2.883-1.647l5.189-0.165l22.401-2.306l5.683-0.543
	l1.531,16.259l4.331,37.541l0.61,5.88l-0.377,2.307l1.252,1.829l0.1,1.399l-2.568,1.63l-3.605,1.582l-3.263,0.56l-0.61,4.958
	l-4.662,3.376l-2.849,4.086l0.328,2.42l-0.591,1.564h-3.392l-1.615-1.648l-2.54,1.287l-2.734,1.531l0.164,3.112l-1.215,0.263
	l-0.479-1.037l-2.207-1.531l-3.313,1.365l-1.583,3.063l-1.466-0.825l-1.481-1.63l-4.55,0.494l-5.699,0.987L631.318,331.182
	L631.318,331.182z"/>
<path id="IL" fill="#FF6600" stroke="#000000" stroke-width="0.5" stroke-miterlimit="10" d="M631.291,331.559l0.031-3.289
	l0.576-4.733l2.379-2.972l1.899-4.151l2.275-4.072l-0.378-5.352l-2.044-3.609l-0.101-3.411l0.708-5.37l-0.841-7.315l-1.085-16.076
	l-1.318-15.302l-0.939-11.861l-0.276-0.938l-0.825-2.636l-1.317-3.789l-1.646-1.812l-1.481-2.635l-0.237-5.593l-46.666,2.648
	l0.233,2.417l2.328,0.699l0.934,1.166l0.465,1.863l3.962,3.495l0.699,2.331l-0.699,3.494l-1.862,3.728l-0.701,2.563l-2.33,1.864
	l-1.863,0.699l-5.356,1.398l-0.699,1.864l-0.7,2.097l0.7,1.398l1.864,1.631l-0.234,4.193l-1.861,1.631l-0.7,1.63v2.796l-1.863,0.466
	l-1.631,1.165l-0.233,1.398l0.233,2.097l-1.749,1.339l-1.047,2.854l0.467,3.728l2.329,7.454l7.453,7.687l5.591,3.728l-0.233,4.426
	l0.932,1.398l6.521,0.467l2.795,1.398l-0.7,3.728l-2.329,6.057l-0.698,3.26l2.329,3.961l6.521,5.359l4.659,0.699l2.097,5.125
	l2.099,3.262l-0.932,3.028l1.631,4.192l1.862,2.098l1.44-0.896l0.926-2.115l2.255-1.779l2.172-0.626l2.653,1.203l3.696,1.401
	l1.21-0.304l0.203-2.302l-1.312-2.457l0.312-2.423l1.873-1.374l3.078-0.825l1.285-0.468l-0.623-1.413l-0.807-2.399l1.46-0.998
	L631.291,331.559L631.291,331.559z"/>
<path id="CT" fill="#FF6600" stroke="#000000" stroke-width="0.5" stroke-miterlimit="10" d="M890.646,207.777l-3.75-15.162
	l-4.809,0.937l-21.632,4.833l1.02,3.287l1.482,7.413l0.181,9.138l-1.242,2.216l1.957,1.97l4.353-3.98l3.623-3.294l1.978-2.142
	l0.825,0.658l2.8-1.482l5.271-1.153L890.646,207.777L890.646,207.777z"/>
<path id="WI" fill="#990000" stroke="#000000" stroke-width="0.5" stroke-miterlimit="10" d="M626.731,226.633l-0.068-3.217
	l-1.201-4.612l-0.659-6.261l-1.152-2.471l0.987-3.13l0.825-2.965l1.481-2.635l-0.658-3.459l-0.657-3.625l0.493-1.811l1.977-2.472
	l0.164-2.8l-0.825-1.317l0.659-2.634l-0.461-4.251l2.8-5.765l2.966-6.919l0.165-2.306l-0.328-0.988l-0.826,0.494l-4.282,6.425
	l-2.799,4.119l-1.979,1.812l-0.823,2.306l-1.99,0.823l-1.155,1.977l-1.481-0.33l-0.165-1.811l1.319-2.472l2.142-4.776l1.813-1.648
	l1.008-2.402l-2.609-1.936l-2.013-10.564l-3.616-1.368l-1.98-2.353l-12.358-2.773l-2.932-1.032l-8.37-2.208l-8.066-1.181
	l-3.839-5.227l-0.765,0.564l-1.22-0.165l-0.658-1.152l-1.358,0.302l-1.153,0.165l-1.813,0.988l-0.987-0.658l0.656-1.978l1.978-3.129
	l1.153-1.153l-1.976-1.483l-2.143,0.825l-2.966,1.976l-7.577,3.294l-2.967,0.658l-2.964-0.494l-0.999-0.895l-2.155,2.889
	l-0.234,2.796v8.618l-1.165,1.631l-5.357,3.96l-2.329,6.057l0.466,0.233l2.563,2.098l0.7,3.262l-1.864,3.262v3.961l0.469,6.755
	l3.026,3.029h3.495l1.864,3.261l3.495,0.467l3.961,5.823l7.221,4.193l2.097,2.796l0.934,7.571l0.7,3.378l2.328,1.631l0.232,1.398
	l-2.097,3.494l0.232,3.261l2.563,3.961l2.563,1.166l3.028,0.467l1.369,1.406L626.731,226.633L626.731,226.633z"/>
<path id="NC" fill="#990000" stroke="#000000" stroke-width="0.5" stroke-miterlimit="10" d="M850.816,325.417l2.125,5.013
	l3.624,6.588l2.471,2.473l0.659,2.308l-2.472,0.163l0.824,0.658l-0.33,4.283l-2.636,1.316l-0.659,2.143l-1.317,2.966l-3.788,1.647
	l-2.472-0.33l-1.481-0.166l-1.647-1.316l0.33,1.316v0.99h1.977l0.823,1.317l-1.976,6.426h4.283l0.658,1.646l2.307-2.307l1.318-0.494
	l-1.977,3.627l-3.13,4.94h-1.317l-1.152-0.491l-2.801,0.657l-5.271,2.471l-6.588,5.438l-3.461,4.777l-1.978,6.588l-0.491,2.473
	l-4.777,0.494l-5.56,1.355l-10.135-8.357l-12.85-7.741l-2.965-0.825l-12.849,1.482l-4.356,0.764l-1.646-3.293l-3.026-2.156
	l-16.803,0.493l-7.412,0.824l-9.226,4.612l-6.259,2.635l-21.581,2.637l0.51-4.131l1.813-1.482l2.8-0.658l0.66-3.789l4.28-2.801
	l3.953-1.482l4.282-3.624l4.447-2.144l0.658-3.129l3.953-3.955l0.657-0.162c0,0,0,1.151,0.825,1.151
	c0.824,0,1.976,0.329,1.976,0.329l2.309-3.624l2.141-0.657l2.308,0.328l1.646-3.624l2.965-2.636l0.495-2.145l0.19-3.716l4.356-0.022
	l7.335-0.869l16.057-2.297l15.424-2.125l22.052-4.812l20.362-4.339l11.389-2.451L850.816,325.417L850.816,325.417z M855.169,359.254
	l2.636-2.553l3.212-2.639l1.563-0.656l0.165-2.061l-0.659-6.261l-1.482-2.39l-0.657-1.894l0.741-0.247l2.801,5.602l0.41,4.529
	l-0.163,3.459l-3.462,1.565l-2.882,2.472l-1.153,1.235L855.169,359.254L855.169,359.254z"/>
<g id="dc_1_">
	<title>Washington, D.C.</title>
	<path id="DC" fill="#FFCC66" stroke="#000000" stroke-width="0.5" stroke-miterlimit="10" d="M821.101,281.122l-1.893-1.858
		l-1.256-0.699l1.471-2.061l2.943,1.985L821.101,281.122L821.101,281.122z"/>
	<circle id="dc" fill="#FFCC66" stroke="#000000" stroke-width="0.5" stroke-miterlimit="10" cx="821.101" cy="281.122" r="6.114"/>
</g>
<path id="MA" fill="#FFCC66" stroke="#000000" stroke-width="0.5" stroke-miterlimit="10" d="M916.685,202.061l2.214-0.699
	l0.467-1.747l1.048,0.116l1.049,2.33l-1.283,0.465l-3.961,0.118L916.685,202.061L916.685,202.061z M907.134,202.876l2.329-2.679
	h1.631l1.864,1.514l-2.447,1.048l-2.213,1.048L907.134,202.876L907.134,202.876z M871.675,180.471l17.98-4.73l2.309-0.658
	l1.95-2.849l3.806-1.696l2.945,4.497l-2.473,5.271l-0.328,1.483l1.976,2.636l1.154-0.825h1.811l2.308,2.637l3.953,6.094l3.626,0.494
	l2.307-0.989l1.812-1.812l-0.823-2.8l-2.144-1.647l-1.481,0.824l-0.988-1.317l0.492-0.494l2.143-0.166l1.812,0.824l1.977,2.471
	l0.988,2.965l0.329,2.471l-4.282,1.482l-3.954,1.977l-3.953,4.611l-1.976,1.483v-0.989l2.471-1.483l0.493-1.812l-0.823-3.13
	l-2.965,1.482l-0.826,1.483l0.494,2.307l-2.104,1.019l-2.798-4.613l-3.461-4.448l-2.106-1.847l-6.657,1.912l-5.188,1.07
	l-21.069,4.68l-0.682-4.858l0.66-10.79l4.37-0.906L871.675,180.471L871.675,180.471z"/>
<path id="TN" fill="#990000" stroke="#000000" stroke-width="0.5" stroke-miterlimit="10" d="M709.891,349.811l-52.877,5.107
	l-16.059,1.813l-4.709,0.521l-3.942-0.025l-0.225,4.179l-8.343,0.27l-7.083,0.658l-8.244-0.126l-1.44,7.207l-1.729,5.583
	l-3.355,2.803l-1.375,4.464l-0.329,2.635l-4.118,2.31l1.483,3.624l-0.989,4.447l-0.985,0.805l110.208-10.604l0.409-4.029l1.846-1.52
	l2.888-0.764l0.688-3.787l4.177-2.757l4.124-1.522l4.161-3.637l4.521-2.063l0.53-3.125l4.142-4.061l0.563-0.115
	c0,0,0.032,1.154,0.854,1.154c0.825,0,1.979,0.36,1.979,0.36l2.306-3.656l2.109-0.658l2.315,0.302l1.631-3.6l3.013-2.693l0.43-1.977
	l0.314-3.781l-2.188-0.203l-2.65,2.064l-7.125,0.029l-18.707,2.433L709.891,349.811L709.891,349.811z"/>
<path id="AR" fill="#330000" stroke="#000000" stroke-width="0.5" stroke-miterlimit="10" d="M605.087,375.08l-4.056,0.73
	l-5.208-0.646l0.43-1.633l3.035-2.614l0.961-3.726l-1.862-3.028l-79.904,2.563l1.632,6.987v8.386l1.396,11.184l0.234,38.556
	l2.329,1.979l3.027-1.396l2.795,1.164l0.694,6.698l56.676-1.163l1.167-2.129l-0.291-3.619l-1.859-3.028l1.63-1.513l-1.63-2.561
	l0.696-2.558l1.396-5.712l2.567-2.102l-0.7-2.327l3.727-5.476l2.797-1.394l-0.114-1.521l-0.354-1.86l2.908-5.706l2.449-1.28
	l0.391-3.493l1.806-1.265l-3.205-0.493l-1.366-4.087l2.855-2.422l0.563-2.059l1.304-4.125L605.087,375.08L605.087,375.08z"/>
<path id="MO" fill="#990000" stroke="#000000" stroke-width="0.5" stroke-miterlimit="10" d="M569.03,278.34l-2.569-3.146
	l-1.165-2.329l-65.577,2.444l-2.33,0.116l1.282,2.563l-0.232,2.33l2.563,3.961l3.146,4.192l3.146,2.795l2.201,0.233l1.523,0.932
	v3.029l-1.862,1.632l-0.466,2.328l2.099,3.495l2.563,3.028l2.563,1.864l1.396,11.88l0.32,36.758l0.232,4.775l0.466,5.484
	l22.86-0.883l23.646-0.699l21.199-0.814l11.876-0.235l2.211,3.491l-0.7,3.371l-3.146,2.447l-0.583,1.872l5.481,0.466l3.968-0.699
	l1.751-5.598l0.663-5.967l2.14-2.604l2.646-1.516l0.052-3.107l1.035-1.975l-1.724-2.592l-1.356,1.003l-2.03-2.271l-1.311-4.851
	l0.819-2.567l-1.981-3.492l-1.866-4.662l-4.89-0.815l-7.102-5.704l-1.754-4.191l0.815-3.262l2.1-6.174l0.469-2.917l-1.986-1.052
	l-6.983-0.812l-1.048-1.744l-0.112-4.311l-5.592-3.496l-7.107-7.918l-2.33-7.455l-0.232-4.306L569.03,278.34L569.03,278.34z"/>
<path id="GA" fill="#990000" stroke="#000000" stroke-width="0.5" stroke-miterlimit="10" d="M685.042,387.816v2.226l0.165,2.142
	l0.658,3.461l3.461,8.072l2.472,10.046l1.481,6.262l1.647,4.941l1.482,7.084l2.142,6.424l2.635,3.461l0.494,3.459l1.978,0.826
	l0.163,2.143l-1.811,4.942l-0.494,3.293l-0.164,1.978l1.646,4.446l0.33,5.437l-0.825,2.472l0.659,0.823l1.481,0.825l0.207,3.28
	l2.274,3.412l2.294,2.203l8.071,0.164l11.023-0.659l21.92-1.316l5.551-0.688l4.663,0.029l0.164,2.964l2.638,0.824l0.328-4.448
	l-1.647-4.609l1.153-1.646l5.929,0.824l5.074,0.323l-0.79-6.419l2.308-10.213l1.482-4.283l-0.494-2.636l3.398-6.362l-0.521-1.377
	l-1.949,0.718l-2.637-1.317l-0.658-2.143l-1.316-3.625l-2.309-2.143l-2.636-0.658l-1.647-4.943l-2.979-6.454l-4.282-1.976
	l-2.143-1.977l-1.317-2.635l-2.143-1.979l-2.309-1.316l-2.306-2.966l-3.13-2.306l-4.612-1.813l-0.494-1.482l-2.47-2.965
	l-0.494-1.481l-3.459-5.066l-3.588,0.104l-3.827-2.399l-1.443-1.317l-0.329-1.812l0.887-1.978l2.271-1.13l-0.646-2.138
	L685.042,387.816L685.042,387.816z"/>
<path id="SC" fill="#990000" stroke="#000000" stroke-width="0.5" stroke-miterlimit="10" d="M779.451,441.427l-1.813,0.988
	l-2.635-1.318l-0.659-2.142l-1.316-3.626l-2.308-2.142l-2.636-0.658l-1.646-4.941l-2.803-6.094l-4.281-1.978l-2.143-1.976
	l-1.317-2.637l-2.144-1.976l-2.307-1.316l-2.307-2.965l-3.13-2.31l-4.613-1.811l-0.49-1.482l-2.472-2.965l-0.495-1.482l-3.46-5.271
	l-3.461,0.164l-4.117-2.472l-1.316-1.316l-0.33-1.813l0.825-1.978l2.307-0.987l-0.521-2.334l5.877-2.381l9.288-4.676l7.922-0.824
	l16.419-0.432l2.688,1.912l1.712,3.422l4.385-0.619l12.85-1.482l2.964,0.823l12.849,7.744l10.299,8.274l-5.524,5.563l-2.636,6.261
	l-0.493,6.424l-1.646,0.825l-1.152,2.8l-2.472,0.659l-2.145,3.624l-2.799,2.8l-2.307,3.461l-1.648,0.823l-3.624,3.461l-2.964,0.163
	l0.988,3.294l-5.107,5.601L779.451,441.427L779.451,441.427z"/>
<path id="KY" fill="#990000" stroke="#000000" stroke-width="0.5" stroke-miterlimit="10" d="M739.763,326.393l-2.336,2.446
	l-3.646,4.069l-5.02,5.568l-1.237,1.75l-0.064,2.142l-4.463,2.205l-5.766,3.46l-7.367,1.835l-52.853,4.989l-16.061,1.812
	l-4.708,0.522l-3.94-0.027l-0.23,4.301l-8.336,0.148l-7.083,0.658l-8.139-0.062l1.229-1.345l2.548-1.57l0.232-3.262l0.932-1.862
	l-1.637-2.587l0.817-1.943l2.307-1.811l2.144-0.659l2.799,1.317l3.626,1.318l1.152-0.33l0.166-2.307l-1.318-2.471l0.33-2.309
	l1.975-1.481l2.637-0.658l1.646-0.659l-0.825-1.811l-0.657-1.978l1.535-1.014c0.003-0.038,1.276-3.588,1.262-3.728l3.111-1.509
	l5.421-0.987l4.579-0.494l1.419,1.658l1.558,0.888l1.621-3.168l3.247-1.308l2.247,1.512l0.418,1.018l1.196-0.27l-0.165-3.008
	l3.191-1.783l2.187-1.094l1.559,1.691l3.38-0.044l0.602-1.603l-0.375-2.306l2.648-4.075l4.868-3.502l0.719-4.927l2.981-0.465
	l3.862-1.677l2.489-1.74l-0.202-1.595l-1.164-1.482l0.574-3.052l4.267-0.121l2.345-0.76l3.411,1.457l2.094,4.447l5.229,0.012
	l2.091,2.25l1.646-0.149l2.651-1.303l5.337,0.584l2.624,0.222l1.719-2.095l2.667-1.453l1.918-0.721l0.659,2.89l2.082,1.078
	l2.692,2.122l0.119,5.781l0.823,1.602l2.642,1.586l0.784,2.339l4.238,3.503l1.84,3.691L739.763,326.393L739.763,326.393z"/>
<path id="AL" fill="#330000" stroke="#000000" stroke-width="0.5" stroke-miterlimit="10" d="M643.279,494.669l-1.519-14.594
	l-2.8-19.107l0.164-14.329l0.824-31.628l-0.164-16.967l0.168-6.541l45.327-3.688l-0.149,2.226l0.164,2.144l0.659,3.459l3.459,8.07
	l2.472,10.048l1.482,6.263l1.646,4.941l1.483,7.083l2.141,6.425l2.638,3.461l0.492,3.459l1.978,0.825l0.163,2.144l-1.811,4.942
	l-0.494,3.292l-0.165,1.978l1.647,4.446l0.329,5.437l-0.825,2.473l0.658,0.823l1.481,0.825l0.336,2.944l-5.706-0.361l-6.919,0.66
	l-26.025,2.964l-10.608,1.434l-0.227,2.933l1.812,1.811l2.636,1.979l0.593,8.086l-5.647,2.621l-2.8-0.329l2.8-1.976v-0.991
	l-3.13-6.092l-2.306-0.66l-1.483,4.448l-1.316,2.801l-0.658-0.165h-2.801v-0.012h0.002V494.669z"/>
<path id="LA" fill="#990000" stroke="#000000" stroke-width="0.5" stroke-miterlimit="10" d="M619.497,493.391l-3.346-3.227
	l1.029-5.604l-0.674-0.91l-9.438,1.025l-25.501,0.468l-0.699-2.44l0.93-8.616l3.379-6.057l5.127-8.855l-0.586-2.444l1.281-0.692
	l0.468-1.989l-2.33-2.095l-0.112-1.979l-1.863-4.428l-0.15-6.459l-56.525,0.941l0.026,9.755l0.701,9.552l0.699,3.96l2.564,4.193
	l0.931,5.123l4.428,5.591l0.232,3.261l0.7,0.701l-0.7,8.619l-3.028,5.124l1.63,2.098l-0.698,2.563l-0.697,7.455l-1.399,3.26
	l0.126,3.686l4.775-1.55l12.343,0.211l10.543,3.626l6.589,1.153l3.79-1.483l3.293,1.154l3.294,0.989l0.824-2.145l-3.294-1.153
	l-2.636,0.495l-2.801-1.647c0,0,0.164-1.317,0.824-1.482c0.658-0.164,3.129-0.988,3.129-0.988l1.812,1.481l1.813-0.988l3.294,0.658
	l1.481,2.471l0.329,2.308l4.611,0.33l1.813,1.812L591,521.864l-1.318,0.825l1.647,1.646l8.563,3.624l3.625-1.318l0.988-2.471
	l2.636-0.659l1.813-1.479l1.317,0.989l0.823,2.964l-2.306,0.823l0.658,0.657l3.459-1.316l2.307-3.46l0.826-0.494l-2.145-0.328
	l0.825-1.646l-0.164-1.481l2.143-0.495l1.152-1.317l0.658,0.825c0,0-0.165,3.13,0.658,3.13s4.281,0.658,4.281,0.658l4.119,1.975
	l0.989,1.482h2.963l1.154,0.99l2.308-3.13v-1.482h-1.317l-3.461-2.8l-5.928-0.825l-3.295-2.307l1.152-2.8l2.309,0.328l0.164-0.658
	l-1.812-0.988v-0.492h3.294l1.812-3.131l-1.318-1.976l-0.329-2.801l-1.481,0.164l-1.976,2.143l-0.659,2.638l-3.128-0.659
	l-0.989-1.811l1.812-1.978l1.939-3.509l-1.082-2.458L619.497,493.391L619.497,493.391z"/>
<path id="MS" fill="#330000" stroke="#000000" stroke-width="0.5" stroke-miterlimit="10" d="M643.536,493.577l-0.259,1.281h-5.271
	l-1.482-0.825l-2.142-0.329l-6.919,1.977l-1.813-0.825l-2.637,4.282l-1.124,0.793l-1.144-2.535l-1.167-3.96l-3.495-3.262
	l1.165-5.648l-0.698-0.933l-1.863,0.233l-8.067,0.888l-25.013,0.383l-0.786-2.27l0.89-8.535l3.176-5.78l5.326-9.319l-0.452-2.479
	l1.262-0.669l0.443-1.956l-2.359-2.119l-0.116-2.182l-1.871-4.199l-0.11-6.076l1.354-2.526l-0.229-3.481l-1.804-3.139l1.554-1.51
	l-1.599-2.549l0.466-1.684l1.607-6.649l2.531-2.072l-0.654-2.412l3.728-5.403l2.886-1.381l-0.228-1.708l-0.292-1.714l2.93-5.672
	l2.393-1.254l0.153-0.912l38.053-3.953l0.188,6.399l0.164,16.968l-0.823,31.627l-0.165,14.331l2.801,19.107L643.536,493.577
	L643.536,493.577z"/>
<path id="IA" fill="#990000" stroke="#000000" stroke-width="0.5" stroke-miterlimit="10" d="M579.986,228.89l0.27,2.839
	l2.267,0.588l0.973,1.248l0.51,1.89l3.864,3.421l0.7,2.438l-0.689,3.489l-1.609,3.293l-0.815,2.794l-2.214,1.633l-1.748,0.583
	l-5.687,1.895l-1.418,3.923l0.742,1.397l1.877,1.716l-0.287,4.113l-1.799,1.567l-0.785,1.674l0.131,2.829l-1.923,0.467l-1.656,1.125
	l-0.283,1.379l0.283,2.154l-1.581,1.137l-2.519-3.192l-1.287-2.497l-66.981,2.563l-0.937,0.169l-2.091-4.602l-0.233-6.756
	l-1.632-4.193l-0.698-5.357l-2.331-3.728l-0.933-4.892l-2.794-7.688l-1.167-5.475l-1.397-2.213l-1.631-2.795l1.99-4.936l1.398-5.824
	l-2.796-2.097l-0.466-2.796l0.931-2.563h1.748l84.222-1.294l0.851,4.263l2.296,1.59l0.261,1.45l-2.067,3.454l0.193,3.267l2.563,3.87
	l2.575,1.319l3.139,0.512L579.986,228.89z"/>
<path id="MN" fill="#990000" stroke="#000000" stroke-width="0.5" stroke-miterlimit="10" d="M484.251,156.789l-0.467-8.62
	l-1.864-7.455l-1.863-13.745l-0.467-10.019l-1.864-3.494l-1.63-5.125V97.85l0.698-3.961l-1.854-5.555l30.705,0.035l0.327-8.401
	l0.659-0.166l2.307,0.494l1.978,0.826l0.823,5.601l1.482,6.26l1.646,1.648h4.94l0.33,1.482l6.425,0.329v2.142h4.943l0.327-1.317
	l1.155-1.153l2.306-0.659l1.317,0.989h2.966l3.953,2.636l5.437,2.471l2.471,0.494l0.494-0.989l1.483-0.494l0.491,2.965l2.637,1.318
	l0.494-0.493l1.317,0.165v2.142l2.635,0.989h3.131l1.646-0.825l3.293-3.294l2.637-0.493l0.825,1.811l0.492,1.317h0.989l0.988-0.823
	l9.06-0.33l1.813,3.13h0.659l0.728-1.105l4.522-0.378l-0.621,2.324l-4.016,1.872l-9.42,4.138l-4.864,2.045l-3.13,2.636l-2.471,3.625
	l-2.309,3.953l-1.812,0.824l-4.611,5.106l-1.316,0.165l-4.41,2.81l-2.51,3.266l-0.233,3.25l0.097,8.195l-1.4,1.721l-5.179,3.831
	l-2.271,6.095l2.925,2.275l0.695,3.288l-1.89,3.301l0.174,3.819l0.376,6.857l3.085,3.059h3.391l1.93,3.192l3.442,0.513l3.934,5.778
	l7.221,4.195l2.185,2.93l0.685,6.562l-82.752,1.167l-0.345-36.354l-0.466-3.029l-4.191-3.494l-1.165-1.864v-1.631l2.097-1.632
	l1.397-1.398L484.251,156.789L484.251,156.789z"/>
<path id="OK" fill="#990000" stroke="#000000" stroke-width="0.5" stroke-miterlimit="10" d="M387.556,352.427l-17-1.298
	l-0.896,11.161l20.853,1.179l32.664,1.328l-2.379,24.883l-0.466,18.169l0.234,1.633l4.426,3.728l2.097,1.166l0.701-0.234
	l0.699-2.097l1.397,1.864h2.1v-1.397l2.795,1.397l-0.466,3.96l4.19,0.233l2.564,1.166l4.19,0.698l2.564,1.865l2.33-2.098
	l3.495,0.697l2.563,3.497h0.931v2.328l2.33,0.7l2.331-2.33l1.863,0.702h2.563l0.932,2.562l6.421,2.119l1.396-0.7l1.864-4.191h1.167
	l1.165,2.096l4.193,0.702l3.728,1.396l3.028,0.935l1.864-0.935l0.7-2.563h4.426l2.097,0.932l2.796-2.097h1.164l0.701,1.63h4.191
	l1.632-2.096l1.863,0.466l2.098,2.563l3.262,1.863l3.261,0.933l1.979,1.14l-0.398-37.923l-1.396-11.185l-0.164-9.041l-1.465-6.66
	l-0.794-7.316l-0.067-3.886l-12.369,0.321l-47.288-0.465l-45.893-2.098L387.556,352.427L387.556,352.427z"/>
<path id="TX" fill="#CC3300" stroke="#000000" stroke-width="0.5" stroke-miterlimit="10" d="M368.319,362.364l23.122,1.106
	l31.683,1.164l-2.379,23.9l-0.303,18.498l0.067,2.121l4.429,3.892l2.021,1.473l1.209-0.57l0.38-1.854l1.163,1.84l2.151,0.044
	l-0.003-1.474l1.7,0.986l1.161,0.416l-0.364,4.043l4.167,0.096l2.98,1.22l4.03,0.534l2.426,2.12l2.165-2.116l3.796,0.625
	l2.264,3.288l1.097,0.326l-0.163,2.002l2.255,0.809l2.375-2.094l2.174,0.625l2.271,0.035l0.954,2.484l6.447,2.151l1.623-0.78
	l1.519-4.26h0.347l0.921,0.083l1.253,2.107l4.004,0.678l3.4,1.146l3.492,1.219l1.876-0.996l0.728-2.563l4.538,0.045l1.843,0.947
	l2.854-2.144l1.125,0.044l0.866,1.637h4.134l1.548-2.067l1.903,0.416l1.981,2.446l3.587,2.082l2.914,0.827l1.542,0.815l2.493,2.034
	l3.101-1.353l2.742,1.16l0.573,6.221l-0.041,9.888l0.7,9.714l0.717,3.673l2.725,4.504l0.914,5.044l4.297,5.644l0.199,3.205
	l0.762,0.802l-0.744,8.538l-2.927,5.102l1.562,2.194l-0.644,2.382l-0.682,7.545l-1.533,3.4l0.302,3.569l-5.772,1.615l-10.047,4.611
	l-0.99,1.975l-2.635,1.978l-2.143,1.482l-1.318,0.823l-5.766,5.436l-2.8,2.145l-5.437,3.293l-5.766,2.471l-6.424,3.461l-1.812,1.481
	l-5.931,3.624l-3.459,0.658l-3.954,5.603l-4.118,0.327l-0.989,1.976l2.307,1.977l-1.48,5.601l-1.318,4.612l-1.153,3.953
	l-0.824,4.611l0.824,2.473l1.813,7.083l0.989,6.259l1.81,2.802l-0.989,1.481l-3.13,1.978l-5.763-3.955l-5.602-1.153l-1.318,0.494
	l-3.293-0.657l-4.283-3.13l-5.272-1.151l-7.742-3.461l-2.144-3.954l-1.317-6.588l-3.292-1.979l-0.659-2.306l0.659-0.659l0.326-3.459
	l-1.317-0.659l-0.658-0.988l1.318-4.446l-1.648-2.308l-3.294-1.317l-3.459-4.446l-3.624-6.755l-4.283-2.635l0.165-1.977
	l-5.438-12.52l-0.824-4.282l-1.813-1.977l-0.166-1.481l-6.093-5.438l-2.635-3.127v-1.153l-2.635-2.144l-6.919-1.152l-7.578-0.659
	l-3.129-2.309l-4.612,1.813l-3.624,1.481l-2.307,3.294l-0.988,3.788l-4.448,6.262l-2.471,2.472l-2.635-0.988l-1.813-1.152
	l-1.976-0.659l-3.954-2.308v-0.657l-1.813-1.976l-5.271-2.144l-7.579-7.907l-2.309-4.77v-8.237l-3.294-6.591l-0.493-2.801
	l-1.648-0.987l-1.153-2.143l-5.105-2.144l-1.318-1.646l-7.247-8.071l-1.317-3.294l-4.778-2.308l-1.482-4.446l-2.635-2.966
	l-1.977-0.493l-0.662-4.767l8.154,0.698l29.586,2.795l29.585,1.633l2.275-19.831l3.959-56.608l1.631-19.104l1.398,0.028
	 M470.45,596.354l-0.576-7.247l-2.8-7.329l-0.575-7.165l1.563-8.4l3.376-7.002l3.542-5.518l3.212-3.624l0.657,0.247l-4.859,6.753
	l-4.447,6.673l-2.059,6.753l-0.33,5.27l0.907,6.262l2.635,7.328l0.495,5.271l0.165,1.48L470.45,596.354L470.45,596.354z"/>
<path id="NM" fill="#CC3300" stroke="#000000" stroke-width="0.5" stroke-miterlimit="10" d="M293.617,457.575l-0.79-4.837
	l8.809,0.534l30.745,3.002l27.785,1.72l2.257-19.063l3.931-56.936l1.771-19.758l1.601,0.132l0.842-11.375L264.59,340.157
	l-17.83,122.72l15.753,2.027l1.318-10.213L293.617,457.575L293.617,457.575z"/>
<path id="KS" fill="#990000" stroke="#000000" stroke-width="0.5" stroke-miterlimit="10" d="M517.513,356.053l-12.856,0.209
	l-46.964-0.466l-45.401-2.097l-25.097-1.281l3.967-65.822l22.502,0.688l41.053,0.857l45.143,1.006h5.193l2.227,2.203l2.058-0.021
	l1.671,1.032l-0.063,3.066l-1.863,1.759l-0.337,2.274l1.879,3.467l3.007,3.256l2.371,1.644l1.327,11.454L517.513,356.053
	L517.513,356.053z"/>
<path id="NE" fill="#CC3300" stroke="#000000" stroke-width="0.5" stroke-miterlimit="10" d="M495.316,270.787l3.292,7.153
	l-0.131,2.345l3.525,5.6l2.771,3.21h-5.145l-44.307-0.957l-41.561-0.907l-22.675-0.798l1.094-21.733l-32.929-2.974l4.426-44.845
	l15.84,1.049l20.501,1.165l18.171,1.166l24.227,1.165l10.95-0.466l2.099,2.33l4.893,3.029l1.163,0.932l4.429-1.398l3.96-0.467
	l2.796-0.233l1.863,1.398l4.134,1.631l3.028,1.631l0.466,1.631l0.932,2.097h1.864l0.813,0.046l0.914,4.771l2.976,8.628l0.583,3.829
	l2.569,3.846l0.58,5.211l1.636,4.321L495.316,270.787L495.316,270.787z"/>
<path id="SD" fill="#330000" stroke="#000000" stroke-width="0.5" stroke-miterlimit="10" d="M485.483,233.415l-0.051-0.592
	l-2.951-4.938l1.896-4.802l1.521-5.999l-2.833-2.12l-0.396-2.795l0.808-2.603l3.249,0.015l-0.125-5.101l-0.34-30.746l-0.629-3.84
	l-4.147-3.395l-1.001-1.709l-0.065-1.638l2.061-1.558l1.563-1.698l0.248-2.708l-59.361-1.63l-55.839-3.515l-5.426,64.899
	l14.867,0.921l20.329,1.229l18.08,0.945l24.228,1.329l12.209-0.434l2.004,2.289l5.292,3.315l0.78,0.737l4.627-1.481l6.664-0.626
	l1.708,1.361l4.285,1.626l3,1.667l0.404,1.512l1.061,2.284L485.483,233.415L485.483,233.415z"/>
<path id="ND" fill="#330000" stroke="#000000" stroke-width="0.5" stroke-miterlimit="10" d="M484.32,156.884l-0.625-8.594
	l-1.71-6.945l-1.928-13.271l-0.466-11.194l-1.772-3.136l-1.789-5.293l0.032-10.641l0.635-3.896l-1.869-5.572l-29.188-0.575
	l-18.942-0.658l-27.016-1.317L376.3,83.618l-7.127,68.452l55.978,3.408L484.32,156.884L484.32,156.884z"/>
<path id="WY" fill="#330000" stroke="#000000" stroke-width="0.5" stroke-miterlimit="10" d="M367.21,171.514l-108.767-13.712
	l-14.35,90.135l115.414,13.843L367.21,171.514z"/>
<path id="MT" fill="#330000" stroke="#000000" stroke-width="0.5" stroke-miterlimit="10" d="M376.211,83.57l-31.255-2.861
	l-29.816-3.624l-29.814-4.119L252.38,67.53l-18.779-3.459l-33.345-7.064l-4.564,21.753l3.496,7.688l-1.398,4.659l1.864,4.659
	l3.262,1.399l4.708,10.975l2.747,3.236l0.467,1.165l3.494,1.166l0.466,2.097l-7.222,17.938v2.563l2.563,3.262h0.934l4.892-3.028
	l0.699-1.166l1.631,0.7l-0.234,5.356l2.795,12.813l3.028,2.563l0.932,0.7l1.864,2.33l-0.467,3.492l0.699,3.495l1.165,0.932
	l2.329-2.33h2.795l3.262,1.631l2.564-0.932h4.193l3.728,1.63l2.795-0.466l0.466-3.028l3.03-0.7l1.398,1.398l0.466,3.262l1.453,0.85
	l1.923-11.245l108.771,13.684L376.211,83.57L376.211,83.57z"/>
<path id="CO" fill="#CC3300" stroke="#000000" stroke-width="0.5" stroke-miterlimit="10" d="M387.24,352.573l4.995-87.962
	l-115.54-12.884l-12.444,89.607L387.24,352.573z"/>
<path id="ID" fill="#330000" stroke="#000000" stroke-width="0.5" stroke-miterlimit="10" d="M151.295,205.352l8.938-35.89
	l1.398-4.309l2.563-6.057l-1.281-2.33l-2.563,0.117l-0.816-1.048L160,154.67l0.35-3.145l4.542-5.591l1.863-0.467l1.166-1.165
	l0.582-3.261l0.933-0.699l3.96-5.941l3.959-4.427l0.233-3.842l-3.495-2.679l-1.564-4.484l13.884-64.543L200.188,57l-4.492,21.79
	l3.629,7.625l-1.611,4.75l2.007,4.729l3.198,1.279l3.907,9.738l3.581,4.521l0.517,1.165l3.404,1.167l0.376,2.137l-7.104,17.706
	l-0.167,2.614l2.681,3.384l0.922-0.05l5.004-3.083l0.69-1.115l1.592,0.672l-0.283,5.455l2.791,12.821l3.992,3.24l1.713,2.207
	l-0.73,4.16l1.086,2.862l1.082,1.111l2.526-2.396l2.902,0.05l2.974,1.36l2.833-0.695l3.866-0.163l4.055,1.63l2.796-0.303
	l0.505-3.095l2.99-0.779l1.284,1.544l0.449,3.001l1.451,1.236l-8.545,54.625C248.055,223.901,158.421,206.885,151.295,205.352
	L151.295,205.352z"/>
<path id="UT" fill="#990000" stroke="#000000" stroke-width="0.5" stroke-miterlimit="10" d="M264.42,341.508l-85.337-12.099
	l20.978-114.676l47.667,8.911l-1.514,10.833l-2.356,13.423l7.957,0.945l16.718,1.839l8.367,0.872L264.42,341.508z"/>
<path id="AZ" fill="#CC3300" stroke="#000000" stroke-width="0.5" stroke-miterlimit="10" d="M147.659,415.406l-2.677,2.199
	l-0.329,1.482l0.494,0.987l19.273,10.873l12.355,7.742l14.991,8.729l17.131,10.213l12.519,2.472l25.424,2.757l17.583-121.389
	l-85.324-12.143l-3.151,16.725l-1.635,0.016l-1.747,2.679l-2.564-0.115l-1.281-2.796l-2.795-0.35l-0.933-1.165h-0.932l-0.932,0.583
	l-1.979,1.046l-0.116,7.106l-0.233,1.746l-0.583,12.813l-1.514,2.213l-0.583,3.377l2.796,5.009l1.281,5.94l0.815,1.048l1.048,0.581
	l-0.116,2.329l-1.631,1.398l-3.494,1.746l-1.98,1.979l-1.514,3.728l-0.583,5.009l-2.913,2.797l-2.097,0.697l0.138,0.847
	l-0.466,1.748l0.466,0.813l3.728,0.582l-0.583,2.796l-1.514,2.214L147.659,415.406L147.659,415.406z"/>
<path id="NV" fill="#CC3300" stroke="#000000" stroke-width="0.5" stroke-miterlimit="10" d="M200.118,214.617L176.03,345.882
	l-1.868,0.356l-1.603,2.451l-2.418,0.012l-1.5-2.795l-2.668-0.387l-0.785-1.129l-1.058-0.055l-2.831,1.678l-0.316,6.913
	l-0.369,5.886l-0.355,8.756l-1.474,2.129l-2.484-1.092L85.91,262.428l19.349-68.867L200.118,214.617L200.118,214.617z"/>
<path id="OR" fill="#CC3300" stroke="#000000" stroke-width="0.5" stroke-miterlimit="10" d="M151.543,204.382l9.019-35.462
	l1.071-4.309l2.399-5.729l-0.627-1.185l-2.563-0.047l-1.306-1.702l0.466-1.492l0.512-3.309l4.543-5.591l1.865-1.121l1.165-1.165
	l1.514-3.633l4.124-5.776l3.631-3.936l0.234-3.517l-3.333-2.516l-1.817-4.731l-12.904-3.681l-15.375-3.61l-15.725,0.116
	l-0.467-1.398l-5.591,2.097l-4.542-0.583l-2.445-1.63l-1.282,0.699l-4.776-0.233l-1.748-1.398l-5.357-2.097l-0.815,0.116
	l-4.426-1.513l-1.979,1.864l-6.29-0.349l-6.057-4.193l0.699-0.815l0.233-7.919l-2.33-3.961L77.07,90.09l-0.699-2.563l-2.398-0.477
	l-5.908,2.099l-2.305,6.589l-3.295,10.211l-3.294,6.588l-5.105,14.331l-6.589,13.838l-8.236,12.848l-1.977,2.964l-0.824,8.73
	l0.394,12.309L151.543,204.382L151.543,204.382z"/>
<path id="WA" fill="#CC3300" stroke="#000000" stroke-width="0.5" stroke-miterlimit="10" d="M104.009,33.278l4.447,1.482l9.883,2.8
	l8.731,1.977l20.426,5.765l23.392,5.766l15.512,3.268l-13.891,64.792l-12.681-3.592l-15.802-3.638l-15.518,0.033l-0.464-1.37
	l-5.706,2.22l-4.682-0.75l-2.187-1.614l-1.338,0.671l-4.823-0.143l-1.731-1.375l-5.363-2.152l-0.749,0.15l-4.473-1.554l-1.929,1.852
	l-6.385-0.304l-6.04-4.204l0.793-0.95l0.124-7.823l-2.326-3.914l-4.193-0.618l-0.691-2.559l-2.318-0.466l-3.622,1.252L68.099,85
	l0.33-2.966l2.8-0.329l1.648-4.119l-2.636-1.153l0.166-3.788l4.447-0.659l-2.801-2.802l-1.482-7.248l0.658-2.965v-8.067
	l-1.812-3.295l2.306-9.554l2.143,0.495l2.471,2.965l2.801,2.635l3.294,1.976l4.613,2.143l3.129,0.658l2.965,1.483l3.459,0.989
	l2.306-0.166v-2.469l1.317-1.154l2.142-1.317l0.329,1.155l0.33,1.811l-2.308,0.495l-0.329,2.142l1.812,1.482l1.153,2.471
	l0.659,1.978l1.482-0.166l0.165-1.317l-0.988-1.317l-0.494-3.295l0.823-1.811l-0.658-1.482v-2.306l1.811-3.625l-1.153-2.635
	l-2.471-4.942l0.328-0.826L104.009,33.278L104.009,33.278z M94.374,39.37l2.06-0.165l0.494,1.4l1.565-1.647h2.388l0.825,1.565
	l-1.565,1.73l0.658,0.823l-0.742,2.06l-1.4,0.412c0,0-0.907,0.083-0.907-0.247c0-0.33,1.482-2.636,1.482-2.636l-1.729-0.576
	l-0.329,1.482l-0.743,0.659l-1.565-2.306L94.374,39.37z"/>
<g id="ca">
	<title>California</title>
	<path id="CA" fill="#FF6600" stroke="#000000" stroke-width="0.5" stroke-miterlimit="10" d="M147.438,414.968l4.014-0.497
		l1.515-2.05l0.554-2.998l-3.619-0.601l-0.523-0.682l0.486-2.069l-0.163-0.603l1.959-0.632l3.1-2.886l0.593-5.09l1.406-3.465
		l1.98-2.207l3.586-1.623l1.685-1.633l0.07-2.147l-1.012-0.591l-1.043-1.092l-1.177-5.961l-2.736-4.922l0.577-3.572l-2.466-1.049
		L85.856,262.445l19.261-68.884l-68.353-15.996l-1.535,4.823l-0.165,7.578l-5.271,12.026l-3.13,2.634l-0.329,1.153l-1.812,0.824
		l-1.482,4.283l-0.825,3.294l2.801,4.283l1.646,4.283l1.153,3.625l-0.329,6.589l-1.812,3.13l-0.658,5.931l-0.988,3.788l1.811,3.955
		l2.8,4.612l2.307,4.943l1.317,4.119l-0.33,3.293l-0.329,0.494v2.142l5.765,6.425l-0.494,2.471l-0.658,2.306l-0.659,1.977
		l0.166,8.401l2.142,3.789l1.977,2.636l2.8,0.494l0.989,2.8l-1.153,3.625l-2.143,1.648h-1.152l-0.825,3.954l0.494,2.965l3.295,4.449
		l1.647,5.435l1.483,4.776l1.317,3.131l3.459,5.929l1.483,2.637l0.494,2.964l1.647,0.989v2.474l-0.824,1.975l-1.812,7.248
		l-0.494,1.975l2.472,2.803l4.282,0.491l4.612,1.812l3.954,2.143h2.965l2.965,3.13l2.636,4.943l1.153,2.307l3.954,2.142l4.942,0.824
		l1.483,2.144l0.658,3.294l-1.483,0.658l0.329,0.99l3.294,0.823l2.8,0.164l3.219-1.72l3.955,4.281l0.823,2.309l2.635,4.283
		l0.329,3.294v9.554l0.494,1.811l10.212,1.482l20.096,2.8L147.438,414.968L147.438,414.968z M57.632,370.421l1.317,1.565
		l-0.165,1.318l-3.294-0.085l-0.577-1.233l-0.658-1.481L57.632,370.421L57.632,370.421z M59.608,370.421l1.235-0.657l3.625,2.143
		l3.13,1.234l-0.906,0.657l-4.613-0.247l-1.646-1.646L59.608,370.421L59.608,370.421z M80.694,390.602l1.812,2.389l0.824,0.988
		l1.565,0.576l0.576-1.481l-0.988-1.813l-2.717-2.059l-1.071,0.164L80.694,390.602L80.694,390.602z M79.211,399.414l1.811,3.212
		l1.235,1.977l-1.482,0.246l-1.317-1.234c0,0-0.742-1.481-0.742-1.894s0-2.226,0-2.226L79.211,399.414L79.211,399.414z"/>
</g>
<path fill="none" stroke="#000000" stroke-miterlimit="10" d="M215.001,527.871v56.043l36.683,45.854 M0,458.581h146.731
	l68.271,69.29h87.631l54.005,55.023v46.872"/>
<rect x="883.186" y="390.721" fill="#330000" stroke="#000000" stroke-width="0.5" stroke-miterlimit="10" width="27.623" height="19.654"/>
<rect x="883.186" y="410.375" fill="#990000" stroke="#000000" stroke-width="0.5" stroke-miterlimit="10" width="27.623" height="19.652"/>
<g enable-background="new    ">
	<path d="M916.709,440.887v-1.112l5.867-2.163v1.247l-4.291,1.454v0.024l4.291,1.467v1.234L916.709,440.887z M916.721,444.48v-1.063
		h5.855v1.063H916.721z"/>
	<path d="M927.089,444.48v-1.895h-3.521v-1.21l3.007-4.84h2.273v4.656h0.954v1.394h-0.954v1.895H927.089z M927.089,441.192v-1.76
		c0-0.477,0.024-0.966,0.062-1.479h-0.049c-0.258,0.513-0.465,0.978-0.734,1.479l-1.063,1.735v0.024H927.089z"/>
	<path d="M936.453,440.472c0,2.457-0.989,4.144-3.018,4.144c-2.055,0-2.959-1.846-2.971-4.095c0-2.298,0.978-4.119,3.031-4.119
		C935.623,436.401,936.453,438.296,936.453,440.472z M932.335,440.521c-0.013,1.821,0.428,2.688,1.149,2.688
		c0.721,0,1.111-0.904,1.111-2.713c0-1.76-0.379-2.689-1.124-2.689C932.787,437.807,932.322,438.675,932.335,440.521z"/>
	<path d="M941.553,438.761c0,1.662-1.051,2.529-2.199,2.529c-1.211,0-2.164-0.904-2.164-2.396c0-1.417,0.868-2.493,2.225-2.493
		C940.783,436.401,941.553,437.403,941.553,438.761z M938.57,438.846c0,0.831,0.281,1.431,0.819,1.431
		c0.526,0,0.782-0.538,0.782-1.431c0-0.807-0.22-1.43-0.795-1.43C938.828,437.416,938.57,438.052,938.57,438.846z M939.451,444.615
		l4.559-8.214h1.002l-4.57,8.214H939.451z M947.273,442.061c0,1.662-1.051,2.53-2.2,2.53c-1.198,0-2.151-0.905-2.163-2.396
		c0-1.418,0.867-2.494,2.225-2.494C946.504,439.701,947.273,440.704,947.273,442.061z M944.303,442.146
		c-0.012,0.831,0.27,1.43,0.807,1.43c0.525,0,0.783-0.538,0.783-1.43c0-0.808-0.208-1.431-0.783-1.431
		C944.548,440.716,944.303,441.352,944.303,442.146z"/>
</g>
<g enable-background="new    ">
	<path d="M916.709,420.864v-1.112l5.867-2.163v1.247l-4.291,1.454v0.024l4.291,1.467v1.234L916.709,420.864z M916.721,424.458
		v-1.063h5.855v1.063H916.721z"/>
	<path d="M929.105,418.041h-3.08l-0.171,1.223c0.171-0.024,0.317-0.024,0.513-0.024c0.758,0,1.528,0.171,2.09,0.574
		c0.6,0.403,0.967,1.063,0.967,1.992c0,1.479-1.271,2.787-3.41,2.787c-0.966,0-1.773-0.221-2.213-0.452l0.33-1.394
		c0.354,0.171,1.076,0.391,1.797,0.391c0.77,0,1.589-0.366,1.589-1.21c0-0.818-0.647-1.319-2.237-1.319
		c-0.439,0-0.745,0.024-1.075,0.073l0.526-4.168h4.375V418.041z"/>
	<path d="M936.453,420.449c0,2.457-0.989,4.144-3.018,4.144c-2.055,0-2.959-1.846-2.971-4.095c0-2.298,0.978-4.119,3.031-4.119
		C935.623,416.379,936.453,418.273,936.453,420.449z M932.335,420.498c-0.013,1.821,0.428,2.688,1.149,2.688
		c0.721,0,1.111-0.904,1.111-2.713c0-1.76-0.379-2.689-1.124-2.689C932.787,417.784,932.322,418.652,932.335,420.498z"/>
	<path d="M941.553,418.738c0,1.662-1.051,2.529-2.199,2.529c-1.211,0-2.164-0.904-2.164-2.396c0-1.417,0.868-2.493,2.225-2.493
		C940.783,416.379,941.553,417.381,941.553,418.738z M938.57,418.823c0,0.831,0.281,1.431,0.819,1.431
		c0.526,0,0.782-0.538,0.782-1.431c0-0.807-0.22-1.43-0.795-1.43C938.828,417.394,938.57,418.029,938.57,418.823z M939.451,424.593
		l4.559-8.214h1.002l-4.57,8.214H939.451z M947.273,422.038c0,1.662-1.051,2.53-2.2,2.53c-1.198,0-2.151-0.905-2.163-2.396
		c0-1.418,0.867-2.494,2.225-2.494C946.504,419.679,947.273,420.682,947.273,422.038z M944.303,422.124
		c-0.012,0.831,0.27,1.43,0.807,1.43c0.525,0,0.783-0.538,0.783-1.43c0-0.808-0.208-1.431-0.783-1.431
		C944.548,420.693,944.303,421.329,944.303,422.124z"/>
</g>
<g enable-background="new    ">
	<path d="M922.576,402.068l-5.867,2.688v-1.296l4.534-1.943v-0.024l-4.534-1.943v-1.295l5.867,2.688V402.068z"/>
	<path d="M929.105,398.34h-3.08l-0.171,1.223c0.171-0.024,0.317-0.024,0.513-0.024c0.758,0,1.528,0.171,2.09,0.574
		c0.6,0.403,0.967,1.063,0.967,1.992c0,1.479-1.271,2.787-3.41,2.787c-0.966,0-1.773-0.221-2.213-0.452l0.33-1.394
		c0.354,0.171,1.076,0.391,1.797,0.391c0.77,0,1.589-0.366,1.589-1.21c0-0.818-0.647-1.319-2.237-1.319
		c-0.439,0-0.745,0.024-1.075,0.073l0.526-4.168h4.375V398.34z"/>
	<path d="M936.453,400.748c0,2.457-0.989,4.144-3.018,4.144c-2.055,0-2.959-1.846-2.971-4.095c0-2.298,0.978-4.119,3.031-4.119
		C935.623,396.678,936.453,398.572,936.453,400.748z M932.335,400.797c-0.013,1.821,0.428,2.688,1.149,2.688
		c0.721,0,1.111-0.904,1.111-2.713c0-1.76-0.379-2.689-1.124-2.689C932.787,398.083,932.322,398.951,932.335,400.797z"/>
	<path d="M941.553,399.037c0,1.662-1.051,2.529-2.199,2.529c-1.211,0-2.164-0.904-2.164-2.396c0-1.417,0.868-2.493,2.225-2.493
		C940.783,396.678,941.553,397.68,941.553,399.037z M938.57,399.122c0,0.831,0.281,1.431,0.819,1.431
		c0.526,0,0.782-0.538,0.782-1.431c0-0.807-0.22-1.43-0.795-1.43C938.828,397.692,938.57,398.328,938.57,399.122z M939.451,404.892
		l4.559-8.214h1.002l-4.57,8.214H939.451z M947.273,402.337c0,1.662-1.051,2.53-2.2,2.53c-1.198,0-2.151-0.905-2.163-2.396
		c0-1.418,0.867-2.494,2.225-2.494C946.504,399.978,947.273,400.98,947.273,402.337z M944.303,402.423
		c-0.012,0.831,0.27,1.43,0.807,1.43c0.525,0,0.783-0.538,0.783-1.43c0-0.808-0.208-1.431-0.783-1.431
		C944.548,400.992,944.303,401.628,944.303,402.423z"/>
</g>
<rect x="883.186" y="429.652" fill="#CC3300" stroke="#000000" stroke-width="0.5" stroke-miterlimit="10" width="27.623" height="19.652"/>
<rect x="883.186" y="449.306" fill="#FF6600" stroke="#000000" stroke-width="0.5" stroke-miterlimit="10" width="27.623" height="19.653"/>
<rect x="883.186" y="468.959" fill="#FFCC66" stroke="#000000" stroke-width="0.5" stroke-miterlimit="10" width="27.623" height="19.653"/>
<g enable-background="new    ">
	<path d="M916.709,479.964v-1.112l5.867-2.163v1.247l-4.291,1.454v0.024l4.291,1.467v1.234L916.709,479.964z M916.721,483.558
		v-1.063h5.855v1.063H916.721z"/>
	<path d="M926.172,477.263h-0.024l-1.516,0.722l-0.306-1.394l2.103-0.978h1.54v7.944h-1.797V477.263z"/>
	<path d="M935.892,477.141h-3.08l-0.171,1.223c0.171-0.024,0.317-0.024,0.514-0.024c0.758,0,1.527,0.171,2.09,0.574
		c0.599,0.403,0.965,1.063,0.965,1.992c0,1.479-1.271,2.787-3.41,2.787c-0.965,0-1.771-0.221-2.212-0.452l0.33-1.394
		c0.354,0.171,1.075,0.391,1.797,0.391c0.771,0,1.589-0.366,1.589-1.21c0-0.818-0.648-1.319-2.236-1.319
		c-0.44,0-0.746,0.024-1.076,0.073l0.525-4.168h4.376V477.141z"/>
	<path d="M941.553,477.838c0,1.662-1.051,2.529-2.199,2.529c-1.211,0-2.164-0.904-2.164-2.396c0-1.417,0.868-2.493,2.225-2.493
		C940.783,475.479,941.553,476.48,941.553,477.838z M938.57,477.923c0,0.831,0.281,1.431,0.819,1.431
		c0.526,0,0.782-0.538,0.782-1.431c0-0.807-0.22-1.43-0.795-1.43C938.828,476.493,938.57,477.129,938.57,477.923z M939.451,483.692
		l4.559-8.214h1.002l-4.57,8.214H939.451z M947.273,481.138c0,1.662-1.051,2.53-2.2,2.53c-1.198,0-2.151-0.905-2.163-2.396
		c0-1.418,0.867-2.494,2.225-2.494C946.504,478.778,947.273,479.781,947.273,481.138z M944.303,481.224
		c-0.012,0.831,0.27,1.43,0.807,1.43c0.525,0,0.783-0.538,0.783-1.43c0-0.808-0.208-1.431-0.783-1.431
		C944.548,479.793,944.303,480.429,944.303,481.224z"/>
</g>
<g enable-background="new    ">
	<path d="M916.709,460.604v-1.112l5.867-2.163v1.247l-4.291,1.454v0.024l4.291,1.467v1.234L916.709,460.604z M916.721,464.197
		v-1.063h5.855v1.063H916.721z"/>
	<path d="M924.131,462.376c0.33,0.171,1.088,0.489,1.846,0.489c0.965,0,1.455-0.465,1.455-1.063c0-0.782-0.783-1.137-1.602-1.137
		h-0.758v-1.332h0.721c0.623-0.013,1.418-0.245,1.418-0.917c0-0.477-0.391-0.831-1.174-0.831c-0.647,0-1.332,0.281-1.662,0.477
		l-0.379-1.345c0.477-0.305,1.43-0.599,2.457-0.599c1.699,0,2.641,0.893,2.641,1.98c0,0.843-0.477,1.503-1.455,1.846v0.024
		c0.953,0.171,1.724,0.892,1.724,1.931c0,1.405-1.235,2.433-3.251,2.433c-1.027,0-1.895-0.27-2.359-0.563L924.131,462.376z"/>
	<path d="M936.453,460.188c0,2.457-0.989,4.144-3.018,4.144c-2.055,0-2.959-1.846-2.971-4.095c0-2.298,0.978-4.119,3.031-4.119
		C935.623,456.118,936.453,458.013,936.453,460.188z M932.335,460.237c-0.013,1.821,0.428,2.688,1.149,2.688
		c0.721,0,1.111-0.904,1.111-2.713c0-1.76-0.379-2.689-1.124-2.689C932.787,457.523,932.322,458.392,932.335,460.237z"/>
	<path d="M941.553,458.478c0,1.662-1.051,2.529-2.199,2.529c-1.211,0-2.164-0.904-2.164-2.396c0-1.417,0.868-2.493,2.225-2.493
		C940.783,456.118,941.553,457.12,941.553,458.478z M938.57,458.563c0,0.831,0.281,1.431,0.819,1.431
		c0.526,0,0.782-0.538,0.782-1.431c0-0.807-0.22-1.43-0.795-1.43C938.828,457.133,938.57,457.769,938.57,458.563z M939.451,464.332
		l4.559-8.214h1.002l-4.57,8.214H939.451z M947.273,461.777c0,1.662-1.051,2.53-2.2,2.53c-1.198,0-2.151-0.905-2.163-2.396
		c0-1.418,0.867-2.494,2.225-2.494C946.504,459.418,947.273,460.421,947.273,461.777z M944.303,461.863
		c-0.012,0.831,0.27,1.43,0.807,1.43c0.525,0,0.783-0.538,0.783-1.43c0-0.808-0.208-1.431-0.783-1.431
		C944.548,460.433,944.303,461.068,944.303,461.863z"/>
</g>
<g>
	<path d="M826.925,506.534c-0.563,0.192-1.631,0.456-2.698,0.456c-1.476,0-2.543-0.372-3.286-1.092
		c-0.744-0.695-1.151-1.751-1.14-2.938c0.012-2.687,1.967-4.222,4.617-4.222c1.044,0,1.847,0.204,2.243,0.396l-0.384,1.463
		c-0.444-0.191-0.996-0.348-1.883-0.348c-1.523,0-2.675,0.863-2.675,2.614c0,1.667,1.043,2.65,2.542,2.65
		c0.42,0,0.756-0.048,0.9-0.119v-1.691h-1.248v-1.428h3.011V506.534z"/>
	<path d="M833.861,505.023c0,0.768,0.023,1.391,0.048,1.883h-1.583l-0.084-0.827h-0.036c-0.228,0.359-0.779,0.959-1.835,0.959
		c-1.188,0-2.063-0.743-2.063-2.555v-3.442h1.835v3.154c0,0.852,0.275,1.367,0.911,1.367c0.504,0,0.792-0.348,0.911-0.635
		c0.048-0.108,0.061-0.252,0.061-0.396v-3.49h1.835V505.023z"/>
	<path d="M835.328,502.912c0-0.731-0.023-1.354-0.048-1.871h1.583l0.084,0.804h0.036c0.24-0.371,0.84-0.936,1.811-0.936
		c1.2,0,2.1,0.792,2.1,2.519v3.479h-1.823v-3.25c0-0.756-0.264-1.271-0.924-1.271c-0.504,0-0.804,0.348-0.923,0.684
		c-0.049,0.108-0.072,0.288-0.072,0.456v3.382h-1.823V502.912z"/>
	<path d="M850.577,503.908c0,2.146-1.523,3.13-3.095,3.13c-1.715,0-3.034-1.127-3.034-3.022c0-1.895,1.248-3.106,3.131-3.106
		C849.378,500.909,850.577,502.145,850.577,503.908z M846.331,503.968c0,1.008,0.42,1.763,1.2,1.763
		c0.707,0,1.163-0.707,1.163-1.763c0-0.875-0.336-1.763-1.163-1.763C846.655,502.205,846.331,503.104,846.331,503.968z"/>
	<path d="M852.859,501.041l0.468,2.399c0.119,0.611,0.239,1.259,0.336,1.931h0.023c0.12-0.672,0.288-1.344,0.432-1.919l0.624-2.411
		h1.439l0.587,2.339c0.156,0.66,0.313,1.319,0.433,1.991h0.023c0.084-0.672,0.204-1.331,0.336-2.003l0.504-2.327h1.787l-1.8,5.865
		h-1.715l-0.552-2.063c-0.144-0.576-0.252-1.104-0.371-1.823h-0.024c-0.108,0.731-0.228,1.271-0.384,1.823l-0.588,2.063h-1.715
		L851,501.041H852.859z"/>
	<path d="M860.708,502.912c0-0.731-0.023-1.354-0.048-1.871h1.583l0.084,0.804h0.036c0.24-0.371,0.84-0.936,1.811-0.936
		c1.2,0,2.1,0.792,2.1,2.519v3.479h-1.823v-3.25c0-0.756-0.264-1.271-0.924-1.271c-0.504,0-0.804,0.348-0.923,0.684
		c-0.049,0.108-0.072,0.288-0.072,0.456v3.382h-1.823V502.912z"/>
	<path d="M869.144,504.556c0.06,0.756,0.804,1.115,1.655,1.115c0.623,0,1.127-0.084,1.619-0.24l0.239,1.235
		c-0.6,0.24-1.331,0.36-2.122,0.36c-1.991,0-3.131-1.151-3.131-2.986c0-1.487,0.924-3.131,2.963-3.131
		c1.895,0,2.614,1.476,2.614,2.927c0,0.312-0.036,0.588-0.06,0.72H869.144z M871.29,503.309c0-0.444-0.191-1.188-1.031-1.188
		c-0.768,0-1.079,0.695-1.127,1.188H871.29z"/>
	<path d="M874.076,502.973c0-0.863-0.023-1.428-0.048-1.932h1.571l0.06,1.08h0.048c0.3-0.852,1.02-1.212,1.584-1.212
		c0.167,0,0.251,0,0.384,0.024v1.715c-0.133-0.023-0.288-0.048-0.492-0.048c-0.672,0-1.127,0.359-1.247,0.924
		c-0.024,0.12-0.036,0.264-0.036,0.407v2.975h-1.823V502.973z"/>
	<path d="M878.624,505.312c0.336,0.203,1.031,0.443,1.571,0.443c0.552,0,0.779-0.192,0.779-0.492s-0.18-0.443-0.863-0.671
		c-1.212-0.408-1.68-1.067-1.667-1.764c0-1.091,0.936-1.919,2.387-1.919c0.684,0,1.295,0.156,1.654,0.336l-0.323,1.26
		c-0.264-0.145-0.768-0.336-1.271-0.336c-0.443,0-0.695,0.18-0.695,0.479c0,0.276,0.228,0.42,0.947,0.672
		c1.115,0.384,1.583,0.947,1.595,1.811c0,1.092-0.863,1.896-2.542,1.896c-0.768,0-1.451-0.168-1.896-0.408L878.624,505.312z"/>
	<path d="M889.602,506.906l-0.107-0.588h-0.036c-0.384,0.468-0.983,0.72-1.679,0.72c-1.188,0-1.896-0.863-1.896-1.799
		c0-1.523,1.367-2.255,3.442-2.243v-0.084c0-0.312-0.168-0.755-1.067-0.755c-0.6,0-1.235,0.203-1.619,0.443l-0.336-1.176
		c0.408-0.228,1.211-0.516,2.278-0.516c1.955,0,2.579,1.151,2.579,2.531v2.039c0,0.563,0.023,1.103,0.084,1.427H889.602z
		 M889.386,504.136c-0.959-0.012-1.703,0.216-1.703,0.924c0,0.468,0.313,0.695,0.72,0.695c0.456,0,0.828-0.3,0.947-0.672
		c0.024-0.096,0.036-0.204,0.036-0.312V504.136z"/>
	<path d="M892.592,505.312c0.336,0.203,1.031,0.443,1.571,0.443c0.552,0,0.779-0.192,0.779-0.492s-0.18-0.443-0.863-0.671
		c-1.212-0.408-1.68-1.067-1.667-1.764c0-1.091,0.936-1.919,2.387-1.919c0.684,0,1.295,0.156,1.654,0.336l-0.323,1.26
		c-0.264-0.145-0.768-0.336-1.271-0.336c-0.443,0-0.695,0.18-0.695,0.479c0,0.276,0.228,0.42,0.947,0.672
		c1.115,0.384,1.583,0.947,1.595,1.811c0,1.092-0.863,1.896-2.542,1.896c-0.768,0-1.451-0.168-1.896-0.408L892.592,505.312z"/>
	<path d="M903.569,506.906l-0.107-0.588h-0.036c-0.384,0.468-0.983,0.72-1.679,0.72c-1.188,0-1.896-0.863-1.896-1.799
		c0-1.523,1.367-2.255,3.442-2.243v-0.084c0-0.312-0.168-0.755-1.067-0.755c-0.6,0-1.235,0.203-1.619,0.443l-0.336-1.176
		c0.408-0.228,1.211-0.516,2.278-0.516c1.955,0,2.579,1.151,2.579,2.531v2.039c0,0.563,0.023,1.103,0.084,1.427H903.569z
		 M903.354,504.136c-0.959-0.012-1.703,0.216-1.703,0.924c0,0.468,0.313,0.695,0.72,0.695c0.456,0,0.828-0.3,0.947-0.672
		c0.024-0.096,0.036-0.204,0.036-0.312V504.136z"/>
	<path d="M908.995,503.009c0-0.768-0.023-1.428-0.048-1.968h1.583l0.084,0.816h0.024c0.432-0.624,1.104-0.948,1.955-0.948
		c1.283,0,2.435,1.116,2.435,2.986c0,2.135-1.355,3.143-2.663,3.143c-0.707,0-1.259-0.288-1.523-0.672h-0.023v2.915h-1.823V503.009z
		 M910.818,504.388c0,0.144,0.012,0.275,0.036,0.384c0.12,0.491,0.539,0.863,1.067,0.863c0.791,0,1.259-0.659,1.259-1.655
		c0-0.936-0.42-1.643-1.235-1.643c-0.516,0-0.971,0.384-1.091,0.923c-0.024,0.097-0.036,0.217-0.036,0.324V504.388z"/>
	<path d="M917.61,504.556c0.06,0.756,0.804,1.115,1.655,1.115c0.623,0,1.127-0.084,1.619-0.24l0.239,1.235
		c-0.6,0.24-1.331,0.36-2.122,0.36c-1.991,0-3.131-1.151-3.131-2.986c0-1.487,0.924-3.131,2.963-3.131
		c1.895,0,2.614,1.476,2.614,2.927c0,0.312-0.036,0.588-0.06,0.72H917.61z M919.757,503.309c0-0.444-0.191-1.188-1.031-1.188
		c-0.768,0-1.079,0.695-1.127,1.188H919.757z"/>
	<path d="M922.543,502.973c0-0.863-0.023-1.428-0.048-1.932h1.571l0.06,1.08h0.048c0.3-0.852,1.02-1.212,1.584-1.212
		c0.167,0,0.251,0,0.384,0.024v1.715c-0.133-0.023-0.288-0.048-0.492-0.048c-0.672,0-1.127,0.359-1.247,0.924
		c-0.024,0.12-0.036,0.264-0.036,0.407v2.975h-1.823V502.973z"/>
	<path d="M931.408,506.763c-0.323,0.144-0.936,0.264-1.631,0.264c-1.895,0-3.106-1.151-3.106-2.999c0-1.715,1.176-3.118,3.358-3.118
		c0.479,0,1.008,0.084,1.392,0.229l-0.288,1.354c-0.216-0.096-0.54-0.18-1.02-0.18c-0.959,0-1.583,0.684-1.571,1.644
		c0,1.079,0.72,1.643,1.607,1.643c0.432,0,0.768-0.071,1.043-0.18L931.408,506.763z"/>
	<path d="M933.69,504.556c0.06,0.756,0.804,1.115,1.655,1.115c0.623,0,1.127-0.084,1.619-0.24l0.239,1.235
		c-0.6,0.24-1.331,0.36-2.122,0.36c-1.991,0-3.131-1.151-3.131-2.986c0-1.487,0.924-3.131,2.963-3.131
		c1.895,0,2.614,1.476,2.614,2.927c0,0.312-0.036,0.588-0.06,0.72H933.69z M935.837,503.309c0-0.444-0.191-1.188-1.031-1.188
		c-0.768,0-1.079,0.695-1.127,1.188H935.837z"/>
	<path d="M938.623,502.912c0-0.731-0.023-1.354-0.048-1.871h1.583l0.084,0.804h0.036c0.24-0.371,0.84-0.936,1.811-0.936
		c1.2,0,2.1,0.792,2.1,2.519v3.479h-1.823v-3.25c0-0.756-0.264-1.271-0.924-1.271c-0.504,0-0.804,0.348-0.923,0.684
		c-0.049,0.108-0.072,0.288-0.072,0.456v3.382h-1.823V502.912z"/>
	<path d="M947.622,499.362v1.679h1.308v1.344h-1.308v2.123c0,0.707,0.168,1.031,0.72,1.031c0.228,0,0.407-0.024,0.539-0.048
		l0.013,1.379c-0.24,0.096-0.672,0.156-1.188,0.156c-0.588,0-1.079-0.204-1.367-0.504c-0.336-0.348-0.504-0.911-0.504-1.739v-2.398
		h-0.779v-1.344h0.779v-1.271L947.622,499.362z"/>
	<path d="M953.321,506.906l-0.107-0.588h-0.036c-0.384,0.468-0.983,0.72-1.679,0.72c-1.188,0-1.896-0.863-1.896-1.799
		c0-1.523,1.367-2.255,3.442-2.243v-0.084c0-0.312-0.168-0.755-1.067-0.755c-0.6,0-1.235,0.203-1.619,0.443l-0.336-1.176
		c0.408-0.228,1.211-0.516,2.278-0.516c1.955,0,2.579,1.151,2.579,2.531v2.039c0,0.563,0.023,1.103,0.084,1.427H953.321z
		 M953.105,504.136c-0.959-0.012-1.703,0.216-1.703,0.924c0,0.468,0.313,0.695,0.72,0.695c0.456,0,0.828-0.3,0.947-0.672
		c0.024-0.096,0.036-0.204,0.036-0.312V504.136z"/>
	<path d="M961.924,501.041c-0.023,0.372-0.048,0.864-0.048,1.739v3.274c0,1.127-0.228,2.051-0.887,2.639
		c-0.648,0.552-1.523,0.72-2.387,0.72c-0.768,0-1.584-0.156-2.111-0.456l0.36-1.379c0.371,0.216,1.019,0.443,1.702,0.443
		c0.864,0,1.523-0.468,1.523-1.547v-0.384h-0.023c-0.349,0.491-0.912,0.768-1.583,0.768c-1.452,0-2.483-1.176-2.483-2.866
		c0-1.883,1.224-3.083,2.663-3.083c0.804,0,1.307,0.349,1.606,0.828h0.024l0.06-0.696H961.924z M960.054,503.428
		c0-0.119-0.013-0.239-0.036-0.335c-0.132-0.48-0.479-0.804-0.983-0.804c-0.66,0-1.199,0.6-1.199,1.667
		c0,0.875,0.432,1.559,1.199,1.559c0.468,0,0.839-0.312,0.959-0.743c0.048-0.132,0.061-0.324,0.061-0.479V503.428z"/>
	<path d="M964.746,504.556c0.06,0.756,0.804,1.115,1.655,1.115c0.624,0,1.127-0.084,1.619-0.24l0.239,1.235
		c-0.6,0.24-1.331,0.36-2.122,0.36c-1.991,0-3.131-1.151-3.131-2.986c0-1.487,0.924-3.131,2.963-3.131
		c1.895,0,2.614,1.476,2.614,2.927c0,0.312-0.036,0.588-0.06,0.72H964.746z M966.893,503.309c0-0.444-0.191-1.188-1.031-1.188
		c-0.768,0-1.079,0.695-1.127,1.188H966.893z"/>
	<path d="M812.466,518.309c0,2.146-1.523,3.13-3.095,3.13c-1.715,0-3.034-1.127-3.034-3.022c0-1.895,1.248-3.106,3.131-3.106
		C811.267,515.31,812.466,516.545,812.466,518.309z M808.22,518.368c0,1.008,0.42,1.763,1.2,1.763c0.707,0,1.163-0.707,1.163-1.763
		c0-0.875-0.336-1.763-1.163-1.763C808.544,516.605,808.22,517.505,808.22,518.368z"/>
	<path d="M813.801,521.307v-4.521h-0.768v-1.344h0.768v-0.228c0-0.707,0.216-1.487,0.743-1.967c0.456-0.432,1.092-0.588,1.619-0.588
		c0.408,0,0.72,0.048,0.972,0.12l-0.072,1.403c-0.155-0.048-0.348-0.084-0.587-0.084c-0.6,0-0.852,0.468-0.852,1.043v0.3h1.175
		v1.344h-1.163v4.521H813.801z"/>
	<path d="M821.516,518.956c0.06,0.756,0.804,1.115,1.655,1.115c0.624,0,1.127-0.084,1.619-0.24l0.239,1.235
		c-0.6,0.24-1.331,0.36-2.122,0.36c-1.991,0-3.131-1.151-3.131-2.986c0-1.487,0.924-3.131,2.963-3.131
		c1.895,0,2.614,1.476,2.614,2.927c0,0.312-0.036,0.588-0.06,0.72H821.516z M823.662,517.709c0-0.444-0.191-1.188-1.031-1.188
		c-0.768,0-1.079,0.695-1.127,1.188H823.662z"/>
	<path d="M829.782,521.307l-0.107-0.588h-0.036c-0.384,0.468-0.983,0.72-1.679,0.72c-1.188,0-1.896-0.863-1.896-1.799
		c0-1.523,1.367-2.255,3.442-2.243v-0.084c0-0.312-0.168-0.755-1.067-0.755c-0.6,0-1.235,0.203-1.619,0.443l-0.336-1.176
		c0.408-0.228,1.211-0.516,2.278-0.516c1.955,0,2.579,1.151,2.579,2.531v2.039c0,0.563,0.023,1.103,0.084,1.427H829.782z
		 M829.566,518.536c-0.959-0.012-1.703,0.216-1.703,0.924c0,0.468,0.313,0.695,0.72,0.695c0.456,0,0.828-0.3,0.947-0.672
		c0.024-0.096,0.036-0.204,0.036-0.312V518.536z"/>
	<path d="M837.187,521.163c-0.323,0.144-0.936,0.264-1.631,0.264c-1.895,0-3.106-1.151-3.106-2.999c0-1.715,1.176-3.118,3.358-3.118
		c0.479,0,1.008,0.084,1.392,0.229l-0.288,1.354c-0.216-0.096-0.54-0.18-1.02-0.18c-0.96,0-1.583,0.684-1.571,1.644
		c0,1.079,0.72,1.643,1.607,1.643c0.432,0,0.768-0.071,1.043-0.18L837.187,521.163z"/>
	<path d="M838.196,512.791h1.823v3.347h0.023c0.192-0.252,0.433-0.444,0.72-0.6c0.265-0.145,0.612-0.229,0.948-0.229
		c1.163,0,2.051,0.804,2.051,2.567v3.43h-1.823v-3.227c0-0.768-0.264-1.295-0.947-1.295c-0.48,0-0.78,0.312-0.912,0.636
		c-0.048,0.12-0.06,0.275-0.06,0.407v3.479h-1.823V512.791z"/>
	<path d="M847.641,519.712c0.336,0.203,1.031,0.443,1.571,0.443c0.552,0,0.779-0.192,0.779-0.492s-0.18-0.443-0.863-0.671
		c-1.212-0.408-1.68-1.067-1.667-1.764c0-1.091,0.936-1.919,2.387-1.919c0.684,0,1.295,0.156,1.654,0.336l-0.323,1.26
		c-0.264-0.145-0.768-0.336-1.271-0.336c-0.443,0-0.695,0.18-0.695,0.479c0,0.276,0.228,0.42,0.947,0.672
		c1.115,0.384,1.583,0.947,1.595,1.811c0,1.092-0.863,1.896-2.542,1.896c-0.768,0-1.451-0.168-1.896-0.408L847.641,519.712z"/>
	<path d="M854.899,513.763v1.679h1.308v1.344h-1.308v2.123c0,0.707,0.168,1.031,0.72,1.031c0.228,0,0.407-0.024,0.539-0.048
		l0.013,1.379c-0.24,0.096-0.672,0.156-1.188,0.156c-0.588,0-1.079-0.204-1.367-0.504c-0.336-0.348-0.504-0.911-0.504-1.739v-2.398
		h-0.779v-1.344h0.779v-1.271L854.899,513.763z"/>
	<path d="M860.599,521.307l-0.107-0.588h-0.036c-0.384,0.468-0.983,0.72-1.679,0.72c-1.188,0-1.896-0.863-1.896-1.799
		c0-1.523,1.367-2.255,3.442-2.243v-0.084c0-0.312-0.168-0.755-1.067-0.755c-0.6,0-1.235,0.203-1.619,0.443l-0.336-1.176
		c0.408-0.228,1.211-0.516,2.278-0.516c1.955,0,2.579,1.151,2.579,2.531v2.039c0,0.563,0.023,1.103,0.084,1.427H860.599z
		 M860.383,518.536c-0.959-0.012-1.703,0.216-1.703,0.924c0,0.468,0.313,0.695,0.72,0.695c0.456,0,0.828-0.3,0.947-0.672
		c0.024-0.096,0.036-0.204,0.036-0.312V518.536z"/>
	<path d="M865.543,513.763v1.679h1.308v1.344h-1.308v2.123c0,0.707,0.168,1.031,0.72,1.031c0.228,0,0.407-0.024,0.54-0.048
		l0.012,1.379c-0.24,0.096-0.672,0.156-1.188,0.156c-0.588,0-1.079-0.204-1.367-0.504c-0.336-0.348-0.504-0.911-0.504-1.739v-2.398
		h-0.779v-1.344h0.779v-1.271L865.543,513.763z"/>
	<path d="M869.252,518.956c0.06,0.756,0.804,1.115,1.655,1.115c0.624,0,1.127-0.084,1.619-0.24l0.239,1.235
		c-0.6,0.24-1.331,0.36-2.122,0.36c-1.991,0-3.131-1.151-3.131-2.986c0-1.487,0.924-3.131,2.963-3.131
		c1.895,0,2.614,1.476,2.614,2.927c0,0.312-0.036,0.588-0.06,0.72H869.252z M871.398,517.709c0-0.444-0.191-1.188-1.031-1.188
		c-0.768,0-1.079,0.695-1.127,1.188H871.398z"/>
	<path d="M875.456,513.091l-0.276,3.251h-1.067l-0.275-3.251H875.456z"/>
	<path d="M876.597,519.712c0.336,0.203,1.031,0.443,1.571,0.443c0.552,0,0.779-0.192,0.779-0.492s-0.18-0.443-0.863-0.671
		c-1.212-0.408-1.68-1.067-1.667-1.764c0-1.091,0.936-1.919,2.387-1.919c0.684,0,1.295,0.156,1.654,0.336l-0.323,1.26
		c-0.264-0.145-0.768-0.336-1.271-0.336c-0.443,0-0.695,0.18-0.695,0.479c0,0.276,0.228,0.42,0.947,0.672
		c1.115,0.384,1.583,0.947,1.595,1.811c0,1.092-0.863,1.896-2.542,1.896c-0.768,0-1.451-0.168-1.896-0.408L876.597,519.712z"/>
	<path d="M884.24,517.409c0-0.768-0.023-1.428-0.048-1.968h1.583l0.084,0.816h0.024c0.432-0.624,1.104-0.948,1.955-0.948
		c1.283,0,2.435,1.116,2.435,2.986c0,2.135-1.355,3.143-2.663,3.143c-0.707,0-1.259-0.288-1.523-0.672h-0.023v2.915h-1.823V517.409z
		 M886.063,518.788c0,0.144,0.012,0.275,0.036,0.384c0.12,0.491,0.539,0.863,1.067,0.863c0.791,0,1.259-0.659,1.259-1.655
		c0-0.936-0.42-1.643-1.235-1.643c-0.516,0-0.971,0.384-1.091,0.923c-0.024,0.097-0.036,0.217-0.036,0.324V518.788z"/>
	<path d="M897.245,518.309c0,2.146-1.523,3.13-3.095,3.13c-1.715,0-3.034-1.127-3.034-3.022c0-1.895,1.248-3.106,3.131-3.106
		C896.046,515.31,897.245,516.545,897.245,518.309z M892.999,518.368c0,1.008,0.42,1.763,1.2,1.763c0.707,0,1.163-0.707,1.163-1.763
		c0-0.875-0.336-1.763-1.163-1.763C893.323,516.605,892.999,517.505,892.999,518.368z"/>
	<path d="M898.376,517.409c0-0.768-0.023-1.428-0.048-1.968h1.583l0.084,0.816h0.024c0.432-0.624,1.104-0.948,1.955-0.948
		c1.283,0,2.435,1.116,2.435,2.986c0,2.135-1.355,3.143-2.663,3.143c-0.707,0-1.259-0.288-1.523-0.672h-0.023v2.915h-1.823V517.409z
		 M900.199,518.788c0,0.144,0.012,0.275,0.036,0.384c0.12,0.491,0.539,0.863,1.067,0.863c0.791,0,1.259-0.659,1.259-1.655
		c0-0.936-0.42-1.643-1.235-1.643c-0.516,0-0.971,0.384-1.091,0.923c-0.024,0.097-0.036,0.217-0.036,0.324V518.788z"/>
	<path d="M911.081,519.424c0,0.768,0.023,1.391,0.048,1.883h-1.583l-0.084-0.827h-0.036c-0.228,0.359-0.779,0.959-1.835,0.959
		c-1.188,0-2.063-0.743-2.063-2.555v-3.442h1.835v3.154c0,0.852,0.275,1.367,0.911,1.367c0.504,0,0.792-0.348,0.911-0.635
		c0.049-0.108,0.061-0.252,0.061-0.396v-3.49h1.835V519.424z"/>
	<path d="M912.548,512.791h1.823v8.516h-1.823V512.791z"/>
	<path d="M919.182,521.307l-0.107-0.588h-0.036c-0.384,0.468-0.983,0.72-1.679,0.72c-1.188,0-1.896-0.863-1.896-1.799
		c0-1.523,1.367-2.255,3.442-2.243v-0.084c0-0.312-0.168-0.755-1.067-0.755c-0.6,0-1.235,0.203-1.619,0.443l-0.336-1.176
		c0.408-0.228,1.211-0.516,2.278-0.516c1.955,0,2.579,1.151,2.579,2.531v2.039c0,0.563,0.023,1.103,0.084,1.427H919.182z
		 M918.966,518.536c-0.959-0.012-1.703,0.216-1.703,0.924c0,0.468,0.313,0.695,0.72,0.695c0.456,0,0.828-0.3,0.947-0.672
		c0.024-0.096,0.036-0.204,0.036-0.312V518.536z"/>
	<path d="M924.127,513.763v1.679h1.308v1.344h-1.308v2.123c0,0.707,0.168,1.031,0.72,1.031c0.228,0,0.407-0.024,0.54-0.048
		l0.012,1.379c-0.24,0.096-0.672,0.156-1.188,0.156c-0.588,0-1.079-0.204-1.367-0.504c-0.336-0.348-0.504-0.911-0.504-1.739v-2.398
		h-0.779v-1.344h0.779v-1.271L924.127,513.763z"/>
	<path d="M928.374,513.811c0,0.504-0.384,0.912-0.983,0.912c-0.575,0-0.959-0.408-0.947-0.912c-0.012-0.527,0.372-0.923,0.96-0.923
		C927.99,512.888,928.362,513.283,928.374,513.811z M926.491,521.307v-5.865h1.823v5.865H926.491z"/>
	<path d="M935.572,518.309c0,2.146-1.523,3.13-3.095,3.13c-1.715,0-3.034-1.127-3.034-3.022c0-1.895,1.248-3.106,3.131-3.106
		C934.373,515.31,935.572,516.545,935.572,518.309z M931.326,518.368c0,1.008,0.42,1.763,1.2,1.763c0.707,0,1.163-0.707,1.163-1.763
		c0-0.875-0.336-1.763-1.163-1.763C931.65,516.605,931.326,517.505,931.326,518.368z"/>
	<path d="M936.703,517.313c0-0.731-0.023-1.354-0.048-1.871h1.583l0.084,0.804h0.036c0.24-0.371,0.84-0.936,1.811-0.936
		c1.2,0,2.1,0.792,2.1,2.519v3.479h-1.823v-3.25c0-0.756-0.264-1.271-0.924-1.271c-0.504,0-0.804,0.348-0.923,0.684
		c-0.049,0.108-0.072,0.288-0.072,0.456v3.382h-1.823V517.313z"/>
	<path d="M948.042,513.811c0,0.504-0.384,0.912-0.983,0.912c-0.575,0-0.959-0.408-0.947-0.912c-0.012-0.527,0.372-0.923,0.96-0.923
		C947.658,512.888,948.03,513.283,948.042,513.811z M946.159,521.307v-5.865h1.823v5.865H946.159z"/>
	<path d="M949.447,517.313c0-0.731-0.023-1.354-0.048-1.871h1.583l0.084,0.804h0.036c0.24-0.371,0.84-0.936,1.811-0.936
		c1.2,0,2.1,0.792,2.1,2.519v3.479h-1.823v-3.25c0-0.756-0.264-1.271-0.924-1.271c-0.504,0-0.804,0.348-0.923,0.684
		c-0.049,0.108-0.072,0.288-0.072,0.456v3.382h-1.823V517.313z"/>
	<path d="M958.676,521.307v-1.104l1.007-0.911c1.703-1.523,2.531-2.399,2.555-3.311c0-0.636-0.384-1.14-1.283-1.14
		c-0.671,0-1.259,0.336-1.667,0.648l-0.516-1.308c0.588-0.443,1.499-0.804,2.555-0.804c1.763,0,2.734,1.031,2.734,2.446
		c0,1.308-0.947,2.352-2.075,3.358l-0.719,0.6v0.024h2.938v1.499H958.676z"/>
	<path d="M971.092,517.373c0,2.41-0.972,4.065-2.963,4.065c-2.015,0-2.902-1.811-2.914-4.018c0-2.255,0.959-4.042,2.975-4.042
		C970.276,513.379,971.092,515.238,971.092,517.373z M967.05,517.421c-0.012,1.787,0.42,2.639,1.127,2.639
		c0.708,0,1.092-0.888,1.092-2.663c0-1.727-0.372-2.639-1.104-2.639C967.493,514.758,967.038,515.609,967.05,517.421z"/>
	<path d="M977.752,517.373c0,2.41-0.972,4.065-2.963,4.065c-2.015,0-2.902-1.811-2.914-4.018c0-2.255,0.959-4.042,2.975-4.042
		C976.937,513.379,977.752,515.238,977.752,517.373z M973.71,517.421c-0.012,1.787,0.42,2.639,1.127,2.639
		c0.708,0,1.092-0.888,1.092-2.663c0-1.727-0.372-2.639-1.104-2.639C974.153,514.758,973.698,515.609,973.71,517.421z"/>
	<path d="M984.244,513.511v1.151l-3.215,6.645h-1.931l3.215-6.272v-0.024h-3.574v-1.499H984.244z"/>
</g>
</svg>
